<?xml version="1.0" encoding="UTF-8"?>
<svg id="Layer_12" xmlns="http://www.w3.org/2000/svg" version="1.1" viewBox="0 0 1123.5 1123.5">
  <!-- Generator: Adobe Illustrator 30.2.1, SVG Export Plug-In . SVG Version: 2.1.1 Build 1)  -->
  <defs>
    <style>
      .st0 {
        fill: #fff;
      }
    </style>
  </defs>
  <g id="Background">
    <g>
      <polygon class="st0" points="526.1 548.1 526.1 548.1 842.8 548.1 684.5 273.8 526.1 548.1"/>
      <polygon class="st0" points="404.5 408.8 382.8 371.2 280.7 548.1 324.1 548.1 404.5 408.8"/>
      <polygon class="st0" points="602.2 359 534 240.8 356.6 548.1 493.1 548.1 602.2 359"/>
      <g>
        <polygon class="st0" points="526.1 575.4 526.1 575.4 842.8 575.4 684.5 849.7 526.1 575.4"/>
        <polygon class="st0" points="404.5 714.7 382.8 752.3 280.7 575.4 324.1 575.4 404.5 714.7"/>
        <polygon class="st0" points="602.2 764.5 534 882.7 356.6 575.4 493.1 575.4 602.2 764.5"/>
      </g>
    </g>
  </g>
</svg>