<?xml version="1.0" encoding="UTF-8" standalone="no"?><!DOCTYPE svg PUBLIC "-//W3C//DTD SVG 1.1//EN" "http://www.w3.org/Graphics/SVG/1.1/DTD/svg11.dtd"><svg width="100%" height="100%" viewBox="0 0 1463 1151" version="1.1" xmlns="http://www.w3.org/2000/svg" xmlns:xlink="http://www.w3.org/1999/xlink" xml:space="preserve" xmlns:serif="http://www.serif.com/" style="fill-rule:evenodd;clip-rule:evenodd;stroke-linejoin:round;stroke-miterlimit:2;"><g id="CloudTools_CMYK"><g transform="matrix(4.16667,0,0,4.16667,-168.596,-322.32)"><g transform="matrix(25.88,0,0,25.88,44.7554,348.174)"><path d="M0.093,-0l0,-0.723l0.142,0l0.201,0.559l0.206,-0.559l0.127,0l-0,0.723l-0.096,-0l-0,-0.588l-0.199,0.54l-0.099,-0l-0.194,-0.541l0,0.589l-0.088,-0Z" style="fill:#d71f21;fill-rule:nonzero;"/></g><g transform="matrix(25.88,0,0,25.88,66.3694,348.174)"><path d="M0.304,0.012c-0.076,0 -0.137,-0.025 -0.182,-0.075c-0.045,-0.051 -0.068,-0.118 -0.068,-0.202c0,-0.085 0.023,-0.153 0.068,-0.203c0.046,-0.049 0.107,-0.074 0.185,-0.074c0.078,0 0.14,0.025 0.185,0.074c0.045,0.05 0.068,0.117 0.068,0.202c0,0.086 -0.023,0.155 -0.068,0.204c-0.046,0.049 -0.109,0.074 -0.188,0.074Zm0.001,-0.072c0.102,-0 0.153,-0.069 0.153,-0.206c0,-0.136 -0.05,-0.204 -0.151,-0.204c-0.1,0 -0.15,0.068 -0.15,0.205c-0,0.137 0.049,0.205 0.148,0.205Z" style="fill:#d71f21;fill-rule:nonzero;"/></g><g transform="matrix(25.88,0,0,25.88,81.5891,348.174)"><path d="M0.096,-0l0,-0.53l0.096,-0l0,0.099c0.051,-0.074 0.113,-0.111 0.187,-0.111c0.046,0 0.082,0.015 0.11,0.044c0.027,0.029 0.041,0.068 0.041,0.117l-0,0.381l-0.096,0l-0,-0.35c-0,-0.039 -0.006,-0.067 -0.018,-0.084c-0.011,-0.017 -0.03,-0.025 -0.057,-0.025c-0.059,0 -0.115,0.039 -0.167,0.116l0,0.343l-0.096,0Z" style="fill:#d71f21;fill-rule:nonzero;"/></g><g transform="matrix(25.88,0,0,25.88,96.9732,348.174)"><path d="M0.096,-0l0,-0.53l0.096,-0l0,0.53l-0.096,-0Zm0,-0.626l0,-0.097l0.096,0l0,0.097l-0.096,-0Z" style="fill:#d71f21;fill-rule:nonzero;"/></g><g transform="matrix(25.88,0,0,25.88,103.777,348.174)"><path d="M0.255,0.012c-0.048,0 -0.087,-0.014 -0.114,-0.042c-0.027,-0.028 -0.041,-0.067 -0.041,-0.116l0,-0.312l-0.066,-0l-0,-0.072l0.066,-0l0,-0.096l0.096,-0.01l0,0.106l0.139,-0l-0,0.072l-0.139,-0l0,0.294c0,0.069 0.03,0.104 0.09,0.104c0.013,-0 0.028,-0.002 0.047,-0.006l-0,0.066c-0.03,0.008 -0.056,0.012 -0.078,0.012Z" style="fill:#d71f21;fill-rule:nonzero;"/></g><g transform="matrix(25.88,0,0,25.88,112.779,348.174)"><path d="M0.304,0.012c-0.076,0 -0.137,-0.025 -0.182,-0.075c-0.045,-0.051 -0.068,-0.118 -0.068,-0.202c0,-0.085 0.023,-0.153 0.068,-0.203c0.046,-0.049 0.107,-0.074 0.185,-0.074c0.078,0 0.14,0.025 0.185,0.074c0.045,0.05 0.068,0.117 0.068,0.202c0,0.086 -0.023,0.155 -0.068,0.204c-0.046,0.049 -0.109,0.074 -0.188,0.074Zm0.001,-0.072c0.102,-0 0.153,-0.069 0.153,-0.206c0,-0.136 -0.05,-0.204 -0.151,-0.204c-0.1,0 -0.15,0.068 -0.15,0.205c-0,0.137 0.049,0.205 0.148,0.205Z" style="fill:#d71f21;fill-rule:nonzero;"/></g><g transform="matrix(25.88,0,0,25.88,127.999,348.174)"><path d="M0.096,-0l0,-0.53l0.096,-0l0,0.099c0.038,-0.074 0.094,-0.111 0.166,-0.111c0.01,0 0.02,0.001 0.031,0.002l0,0.09c-0.016,-0.005 -0.031,-0.008 -0.044,-0.008c-0.061,-0 -0.112,0.036 -0.153,0.108l0,0.35l-0.096,0Z" style="fill:#d71f21;fill-rule:nonzero;"/></g><g transform="matrix(25.88,0,0,25.88,137.912,348.174)"><path d="M0.096,-0l0,-0.53l0.096,-0l0,0.53l-0.096,-0Zm0,-0.626l0,-0.097l0.096,0l0,0.097l-0.096,-0Z" style="fill:#d71f21;fill-rule:nonzero;"/></g><g transform="matrix(25.88,0,0,25.88,144.715,348.174)"><path d="M0.096,-0l0,-0.53l0.096,-0l0,0.099c0.051,-0.074 0.113,-0.111 0.187,-0.111c0.046,0 0.082,0.015 0.11,0.044c0.027,0.029 0.041,0.068 0.041,0.117l-0,0.381l-0.096,0l-0,-0.35c-0,-0.039 -0.006,-0.067 -0.018,-0.084c-0.011,-0.017 -0.03,-0.025 -0.057,-0.025c-0.059,0 -0.115,0.039 -0.167,0.116l0,0.343l-0.096,0Z" style="fill:#d71f21;fill-rule:nonzero;"/></g><g transform="matrix(25.88,0,0,25.88,160.099,348.174)"><path d="M0.098,0.176l0.011,-0.083c0.056,0.026 0.111,0.039 0.165,0.039c0.108,0 0.163,-0.057 0.163,-0.172l-0,-0.084c-0.036,0.075 -0.094,0.112 -0.175,0.112c-0.064,-0 -0.114,-0.023 -0.152,-0.07c-0.037,-0.046 -0.056,-0.108 -0.056,-0.187c0,-0.08 0.022,-0.146 0.064,-0.197c0.043,-0.051 0.098,-0.076 0.166,-0.076c0.059,0 0.11,0.024 0.153,0.072l-0,-0.06l0.096,-0l0,0.385c0,0.083 -0.004,0.145 -0.013,0.185c-0.008,0.04 -0.025,0.072 -0.048,0.098c-0.042,0.044 -0.108,0.067 -0.196,0.067c-0.062,-0 -0.121,-0.01 -0.178,-0.029Zm0.339,-0.36l-0,-0.22c-0.043,-0.044 -0.089,-0.066 -0.139,-0.066c-0.044,0 -0.079,0.018 -0.104,0.053c-0.025,0.036 -0.037,0.085 -0.037,0.146c-0,0.117 0.041,0.175 0.122,0.175c0.056,-0 0.108,-0.029 0.158,-0.088Z" style="fill:#d71f21;fill-rule:nonzero;"/></g><g transform="matrix(25.88,0,0,25.88,177.647,348.174)"><path d="M0.37,-0.067c-0.058,0.053 -0.113,0.079 -0.167,0.079c-0.044,0 -0.08,-0.014 -0.109,-0.041c-0.029,-0.028 -0.044,-0.062 -0.044,-0.104c0,-0.058 0.025,-0.103 0.073,-0.134c0.049,-0.031 0.119,-0.046 0.21,-0.046l0.022,-0l0,-0.064c0,-0.062 -0.031,-0.093 -0.094,-0.093c-0.051,0 -0.106,0.016 -0.165,0.047l0,-0.079c0.065,-0.027 0.126,-0.04 0.182,-0.04c0.06,0 0.103,0.013 0.131,0.04c0.029,0.027 0.043,0.068 0.043,0.125l-0,0.24c-0,0.055 0.017,0.082 0.05,0.082c0.005,0 0.011,-0 0.019,-0.002l0.007,0.054c-0.022,0.01 -0.046,0.015 -0.072,0.015c-0.045,0 -0.074,-0.026 -0.086,-0.079Zm-0.015,-0.053l0,-0.137l-0.032,-0.001c-0.052,0 -0.095,0.01 -0.128,0.03c-0.032,0.02 -0.049,0.047 -0.049,0.079c0,0.023 0.009,0.043 0.025,0.059c0.016,0.016 0.036,0.024 0.059,0.024c0.041,-0 0.082,-0.018 0.125,-0.054Z" style="fill:#d71f21;fill-rule:nonzero;"/></g><g transform="matrix(25.88,0,0,25.88,191.262,348.174)"><path d="M0.096,-0l0,-0.53l0.096,-0l0,0.099c0.051,-0.074 0.113,-0.111 0.187,-0.111c0.046,0 0.082,0.015 0.11,0.044c0.027,0.029 0.041,0.068 0.041,0.117l-0,0.381l-0.096,0l-0,-0.35c-0,-0.039 -0.006,-0.067 -0.018,-0.084c-0.011,-0.017 -0.03,-0.025 -0.057,-0.025c-0.059,0 -0.115,0.039 -0.167,0.116l0,0.343l-0.096,0Z" style="fill:#d71f21;fill-rule:nonzero;"/></g><g transform="matrix(25.88,0,0,25.88,206.646,348.174)"><path d="M0.437,-0l-0,-0.1c-0.04,0.075 -0.098,0.112 -0.177,0.112c-0.064,0 -0.114,-0.023 -0.151,-0.07c-0.036,-0.046 -0.055,-0.11 -0.055,-0.191c0,-0.088 0.021,-0.159 0.062,-0.212c0.042,-0.054 0.097,-0.081 0.164,-0.081c0.063,0 0.115,0.024 0.157,0.072l-0,-0.301l0.096,0l0,0.771l-0.096,-0Zm-0,-0.404c-0.05,-0.044 -0.097,-0.066 -0.142,-0.066c-0.092,0 -0.138,0.071 -0.138,0.212c-0,0.124 0.041,0.186 0.123,0.186c0.053,-0 0.105,-0.029 0.157,-0.088l-0,-0.244Z" style="fill:#d71f21;fill-rule:nonzero;"/></g><g transform="matrix(25.88,0,0,25.88,228.889,348.174)"><path d="M0.093,-0l0,-0.723l0.142,0l0.201,0.559l0.206,-0.559l0.127,0l-0,0.723l-0.096,-0l-0,-0.588l-0.199,0.54l-0.099,-0l-0.194,-0.541l0,0.589l-0.088,-0Z" style="fill:#d71f21;fill-rule:nonzero;"/></g><g transform="matrix(25.88,0,0,25.88,250.503,348.174)"><path d="M0.37,-0.067c-0.058,0.053 -0.113,0.079 -0.167,0.079c-0.044,0 -0.08,-0.014 -0.109,-0.041c-0.029,-0.028 -0.044,-0.062 -0.044,-0.104c0,-0.058 0.025,-0.103 0.073,-0.134c0.049,-0.031 0.119,-0.046 0.21,-0.046l0.022,-0l0,-0.064c0,-0.062 -0.031,-0.093 -0.094,-0.093c-0.051,0 -0.106,0.016 -0.165,0.047l0,-0.079c0.065,-0.027 0.126,-0.04 0.182,-0.04c0.06,0 0.103,0.013 0.131,0.04c0.029,0.027 0.043,0.068 0.043,0.125l-0,0.24c-0,0.055 0.017,0.082 0.05,0.082c0.005,0 0.011,-0 0.019,-0.002l0.007,0.054c-0.022,0.01 -0.046,0.015 -0.072,0.015c-0.045,0 -0.074,-0.026 -0.086,-0.079Zm-0.015,-0.053l0,-0.137l-0.032,-0.001c-0.052,0 -0.095,0.01 -0.128,0.03c-0.032,0.02 -0.049,0.047 -0.049,0.079c0,0.023 0.009,0.043 0.025,0.059c0.016,0.016 0.036,0.024 0.059,0.024c0.041,-0 0.082,-0.018 0.125,-0.054Z" style="fill:#d71f21;fill-rule:nonzero;"/></g><g transform="matrix(25.88,0,0,25.88,264.118,348.174)"><path d="M0.096,-0l0,-0.53l0.096,-0l0,0.099c0.051,-0.074 0.113,-0.111 0.187,-0.111c0.046,0 0.082,0.015 0.11,0.044c0.027,0.029 0.041,0.068 0.041,0.117l-0,0.381l-0.096,0l-0,-0.35c-0,-0.039 -0.006,-0.067 -0.018,-0.084c-0.011,-0.017 -0.03,-0.025 -0.057,-0.025c-0.059,0 -0.115,0.039 -0.167,0.116l0,0.343l-0.096,0Z" style="fill:#d71f21;fill-rule:nonzero;"/></g><g transform="matrix(25.88,0,0,25.88,279.502,348.174)"><path d="M0.37,-0.067c-0.058,0.053 -0.113,0.079 -0.167,0.079c-0.044,0 -0.08,-0.014 -0.109,-0.041c-0.029,-0.028 -0.044,-0.062 -0.044,-0.104c0,-0.058 0.025,-0.103 0.073,-0.134c0.049,-0.031 0.119,-0.046 0.21,-0.046l0.022,-0l0,-0.064c0,-0.062 -0.031,-0.093 -0.094,-0.093c-0.051,0 -0.106,0.016 -0.165,0.047l0,-0.079c0.065,-0.027 0.126,-0.04 0.182,-0.04c0.06,0 0.103,0.013 0.131,0.04c0.029,0.027 0.043,0.068 0.043,0.125l-0,0.24c-0,0.055 0.017,0.082 0.05,0.082c0.005,0 0.011,-0 0.019,-0.002l0.007,0.054c-0.022,0.01 -0.046,0.015 -0.072,0.015c-0.045,0 -0.074,-0.026 -0.086,-0.079Zm-0.015,-0.053l0,-0.137l-0.032,-0.001c-0.052,0 -0.095,0.01 -0.128,0.03c-0.032,0.02 -0.049,0.047 -0.049,0.079c0,0.023 0.009,0.043 0.025,0.059c0.016,0.016 0.036,0.024 0.059,0.024c0.041,-0 0.082,-0.018 0.125,-0.054Z" style="fill:#d71f21;fill-rule:nonzero;"/></g><g transform="matrix(25.88,0,0,25.88,293.117,348.174)"><path d="M0.098,0.176l0.011,-0.083c0.056,0.026 0.111,0.039 0.165,0.039c0.108,0 0.163,-0.057 0.163,-0.172l-0,-0.084c-0.036,0.075 -0.094,0.112 -0.175,0.112c-0.064,-0 -0.114,-0.023 -0.152,-0.07c-0.037,-0.046 -0.056,-0.108 -0.056,-0.187c0,-0.08 0.022,-0.146 0.064,-0.197c0.043,-0.051 0.098,-0.076 0.166,-0.076c0.059,0 0.11,0.024 0.153,0.072l-0,-0.06l0.096,-0l0,0.385c0,0.083 -0.004,0.145 -0.013,0.185c-0.008,0.04 -0.025,0.072 -0.048,0.098c-0.042,0.044 -0.108,0.067 -0.196,0.067c-0.062,-0 -0.121,-0.01 -0.178,-0.029Zm0.339,-0.36l-0,-0.22c-0.043,-0.044 -0.089,-0.066 -0.139,-0.066c-0.044,0 -0.079,0.018 -0.104,0.053c-0.025,0.036 -0.037,0.085 -0.037,0.146c-0,0.117 0.041,0.175 0.122,0.175c0.056,-0 0.108,-0.029 0.158,-0.088Z" style="fill:#d71f21;fill-rule:nonzero;"/></g><g transform="matrix(25.88,0,0,25.88,308.577,348.174)"><path d="M0.485,-0.017c-0.065,0.019 -0.12,0.029 -0.166,0.029c-0.078,0 -0.142,-0.026 -0.191,-0.078c-0.049,-0.052 -0.074,-0.119 -0.074,-0.202c0,-0.08 0.022,-0.146 0.065,-0.197c0.044,-0.052 0.099,-0.077 0.167,-0.077c0.064,-0 0.114,0.022 0.149,0.068c0.035,0.045 0.052,0.11 0.052,0.194l-0,0.03l-0.335,0c0.014,0.126 0.076,0.189 0.185,0.189c0.04,-0 0.09,-0.011 0.148,-0.032l-0,0.076Zm-0.328,-0.305l0.234,-0c-0,-0.099 -0.037,-0.148 -0.111,-0.148c-0.074,-0 -0.115,0.049 -0.123,0.148Z" style="fill:#d71f21;fill-rule:nonzero;"/></g><g transform="matrix(25.88,0,0,25.88,322.318,348.174)"><path d="M0.096,-0l0,-0.53l0.096,-0l0,0.099c0.047,-0.074 0.107,-0.111 0.181,-0.111c0.071,0 0.119,0.037 0.145,0.111c0.046,-0.074 0.105,-0.111 0.178,-0.111c0.047,-0 0.083,0.013 0.109,0.041c0.025,0.027 0.038,0.066 0.038,0.115l0,0.386l-0.096,-0l-0,-0.371c-0,-0.06 -0.024,-0.09 -0.072,-0.09c-0.05,-0 -0.102,0.035 -0.157,0.106l0,0.355l-0.097,-0l0,-0.371c0,-0.06 -0.024,-0.091 -0.073,-0.091c-0.048,0 -0.1,0.036 -0.156,0.107l0,0.355l-0.096,-0Z" style="fill:#d71f21;fill-rule:nonzero;"/></g><g transform="matrix(25.88,0,0,25.88,345.802,348.174)"><path d="M0.485,-0.017c-0.065,0.019 -0.12,0.029 -0.166,0.029c-0.078,0 -0.142,-0.026 -0.191,-0.078c-0.049,-0.052 -0.074,-0.119 -0.074,-0.202c0,-0.08 0.022,-0.146 0.065,-0.197c0.044,-0.052 0.099,-0.077 0.167,-0.077c0.064,-0 0.114,0.022 0.149,0.068c0.035,0.045 0.052,0.11 0.052,0.194l-0,0.03l-0.335,0c0.014,0.126 0.076,0.189 0.185,0.189c0.04,-0 0.09,-0.011 0.148,-0.032l-0,0.076Zm-0.328,-0.305l0.234,-0c-0,-0.099 -0.037,-0.148 -0.111,-0.148c-0.074,-0 -0.115,0.049 -0.123,0.148Z" style="fill:#d71f21;fill-rule:nonzero;"/></g><g transform="matrix(25.88,0,0,25.88,359.544,348.174)"><path d="M0.096,-0l0,-0.53l0.096,-0l0,0.099c0.051,-0.074 0.113,-0.111 0.187,-0.111c0.046,0 0.082,0.015 0.11,0.044c0.027,0.029 0.041,0.068 0.041,0.117l-0,0.381l-0.096,0l-0,-0.35c-0,-0.039 -0.006,-0.067 -0.018,-0.084c-0.011,-0.017 -0.03,-0.025 -0.057,-0.025c-0.059,0 -0.115,0.039 -0.167,0.116l0,0.343l-0.096,0Z" style="fill:#d71f21;fill-rule:nonzero;"/></g><g transform="matrix(25.88,0,0,25.88,374.928,348.174)"><path d="M0.255,0.012c-0.048,0 -0.087,-0.014 -0.114,-0.042c-0.027,-0.028 -0.041,-0.067 -0.041,-0.116l0,-0.312l-0.066,-0l-0,-0.072l0.066,-0l0,-0.096l0.096,-0.01l0,0.106l0.139,-0l-0,0.072l-0.139,-0l0,0.294c0,0.069 0.03,0.104 0.09,0.104c0.013,-0 0.028,-0.002 0.047,-0.006l-0,0.066c-0.03,0.008 -0.056,0.012 -0.078,0.012Z" style="fill:#d71f21;fill-rule:nonzero;"/></g></g><path d="M1064.58,333.163c-0,184.008 -149.163,333.17 -333.163,333.17c-184.012,0 -333.183,-149.162 -333.183,-333.171c-0,-184.012 149.171,-333.162 333.183,-333.162c184,-0 333.163,149.15 333.163,333.162" style="fill:#fff;fill-rule:nonzero;"/><path d="M408.358,332.149c-0,178.292 144.753,323.044 323.048,323.044c178.295,-0 323.048,-144.752 323.048,-323.044c-0,-178.293 -144.753,-323.044 -323.048,-323.044c-178.295,0 -323.048,144.751 -323.048,323.044Z" style="fill:url(#_Linear1);"/><g opacity="0.12"><path d="M731.665,19.899c176.605,-0 320.013,141.729 322.909,317.646c0.025,-1.805 0.133,-3.584 0.133,-5.396c0,-178.421 -144.633,-323.046 -323.042,-323.046c-178.412,-0 -323.054,144.625 -323.054,323.046c0,1.812 0.109,3.591 0.138,5.396c2.896,-175.917 146.312,-317.646 322.916,-317.646" style="fill:#822000;fill-rule:nonzero;"/></g><g><clipPath id="_clip2"><path d="M408.612,332.151c0,178.417 144.642,323.042 323.054,323.042c178.404,-0 323.046,-144.625 323.046,-323.042c0,-178.421 -144.642,-323.046 -323.046,-323.046c-178.412,0 -323.054,144.625 -323.054,323.046Z" clip-rule="nonzero"/></clipPath><g clip-path="url(#_clip2)"><path d="M589.565,115.01c5.121,-5.958 14.688,-10.058 19.367,-5.533c4.679,4.525 5.871,13.108 1.429,18.863c-3.637,4.712 -16.033,10.162 -21.912,4.1c-5.471,-5.638 -2.121,-13.659 1.116,-17.43" style="fill:#fff;fill-rule:nonzero;"/><path d="M758.287,428.856c16.067,48.317 -7.267,58.267 -30.558,56.929c-24.029,-1.379 -35.379,-14.412 -39.529,-41.05c11.037,0.492 26.533,-2.583 36.366,-11.292c-113.904,-13.37 -194.375,-110.458 -192.966,-150.545c11.558,11.987 39.595,15.958 54.787,-0.113c-19.967,-5.004 -37.108,-28.604 -35.133,-49.604c14.95,12.529 32.154,5.762 38.487,-7.438c-29.254,6.138 -57.129,-38.966 -40.404,-86.604c15.875,-45.216 59.804,-59.804 87.379,-54.104c-2.904,4.213 -4.308,10.392 -1.871,17.888c7.625,-12.65 24.005,-19.621 45.875,-23.525l-9.908,-8.084c-6.871,1.009 -12.933,3.029 -20.046,6.134c-31.471,-13.863 -100.404,-3.746 -146.708,83.666c7.404,-6.041 16.879,-9.929 20.267,-10.237c-12.484,19.275 -27.438,51.571 -32.084,78.858c5.338,-4.871 13.017,-9.179 19.721,-10.862c-17.867,74.579 30.608,154.65 87.213,188.362c-1.667,16.646 2.9,26.029 17.687,42.683c-1.171,1.717 -5.633,7.396 -8.229,11.034c-1.35,1.896 -3.529,4.983 -7.779,4.108c-7.484,-1.537 -104.229,-28.546 -112.838,-35.192c-4.208,-19.741 -30.908,-39.462 -52.362,-29.8c-9.1,-2.362 -13.246,3.546 -15.167,8.088c5.217,-3.263 11.313,-1.679 14.154,1.008c3.246,9.438 20.646,-8.35 35.342,17.559c-9.096,-2.696 -41.025,-9.53 -45.458,0.162c-4.05,0.367 -10.321,0.475 -12.53,9.067c5.067,-2.304 9.088,-2.584 12.592,-1.509c5.729,8.763 44.65,-2.587 64.646,14.596c17.521,17.975 4.975,27.471 16.821,32.659c-0.454,6.17 -5.246,7.812 -9.792,8.9c6.033,3.304 14.421,3.275 18.133,-6.513c11.055,-2.554 2.696,-26.283 -8.987,-33.021c22.242,8.088 78.987,24.504 94.779,27.796c8.108,1.688 14.258,-0.05 17.904,-5.067c2.704,-3.716 7.096,-8.108 10.779,-13.712c8.321,6.333 14.405,7.362 21.521,6.237c-1.687,-13.766 3.092,-25.85 11.613,-31.841c4.65,51.8 28.616,74.454 57.321,75.3c4.55,5.037 19.995,33.483 21.679,36.571c1.546,2.833 3.825,8.27 0.283,10.116c-6.146,3.204 -81.154,20.684 -104.95,26.459c-11.929,-10.5 -50.637,-23.55 -56.237,-1.163c-8.205,6.342 -8.084,12.883 -2.963,18.579c-0.671,-7.341 1.217,-8.591 7.475,-13.575c9.667,4.696 13.025,-9.854 35.783,2.459c-19.32,7.187 -39.941,16.091 -35.112,32.516c-2.917,3.438 -2.3,12.117 -0.625,17.4c3.337,-3.033 5.208,-7.154 6.662,-13.575c8.855,2.563 1.6,-11.812 45.117,-26.271c27.183,7.617 31.338,26.863 38.85,27.434c3.983,5.516 0.558,12.229 -3.796,16.296c11.867,-0.059 15.409,-11.617 11.234,-17.971c9.67,-15.313 -18.092,-30.05 -28.413,-30.592c21.725,-5.796 88.621,-21.642 100.079,-27.033c9.1,-4.284 9.55,-12.363 3.934,-21.917c-2.438,-4.142 -15.009,-30.233 -18.021,-35.637c51.041,-6.842 41.3,-65.284 17.983,-81.017m35.471,49.167c3.904,6.741 18.812,11.712 32.087,10.025c-5.37,19.025 -37.379,25.437 -53.012,22.066c41.012,45.288 33.004,102.471 105.342,96.179c-40.888,-6.741 -57.471,-52.87 -60.28,-77.037c16.78,20.954 43.796,29.225 61.717,28.95c-10.2,-19.296 -15.958,-36.817 -17.083,-60.417c64.346,43.271 124.475,61.534 177.579,78.288c9.221,2.908 6.579,11.941 0.417,14.971c-25.988,12.762 -111.03,6.77 -141.75,-32.192c19.858,38.962 64.437,49.075 109.85,54.875c0.2,2.675 0.441,18.733 -15.725,17.1c-30.063,-3.042 -84.892,-8.113 -116.321,-55.533c12.958,51.829 96.583,71.437 121.65,78.262c11.575,3.15 27.725,2.979 33.508,-39c15.317,-2.954 27.933,-11.175 33.283,-17.879c5.521,-6.917 17.55,-30.633 -4.4,-34.829c-25.312,-4.838 -115.712,-32.509 -176.966,-73.534c-26.963,-18.054 -27.321,-43.17 -49.65,-62.087c9.791,37.462 -17.184,50.95 -40.246,51.792m-67.875,-402.825c11.267,-0.388 16.833,0.083 22.067,0.783c-48.667,21.133 -88.905,28.321 -105.005,52.7c-2.495,-6.692 0.225,-19.05 5.759,-27.821c-17.7,6.933 -24.779,27.638 -21.071,55.258c-12.604,18.725 -15.454,45.521 6.45,73.742c-21.154,-70.367 44.154,-102 125.521,-138.125c-7.009,-3.054 -20.709,-3.708 -20.709,-3.708c6.942,-4.413 16.092,-9.888 26.692,-14.575c-12.271,-3.104 -26.904,-6.388 -49.446,-6.121l9.742,7.867Zm38.842,284.733c18.245,5.408 40.545,-0.675 52.708,-15.542c-32.438,12.842 -152.621,-35.591 -161.667,-104.4c-4.412,36.846 15.204,62.846 27.871,72.475c-9.362,8.242 -13.392,20.484 -12.267,33.971c-13.487,-6.742 -23.845,-37.208 -21.916,-56.275c-11.275,5.058 -15.479,12.208 -21.15,22.317c-3.842,-17.692 0.879,-37.5 10.187,-46.609c-6.083,-1.854 -12.871,-2.145 -18.204,-1.204c2.613,-7.321 9.1,-16.108 21.067,-24.3c-15.688,1.175 -40.092,16.038 -43.788,38.638c7.034,-1.584 16.55,-0.538 22.067,1.15c-7.088,16.616 -7.188,44.05 7.354,65.696c0.85,-7.667 5.413,-21.625 14.308,-28.246c-1.558,20.129 12.863,53.091 43.113,59.362c-0.3,-11.046 0.825,-23.783 5.696,-32.4c13.333,51.792 43.458,72.304 75.208,69.775c-12.646,-7.212 -28.308,-22.291 -30.254,-45.05c20.679,32.796 102.317,55.071 123.671,45.704c-35.217,-8.241 -81.842,-29.383 -94.004,-55.062m228.566,70.617c26.475,11.937 73.759,-0.317 86.159,-8.142c14.541,-9.183 13.116,-23.883 -4.567,-32.404c-17.679,-8.521 -239.883,-88.779 -251.875,-93.25c2.571,-7.263 -2.508,-21.246 -9.954,-24.779c-6,-2.85 -80.271,-31.034 -133.471,-52.759c-14.621,-5.975 -34.438,-17.387 -37.808,-36.496c-6.367,27.725 13.425,42.638 24.037,47.28c12.679,5.545 127.317,52 136.308,56.12c5.388,2.471 7.117,12.363 3.138,20.955c37.833,14.17 240.775,89.025 250.096,93.7c9.316,4.67 10.212,9.512 -0.084,11.87c-13.812,3.167 -36.854,8.592 -64.275,-2.6c-17.325,-7.07 -136.05,-54.616 -157.391,-62.087c16.462,9.633 112.954,58.396 134.537,68.829c-15.425,11.121 -102.166,-8.896 -126.891,-23.237c49.666,47.133 139.404,49.429 152.041,37" style="fill:#fff;fill-rule:nonzero;"/><path d="M980.358,210.453c-1.292,-33.562 -22.413,-38.954 -36.571,-40.016c-7.358,-0.55 -11.854,-0.55 -16.35,-0.829c-14.983,-10.78 -42.95,-25.33 -46.637,-27.725c-4.313,-2.809 -12.559,-7.492 -23.234,-9.367c8.054,-0.746 12.046,-2.8 14.55,-4.813c2.504,-2.008 3.296,-3.496 6.717,-4.537c3.421,-1.046 2.029,-5.604 -1.867,-8.158c-3.891,-2.55 -6.25,-6.192 -9.246,0.329c-2.995,6.521 -7.12,7.562 -12.029,7.816c-4.908,0.25 -6.2,7.188 -10.487,7.492c-30.946,2.188 -69.488,-14.812 -91.413,-27.35l-11.612,6.371c12.362,7.104 28.229,14.25 31.979,15.612c5.604,2.03 25.842,10.292 31.671,11.009c-3.759,29.341 -0.679,42.537 3.291,61.087c1.009,4.7 3.317,14.888 -5.845,19.25c9.8,8.3 17.72,-7.275 20.645,-3.804c2.93,3.467 8.234,2.471 8.234,2.471c-22.471,-31.867 -18.95,-48.504 -18.392,-76.642c37.058,0.988 58.042,8.854 70.296,15.95c15.208,8.8 34.667,17.538 46.937,22.313c23.325,9.083 30.43,33.971 29.571,51.612c-8.775,-35.483 -34.821,-43.079 -45.133,-46.337c-22.792,26.321 -6.175,55.391 15.875,63.116c17.575,6.163 37.246,14.592 40.875,31.842c6.883,-17.642 9.467,-33.129 8.175,-66.692" style="fill:#fff;fill-rule:nonzero;"/><path d="M688.882,73.698c-23.975,-21.354 -43.55,-26.316 -53.105,-17.045c-6.762,6.562 -14.316,-5.363 -13.487,-9.271c1.967,-9.275 10.608,-3.804 19.667,-6.184c21.166,-5.554 65.016,29.755 65.016,29.755l17.875,14.92l-14.237,6.184l-21.729,-18.359Z" style="fill:#fff;fill-rule:nonzero;"/></g></g><path d="M67.625,871.536c17.483,-0 27.517,-9.608 27.517,-26.358c-0,-16.4 -9.771,-25.434 -27.517,-25.434l-30.525,0l0,51.792l30.525,-0Zm-67.625,83.625l0,-166.729l69.708,-0c37.988,-0 62.53,22.275 62.53,56.745c-0,33.955 -25.713,57.671 -62.53,57.671l-32.608,0l0,52.313l-37.1,-0Z" style="fill:#2e3033;fill-rule:nonzero;"/><path d="M212.607,955.161l0,-166.729l118.117,0l-0,31.546l-81.021,-0l-0,34.892l74.075,-0l-0,31.775l-74.075,-0l-0,36.97l81.254,0l0,31.546l-118.35,0Z" style="fill:#2e3033;fill-rule:nonzero;"/><path d="M485.631,872.461c17.371,0 27.741,-10.025 27.741,-26.821c0,-16.608 -10.108,-26.125 -27.741,-26.125l-34.463,0l0,52.946l34.463,0Zm25.491,82.7l-29.633,-51.85l-30.321,0l0,51.85l-37.096,0l0,-166.729l75.492,0c37.008,0 60.913,22.55 60.913,57.442c-0,22.741 -11.513,41.629 -30.942,51.041l34.567,58.246l-42.98,0Z" style="fill:#2e3033;fill-rule:nonzero;"/><path d="M929.541,816.735c-23.817,-0 -37.471,15.175 -37.471,41.637l0,26.85c0,26.463 13.654,41.638 37.471,41.638c23.808,-0 37.462,-15.175 37.462,-41.638l0,-26.85c0,-26.462 -13.654,-41.637 -37.462,-41.637m-0,141.666c-45.3,0 -74.567,-29.362 -74.567,-74.8l0,-23.608c0,-45.438 29.267,-74.8 74.567,-74.8c45.992,-0 74.567,28.662 74.567,74.8l-0,23.608c-0,46.138 -28.575,74.8 -74.567,74.8" style="fill:#2e3033;fill-rule:nonzero;"/><path d="M1191.76,955.161l-66.988,-102.354l0,102.354l-36.404,0l0,-166.729l34.396,0l66.988,102.354l-0,-102.354l36.408,0l-0,166.729l-34.4,0Z" style="fill:#2e3033;fill-rule:nonzero;"/><path d="M1404.89,890.748l-19.967,-63.07l-20.154,63.07l40.121,0Zm20.7,64.413l-10.88,-34.025l-59.541,-0l-10.879,34.025l-37.213,-0l59.783,-166.729l36.163,-0l59.783,166.729l-37.216,-0Z" style="fill:#2e3033;fill-rule:nonzero;"/><path d="M742.064,896.375c-2.779,19.229 -15.758,30.713 -35.125,30.713c-31.591,-0 -36.312,-26.375 -36.312,-42.096l-0,-26.388c-0,-15.725 4.721,-42.1 36.312,-42.1c19.317,0 32.271,11.429 35.096,30.563l34.458,-5.138c-4.629,-33.712 -32.362,-56.733 -69.554,-56.733c-45.821,-0 -73.175,28.05 -73.175,75.029l0,23.146c0,46.983 27.354,75.029 73.175,75.029c37.246,0 65.004,-23.096 69.567,-56.892l-34.442,-5.133Z" style="fill:#2e3033;fill-rule:nonzero;"/></g><defs><linearGradient id="_Linear1" x1="0" y1="0" x2="1" y2="0" gradientUnits="userSpaceOnUse" gradientTransform="matrix(0,416.063,-416.063,0,731.406,-25.6047)"><stop offset="0" style="stop-color:#fbbb1c;stop-opacity:1"/><stop offset="1" style="stop-color:#bd2b0b;stop-opacity:1"/></linearGradient></defs></svg>