<svg width="24" height="24" viewBox="0 0 24 24" fill="none" xmlns="http://www.w3.org/2000/svg">
<path d="M10 16C11.6667 16 13.0833 15.4167 14.25 14.25C15.4167 13.0833 16 11.6667 16 10C16 8.33333 15.4167 6.91667 14.25 5.75C13.0833 4.58333 11.6667 4 10 4C8.33333 4 6.91667 4.58333 5.75 5.75C4.58333 6.91667 4 8.33333 4 10C4 11.6667 4.58333 13.0833 5.75 14.25C6.91667 15.4167 8.33333 16 10 16ZM9 13V6H11V13H9ZM5.5 13V8H7.5V13H5.5ZM12.5 13V9H14.5V13H12.5ZM20.6 22L14.925 16.325C14.2417 16.8583 13.4833 17.2708 12.65 17.5625C11.8167 17.8542 10.9333 18 10 18C7.76667 18 5.875 17.225 4.325 15.675C2.775 14.125 2 12.2333 2 10C2 7.76667 2.775 5.875 4.325 4.325C5.875 2.775 7.76667 2 10 2C12.2333 2 14.125 2.775 15.675 4.325C17.225 5.875 18 7.76667 18 10C18 10.9333 17.8542 11.8167 17.5625 12.65C17.2708 13.4833 16.8583 14.2417 16.325 14.925L22 20.6L20.6 22Z" fill="currentColor"/>
</svg>
