<svg width="24" height="24" viewBox="0 0 24 24" fill="none" xmlns="http://www.w3.org/2000/svg">
<path d="M6 13C7.1 13 8.04186 13.3915 8.8252 14.1748C9.60853 14.9581 10 15.9 10 17C10 18.1 9.60853 19.0419 8.8252 19.8252C8.04186 20.6085 7.1 21 6 21C4.9 21 3.95814 20.6085 3.1748 19.8252C2.39147 19.0419 2 18.1 2 17C2 15.9 2.39147 14.9581 3.1748 14.1748C3.95814 13.3915 4.9 13 6 13ZM18 13C19.1 13 20.0419 13.3915 20.8252 14.1748C21.6085 14.9581 22 15.9 22 17C22 18.1 21.6085 19.0419 20.8252 19.8252C20.0419 20.6085 19.1 21 18 21C16.9 21 15.9581 20.6085 15.1748 19.8252C14.3915 19.0419 14 18.1 14 17C14 15.9 14.3915 14.9581 15.1748 14.1748C15.9581 13.3915 16.9 13 18 13ZM6 15C5.45 15 4.97956 15.1962 4.58789 15.5879C4.19622 15.9796 4 16.45 4 17C4 17.55 4.19622 18.0204 4.58789 18.4121C4.97956 18.8038 5.45 19 6 19C6.55 19 7.02044 18.8038 7.41211 18.4121C7.80378 18.0204 8 17.55 8 17C8 16.45 7.80378 15.9796 7.41211 15.5879C7.02044 15.1962 6.55 15 6 15ZM18 15C17.45 15 16.9796 15.1962 16.5879 15.5879C16.1962 15.9796 16 16.45 16 17C16 17.55 16.1962 18.0204 16.5879 18.4121C16.9796 18.8038 17.45 19 18 19C18.55 19 19.0204 18.8038 19.4121 18.4121C19.8038 18.0204 20 17.55 20 17C20 16.45 19.8038 15.9796 19.4121 15.5879C19.0204 15.1962 18.55 15 18 15ZM12 11.0996C12.5333 11.0996 12.9829 11.2837 13.3496 11.6504C13.7163 12.0171 13.9004 12.4667 13.9004 13C13.9004 13.5333 13.7163 13.9829 13.3496 14.3496C12.9829 14.7163 12.5333 14.9004 12 14.9004C11.4667 14.9004 11.0171 14.7163 10.6504 14.3496C10.2837 13.9829 10.0996 13.5333 10.0996 13C10.0996 12.4667 10.2837 12.0171 10.6504 11.6504C11.0171 11.2837 11.4667 11.0996 12 11.0996ZM12 2C13.1 2 14.0419 2.39147 14.8252 3.1748C15.6085 3.95814 16 4.9 16 6C16 7.1 15.6085 8.04186 14.8252 8.8252C14.0419 9.60853 13.1 10 12 10C10.9 10 9.95814 9.60853 9.1748 8.8252C8.39147 8.04186 8 7.1 8 6C8 4.9 8.39147 3.95814 9.1748 3.1748C9.95814 2.39147 10.9 2 12 2ZM12 4C11.45 4 10.9796 4.19622 10.5879 4.58789C10.1962 4.97956 10 5.45 10 6C10 6.55 10.1962 7.02044 10.5879 7.41211C10.9796 7.80378 11.45 8 12 8C12.55 8 13.0204 7.80378 13.4121 7.41211C13.8038 7.02044 14 6.55 14 6C14 5.45 13.8038 4.97956 13.4121 4.58789C13.0204 4.19622 12.55 4 12 4Z" fill="currentColor"/>
</svg>
