<svg width="24" height="24" viewBox="0 0 24 24" fill="none" xmlns="http://www.w3.org/2000/svg">
<mask id="mask0_3254_18196" style="mask-type:alpha" maskUnits="userSpaceOnUse" x="0" y="0" width="24" height="24">
<rect width="24" height="24" fill="#D9D9D9"/>
</mask>
<g mask="url(#mask0_3254_18196)">
<path d="M12 22.5C11.1667 22.5 10.4583 22.2083 9.875 21.625C9.29167 21.0417 9 20.3333 9 19.5C9 18.6667 9.29167 17.9583 9.875 17.375C10.4583 16.7917 11.1667 16.5 12 16.5C12.8333 16.5 13.5417 16.7917 14.125 17.375C14.7083 17.9583 15 18.6667 15 19.5C15 20.3333 14.7083 21.0417 14.125 21.625C13.5417 22.2083 12.8333 22.5 12 22.5ZM12 20.5C12.2833 20.5 12.5208 20.4042 12.7125 20.2125C12.9042 20.0208 13 19.7833 13 19.5C13 19.2167 12.9042 18.9792 12.7125 18.7875C12.5208 18.5958 12.2833 18.5 12 18.5C11.7167 18.5 11.4792 18.5958 11.2875 18.7875C11.0958 18.9792 11 19.2167 11 19.5C11 19.7833 11.0958 20.0208 11.2875 20.2125C11.4792 20.4042 11.7167 20.5 12 20.5ZM5.5 18.75C4.66667 18.75 3.95833 18.4583 3.375 17.875C2.79167 17.2917 2.5 16.5833 2.5 15.75C2.5 14.9167 2.79167 14.2083 3.375 13.625C3.95833 13.0417 4.66667 12.75 5.5 12.75C6.33333 12.75 7.04167 13.0417 7.625 13.625C8.20833 14.2083 8.5 14.9167 8.5 15.75C8.5 16.5833 8.20833 17.2917 7.625 17.875C7.04167 18.4583 6.33333 18.75 5.5 18.75ZM18.5 18.75C17.6667 18.75 16.9583 18.4583 16.375 17.875C15.7917 17.2917 15.5 16.5833 15.5 15.75C15.5 14.9167 15.7917 14.2083 16.375 13.625C16.9583 13.0417 17.6667 12.75 18.5 12.75C19.3333 12.75 20.0417 13.0417 20.625 13.625C21.2083 14.2083 21.5 14.9167 21.5 15.75C21.5 16.5833 21.2083 17.2917 20.625 17.875C20.0417 18.4583 19.3333 18.75 18.5 18.75ZM5.5 16.75C5.78333 16.75 6.02083 16.6542 6.2125 16.4625C6.40417 16.2708 6.5 16.0333 6.5 15.75C6.5 15.4667 6.40417 15.2292 6.2125 15.0375C6.02083 14.8458 5.78333 14.75 5.5 14.75C5.21667 14.75 4.97917 14.8458 4.7875 15.0375C4.59583 15.2292 4.5 15.4667 4.5 15.75C4.5 16.0333 4.59583 16.2708 4.7875 16.4625C4.97917 16.6542 5.21667 16.75 5.5 16.75ZM18.5 16.75C18.7833 16.75 19.0208 16.6542 19.2125 16.4625C19.4042 16.2708 19.5 16.0333 19.5 15.75C19.5 15.4667 19.4042 15.2292 19.2125 15.0375C19.0208 14.8458 18.7833 14.75 18.5 14.75C18.2167 14.75 17.9792 14.8458 17.7875 15.0375C17.5958 15.2292 17.5 15.4667 17.5 15.75C17.5 16.0333 17.5958 16.2708 17.7875 16.4625C17.9792 16.6542 18.2167 16.75 18.5 16.75ZM5.5 11.25C4.66667 11.25 3.95833 10.9583 3.375 10.375C2.79167 9.79167 2.5 9.08333 2.5 8.25C2.5 7.41667 2.79167 6.70833 3.375 6.125C3.95833 5.54167 4.66667 5.25 5.5 5.25C6.33333 5.25 7.04167 5.54167 7.625 6.125C8.20833 6.70833 8.5 7.41667 8.5 8.25C8.5 9.08333 8.20833 9.79167 7.625 10.375C7.04167 10.9583 6.33333 11.25 5.5 11.25ZM18.5 11.25C17.6667 11.25 16.9583 10.9583 16.375 10.375C15.7917 9.79167 15.5 9.08333 15.5 8.25C15.5 7.41667 15.7917 6.70833 16.375 6.125C16.9583 5.54167 17.6667 5.25 18.5 5.25C19.3333 5.25 20.0417 5.54167 20.625 6.125C21.2083 6.70833 21.5 7.41667 21.5 8.25C21.5 9.08333 21.2083 9.79167 20.625 10.375C20.0417 10.9583 19.3333 11.25 18.5 11.25ZM5.5 9.25C5.78333 9.25 6.02083 9.15417 6.2125 8.9625C6.40417 8.77083 6.5 8.53333 6.5 8.25C6.5 7.96667 6.40417 7.72917 6.2125 7.5375C6.02083 7.34583 5.78333 7.25 5.5 7.25C5.21667 7.25 4.97917 7.34583 4.7875 7.5375C4.59583 7.72917 4.5 7.96667 4.5 8.25C4.5 8.53333 4.59583 8.77083 4.7875 8.9625C4.97917 9.15417 5.21667 9.25 5.5 9.25ZM18.5 9.25C18.7833 9.25 19.0208 9.15417 19.2125 8.9625C19.4042 8.77083 19.5 8.53333 19.5 8.25C19.5 7.96667 19.4042 7.72917 19.2125 7.5375C19.0208 7.34583 18.7833 7.25 18.5 7.25C18.2167 7.25 17.9792 7.34583 17.7875 7.5375C17.5958 7.72917 17.5 7.96667 17.5 8.25C17.5 8.53333 17.5958 8.77083 17.7875 8.9625C17.9792 9.15417 18.2167 9.25 18.5 9.25ZM12 7.5C11.1667 7.5 10.4583 7.20833 9.875 6.625C9.29167 6.04167 9 5.33333 9 4.5C9 3.66667 9.29167 2.95833 9.875 2.375C10.4583 1.79167 11.1667 1.5 12 1.5C12.8333 1.5 13.5417 1.79167 14.125 2.375C14.7083 2.95833 15 3.66667 15 4.5C15 5.33333 14.7083 6.04167 14.125 6.625C13.5417 7.20833 12.8333 7.5 12 7.5ZM12 5.5C12.2833 5.5 12.5208 5.40417 12.7125 5.2125C12.9042 5.02083 13 4.78333 13 4.5C13 4.21667 12.9042 3.97917 12.7125 3.7875C12.5208 3.59583 12.2833 3.5 12 3.5C11.7167 3.5 11.4792 3.59583 11.2875 3.7875C11.0958 3.97917 11 4.21667 11 4.5C11 4.78333 11.0958 5.02083 11.2875 5.2125C11.4792 5.40417 11.7167 5.5 12 5.5Z" fill="#2C323E"/>
</g>
</svg>
