<svg width="24" height="24" viewBox="0 0 24 24" fill="none" xmlns="http://www.w3.org/2000/svg">
<path fill-rule="evenodd" clip-rule="evenodd" d="M9.625 2H6.5V5.125H9.625V2ZM17.5 2H14.375V5.125H17.5V2ZM14.125 5.375H9.875V9.625H14.125V5.375ZM5.125 6.5H2V9.625H5.125V6.5ZM22 6.5H18.875V9.625H22V6.5ZM9.625 14.125V9.875H5.375V14.125H9.625ZM18.625 14.125V9.875H14.375V14.125H18.625ZM5.125 14.375H2V17.5H5.125V14.375ZM14.125 14.375H9.875V18.625H14.125V14.375ZM22 14.375H18.875V17.5H22V14.375ZM9.625 18.875H6.5V22H9.625V18.875ZM17.5 18.875H14.375V22H17.5V18.875Z" fill="currentColor"/>
</svg>
