<svg width="24" height="24" viewBox="0 0 24 24" fill="none" xmlns="http://www.w3.org/2000/svg">
<path d="M12.05 22C11.2167 22 10.5083 21.7083 9.925 21.125C9.34167 20.5417 9.05 19.8333 9.05 19C9.05 18.3667 9.23333 17.7958 9.6 17.2875C9.96667 16.7792 10.4333 16.4167 11 16.2V9.8L7.575 13.95C7.70833 14.1833 7.8125 14.4292 7.8875 14.6875C7.9625 14.9458 8 15.2167 8 15.5C8 16.3333 7.70833 17.0417 7.125 17.625C6.54167 18.2083 5.83333 18.5 5 18.5C4.16667 18.5 3.45833 18.2083 2.875 17.625C2.29167 17.0417 2 16.3333 2 15.5C2 14.6667 2.29167 13.9583 2.875 13.375C3.45833 12.7917 4.16667 12.5 5 12.5C5.18333 12.5 5.35833 12.5125 5.525 12.5375C5.69167 12.5625 5.85833 12.6083 6.025 12.675L10.325 7.475C9.925 7.19167 9.60417 6.8375 9.3625 6.4125C9.12083 5.9875 9 5.51667 9 5C9 4.16667 9.29167 3.45833 9.875 2.875C10.4583 2.29167 11.1667 2 12 2C12.8333 2 13.5417 2.29167 14.125 2.875C14.7083 3.45833 15 4.16667 15 5C15 5.51667 14.8792 5.9875 14.6375 6.4125C14.3958 6.8375 14.075 7.19167 13.675 7.475L17.975 12.675C18.1417 12.6083 18.3083 12.5625 18.475 12.5375C18.6417 12.5125 18.8167 12.5 19 12.5C19.8333 12.5 20.5417 12.7917 21.125 13.375C21.7083 13.9583 22 14.6667 22 15.5C22 16.3333 21.7083 17.0417 21.125 17.625C20.5417 18.2083 19.8333 18.5 19 18.5C18.1667 18.5 17.4583 18.2083 16.875 17.625C16.2917 17.0417 16 16.3333 16 15.5C16 15.2167 16.0375 14.9458 16.1125 14.6875C16.1875 14.4292 16.2917 14.1833 16.425 13.95L13 9.8V16.15C13.6 16.35 14.0917 16.7083 14.475 17.225C14.8583 17.7417 15.05 18.3333 15.05 19C15.05 19.8333 14.7583 20.5417 14.175 21.125C13.5917 21.7083 12.8833 22 12.05 22ZM12.05 20C12.3333 20 12.5708 19.9042 12.7625 19.7125C12.9542 19.5208 13.05 19.2833 13.05 19C13.05 18.7167 12.9542 18.4792 12.7625 18.2875C12.5708 18.0958 12.3333 18 12.05 18C11.7667 18 11.5292 18.0958 11.3375 18.2875C11.1458 18.4792 11.05 18.7167 11.05 19C11.05 19.2833 11.1458 19.5208 11.3375 19.7125C11.5292 19.9042 11.7667 20 12.05 20ZM5 16.5C5.28333 16.5 5.52083 16.4042 5.7125 16.2125C5.90417 16.0208 6 15.7833 6 15.5C6 15.2167 5.90417 14.9792 5.7125 14.7875C5.52083 14.5958 5.28333 14.5 5 14.5C4.71667 14.5 4.47917 14.5958 4.2875 14.7875C4.09583 14.9792 4 15.2167 4 15.5C4 15.7833 4.09583 16.0208 4.2875 16.2125C4.47917 16.4042 4.71667 16.5 5 16.5ZM19 16.5C19.2833 16.5 19.5208 16.4042 19.7125 16.2125C19.9042 16.0208 20 15.7833 20 15.5C20 15.2167 19.9042 14.9792 19.7125 14.7875C19.5208 14.5958 19.2833 14.5 19 14.5C18.7167 14.5 18.4792 14.5958 18.2875 14.7875C18.0958 14.9792 18 15.2167 18 15.5C18 15.7833 18.0958 16.0208 18.2875 16.2125C18.4792 16.4042 18.7167 16.5 19 16.5ZM12 6C12.2833 6 12.5208 5.90417 12.7125 5.7125C12.9042 5.52083 13 5.28333 13 5C13 4.71667 12.9042 4.47917 12.7125 4.2875C12.5208 4.09583 12.2833 4 12 4C11.7167 4 11.4792 4.09583 11.2875 4.2875C11.0958 4.47917 11 4.71667 11 5C11 5.28333 11.0958 5.52083 11.2875 5.7125C11.4792 5.90417 11.7167 6 12 6Z" fill="currentColor"/>
</svg>
