<svg width="24" height="24" viewBox="0 0 24 24" fill="none" xmlns="http://www.w3.org/2000/svg">
<path d="M22.9646 18.737C19.2011 4.96016 11.6046 2.04232 7.24086 2.91394C6.16506 2.06385 5.19991 1.35651 4.35659 0.967271C3.87548 0.745218 3.34773 0.584195 2.80284 0.610783C2.22022 0.639212 1.70814 0.877859 1.29282 1.29321C0.802392 1.78368 0.63847 2.40275 0.691198 3.00894C0.740284 3.57326 0.973072 4.1252 1.25676 4.62163C1.77092 5.52135 2.59928 6.48725 3.50022 7.41134C3.50492 9.16311 3.58365 11.1453 4.86923 13.1268C4.84131 13.2047 4.81218 13.2899 4.78258 13.382C4.6236 13.8766 4.4487 14.5772 4.37866 15.4174C4.23764 17.1091 4.5244 19.3662 6.19991 21.6005L7.17059 22.8948L7.89431 21.4478L9.07994 19.077L11.1427 22.515L12.8577 21.486L8.92049 14.9239L6.92453 18.9156C6.38094 17.6827 6.29356 16.5214 6.37174 15.5836C6.42674 14.9238 6.56436 14.3744 6.68663 13.994C6.74757 13.8044 6.80405 13.6588 6.84323 13.5648C6.8628 13.5178 6.87797 13.4839 6.88711 13.4641L6.89606 13.4449C6.89647 13.4441 6.89671 13.4436 6.89679 13.4434L7.17109 12.8949L6.80018 12.4004C5.5213 10.6956 5.50002 9.01424 5.49993 7.00047L5.49991 6.58632L5.20709 6.29346C4.21924 5.30547 3.42392 4.38299 2.99323 3.62931C2.77688 3.25072 2.69711 2.99012 2.68367 2.83563C2.67488 2.73451 2.69299 2.71934 2.70375 2.71032L2.70709 2.70737C2.79183 2.62263 2.84228 2.61124 2.90031 2.60841C2.99606 2.60373 3.18706 2.63023 3.51845 2.78318C4.20103 3.09823 5.10643 3.76602 6.37527 4.78097L6.7783 5.10336L7.27456 4.96162C10.0193 4.17768 17.2752 5.49975 21.0353 19.264L22.9646 18.737Z" fill="currentColor"/>
<path d="M9.00003 9.00058C9.55231 9.00058 10 8.55286 10 8.00058C10 7.4483 9.55231 7.00058 9.00003 7.00058C8.44774 7.00058 8.00003 7.4483 8.00003 8.00058C8.00003 8.55286 8.44774 9.00058 9.00003 9.00058Z" fill="currentColor"/>
</svg>
