<svg width="24" height="24" viewBox="0 0 24 24" fill="none" xmlns="http://www.w3.org/2000/svg">
<path d="M9 15V9H15V15H9ZM11 13H13V11H11V13ZM9 21V19H7C6.45 19 5.97917 18.8042 5.5875 18.4125C5.19583 18.0208 5 17.55 5 17V15H3V13H5V11H3V9H5V7C5 6.45 5.19583 5.97917 5.5875 5.5875C5.97917 5.19583 6.45 5 7 5H9V3H11V5H13V3H15V5H17C17.55 5 18.0208 5.19583 18.4125 5.5875C18.8042 5.97917 19 6.45 19 7V9H21V11H19V13H21V15H19V17C19 17.55 18.8042 18.0208 18.4125 18.4125C18.0208 18.8042 17.55 19 17 19H15V21H13V19H11V21H9ZM17 17V7H7V17H17Z" fill="currentColor"/>
</svg>
