<svg xmlns="http://www.w3.org/2000/svg" width="24" height="24" fill="none"><path fill="currentColor" d="m13.573 17.303.01 1.783H11.81a.376.376 0 0 1-.368-.384v-3.16h1.159v-.003zM15.007 14.807l2.317 4.28H15.18l-2.211-3.982 1.606-2.872zM5.67 15.542l.392.713-.885 1.593.003-.004.666 1.217h-2.35a.377.377 0 0 1-.369-.384v-1.561l.87-1.574z"/><path fill="currentColor" d="m11.053 9.014 2.167 3.888-.968 1.749-4.365-.003 2.486 4.407H8.229l-2.446-4.407h-1.9L3 16.237l.055-2.988L2 15.12v-1.863l1.022-1.893.003-.657 2.617-4.685 3.756-.035z"/><path fill="currentColor" fill-rule="evenodd" d="M18.738 5.711C20.54 5.711 22 7.235 22 9.115v6.383c-.018 1.045-.834 1.884-1.838 1.884h-2.38v-1.555c0-.212.166-.385.37-.385h1.992v-2.346L18.902 11.8h-4.092l.146-.266 2.998-5.415.231-.413h.554zm.111 2.581a.376.376 0 0 0-.368.385v.356c0 .213.165.385.368.385h.342c.204 0 .37-.172.37-.385v-.356a.377.377 0 0 0-.37-.385z" clip-rule="evenodd"/><path fill="currentColor" d="M13.718 12.001 9.797 4.914h7.841z"/></svg>
