<svg xmlns="http://www.w3.org/2000/svg" width="24" height="24" fill="none"><path fill="currentColor" d="m10.14 12.743 1.876 3.243 1.873-3.243z"/><path fill="currentColor" d="M12.003 10.07a3.85 3.85 0 0 0-3.849 3.848 3.85 3.85 0 0 0 3.85 3.85 3.85 3.85 0 0 0 3.848-3.85 3.85 3.85 0 0 0-3.849-3.849m0 6.522a2.68 2.68 0 0 1-2.673-2.677 2.68 2.68 0 0 1 2.673-2.677 2.683 2.683 0 0 1 2.677 2.677 2.68 2.68 0 0 1-2.677 2.677"/><path fill="currentColor" d="m4.533 21.056.453-.781h4.767l.453.781H23L11.997 2 1 21.056zM9.284 9.213h5.432l2.716 4.705-2.716 4.706H9.284l-2.716-4.706z"/></svg>