<svg xmlns="http://www.w3.org/2000/svg" width="24" height="24" fill="none"><path fill="currentColor" d="m5.98 17.477-1.665.031-1.309-1.142L.5 18.926v-2.634l.679-1.07h2.868z"/><path fill="currentColor" fill-rule="evenodd" d="M12.551 7.01h4.255v-.006c2.675 0 6.694 2.784 6.694 5.46 0 1.504-3.681 1.853-5.185 1.853l-.559.02-2.658 4.535-.962-1.641 3.208-5.489h2.312l-1.169-2.045-3.377-.01 1.166 2.04-4.126 7.105-1.784-3.129.822-1.408H8.473L5.86 9.717l-2.668 4.58H1.758l2.655-4.586 4.604-2.544-1.198-2.094zm7.46 5.245a.386.386 0 0 0-.383.383v.356c0 .212.174.383.382.384h.356a.386.386 0 0 0 .384-.384v-.355a.386.386 0 0 0-.384-.384z" clip-rule="evenodd"/><path fill="currentColor" d="M7.693 14.796H3.955l1.888-3.243z"/></svg>