<svg xmlns="http://www.w3.org/2000/svg" width="24" height="24" fill="none"><path fill="currentColor" d="m10.03 13.657 1.972 3.413 1.967-3.413z"/><path fill="currentColor" d="M9.541 12.931h1.508l-2.96-5.127L2 18.328h1.51l4.58-7.913zM15.24 7.039 12.041 1.49 8.835 7.025l3.2 5.545z"/><path fill="currentColor" d="m10.074 21.353-.664 1.156h2.227v-4.526L8.21 12.048 4.585 18.33h6.1v3.022zM19.458 18.331l-3.63-6.283-3.39 5.876v4.585h2.195l-.667-1.156h-.611v-3.022z"/><path fill="currentColor" d="m15.91 7.804-2.959 5.127h1.508l1.451-2.516 4.58 7.913H22z"/></svg>