<svg width="24" height="24" viewBox="0 0 24 24" fill="none" xmlns="http://www.w3.org/2000/svg">
<path d="M8.07499 20C7.89166 20 7.72083 19.9542 7.56249 19.8625C7.40416 19.7708 7.28333 19.6417 7.19999 19.475L5.24999 16H6.69999L7.69999 18H9.99999V17H8.29999L7.29999 15H4.69999L3.27499 12.5C3.24166 12.4167 3.21249 12.3333 3.18749 12.25C3.16249 12.1667 3.14999 12.0833 3.14999 12C3.14999 11.9333 3.19166 11.7667 3.27499 11.5L4.69999 9H7.29999L8.29999 7H9.99999V6H7.69999L6.69999 8H5.24999L7.19999 4.525C7.28333 4.35833 7.40416 4.22917 7.56249 4.1375C7.72083 4.04583 7.89166 4 8.07499 4H10.5C10.7833 4 11.0208 4.09583 11.2125 4.2875C11.4042 4.47917 11.5 4.71667 11.5 5V9H9.99999L8.99999 10H11.5V13H9.29999L8.29999 11H5.99999L4.99999 12H7.69999L8.69999 14H11.5V19C11.5 19.2833 11.4042 19.5208 11.2125 19.7125C11.0208 19.9042 10.7833 20 10.5 20H8.07499ZM13.5 20C13.2167 20 12.9792 19.9042 12.7875 19.7125C12.5958 19.5208 12.5 19.2833 12.5 19V14H15.3L16.3 12H19L18 11H15.7L14.7 13H12.5V10H15L14 9H12.5V5C12.5 4.71667 12.5958 4.47917 12.7875 4.2875C12.9792 4.09583 13.2167 4 13.5 4H15.925C16.1083 4 16.2792 4.04583 16.4375 4.1375C16.5958 4.22917 16.7167 4.35833 16.8 4.525L18.75 8H17.3L16.3 6H14V7H15.7L16.7 9H19.3L20.725 11.5C20.7583 11.5833 20.7875 11.6667 20.8125 11.75C20.8375 11.8333 20.85 11.9167 20.85 12C20.85 12.0667 20.8083 12.2333 20.725 12.5L19.3 15H16.7L15.7 17H14V18H16.3L17.3 16H18.75L16.8 19.475C16.7167 19.6417 16.5958 19.7708 16.4375 19.8625C16.2792 19.9542 16.1083 20 15.925 20H13.5Z" fill="currentColor"/>
</svg>
