<svg width="363" height="128" viewBox="0 0 363 128" fill="none" xmlns="http://www.w3.org/2000/svg">
<rect x="0.106689" width="128" height="128" rx="18" fill="url(#paint0_radial_11048_76812)"/>
<path opacity="0.33" d="M22.5068 65.3977L44.0819 100.389L44.0859 100.385L51.6801 87.0864L65.9487 112L82.7419 82.6781L88.4963 92.7571L105.707 65.398L101.253 65.3977L88.5003 85.8607L84.7113 79.2463L92.4924 65.3977H88.1245L82.5817 75.5248L76.7942 65.3977H72.7785L80.6224 78.9521L65.9527 104.568L53.8077 83.3645L64.0673 65.3977H60.1298L51.903 80.0388L43.4114 65.3977H39.1046L49.7755 83.7526L44.0859 93.6845L26.0663 65.3977H22.5068Z" fill="white"/>
<path d="M97.5578 51.1271C99.1017 49.7626 100.224 47.9527 100.763 45.9263C101.493 43.1931 101.12 40.3373 99.7177 37.886C98.3156 35.4347 96.0504 33.6821 93.3395 32.9507C92.444 32.7097 91.5282 32.5871 90.6083 32.5871C89.4858 32.5871 88.3593 32.7792 87.2855 33.1428L84.1288 27.6151L76.535 40.9134L62.2671 16L45.4748 45.3216L39.7206 35.2427L22.5068 65.3978H105.707L97.5578 51.1271ZM90.6083 35.9332C91.2364 35.9332 91.8685 36.019 92.4845 36.1824C94.3323 36.6767 95.8802 37.8738 96.8447 39.5529C97.805 41.228 98.0603 43.1808 97.5619 45.052C97.2458 46.2327 96.6623 47.2786 95.8559 48.1406L88.9955 36.1252C89.5264 35.9985 90.0734 35.9332 90.6124 35.9332H90.6083ZM28.4271 61.9496L39.7166 42.139L43.5054 48.7535L36.0048 61.9496H28.4271ZM45.6328 52.4713L50.9088 61.9496H40.3568L45.6328 52.4713ZM54.807 61.9496L47.5941 49.0476L62.2631 23.4315L74.4076 44.6353L64.6701 61.9496H54.807ZM76.3121 47.9609L84.1693 61.9496H68.4549L76.3121 47.9609ZM88.5781 61.9496L78.4395 44.2472L84.1288 34.3153L99.9527 61.9496H88.5781Z" fill="white"/>
<path d="M162.476 34.6832H157.999V42.6933H152.107V15.9829H163.056C169.448 15.9829 173.314 19.7577 173.314 25.2168V25.2896C173.314 31.4722 168.494 34.6762 162.483 34.6762L162.476 34.6832ZM167.334 25.3343C167.334 22.701 165.499 21.2893 162.549 21.2893H157.992V29.452H162.66C165.61 29.452 167.327 27.695 167.327 25.4071V25.3343H167.334Z" fill="#2C323E"/>
<path d="M176.604 42.6957V15.9829H196.814V21.2141H182.461V26.6356H195.09V31.8668H182.461V37.4785H197.005V42.7098H176.604V42.6957Z" fill="#2C323E"/>
<path d="M217.881 42.6957L212.141 34.15H207.511V42.6957H201.619V15.9829H213.866C220.185 15.9829 223.971 19.3044 223.971 24.7987V24.8715C223.971 29.1819 221.639 31.895 218.232 33.1541L224.777 42.6933H217.878L217.881 42.6957ZM217.999 25.1064C217.999 22.5906 216.236 21.2869 213.369 21.2869H207.514V28.9564H213.487C216.356 28.9564 217.999 27.4272 217.999 25.1816V25.1087V25.1064Z" fill="#2C323E"/>
<path d="M240.865 43.4098C232.878 43.4098 226.942 37.2624 226.942 29.4849V29.4098C226.942 21.7145 232.757 15.4121 241.103 15.4121C246.22 15.4121 249.29 17.1104 251.811 19.5863L248.011 23.953C245.914 22.0551 243.786 20.8994 241.065 20.8994C236.492 20.8994 233.189 24.6883 233.189 29.3299V29.4051C233.189 34.0467 236.409 37.9084 241.065 37.9084C244.166 37.9084 246.07 36.6705 248.204 34.7349L252.005 38.5614C249.208 41.5423 246.107 43.3957 240.872 43.3957L240.865 43.4098Z" fill="#2C323E"/>
<path d="M267.77 43.4098C259.389 43.4098 253.378 37.1826 253.378 29.4849V29.4098C253.378 21.7145 259.469 15.4121 267.843 15.4121C276.216 15.4121 282.234 21.6393 282.234 29.3369V29.4121C282.234 37.1074 276.143 43.4098 267.77 43.4098ZM275.995 29.4121C275.995 24.7705 272.581 20.9088 267.77 20.9088C262.958 20.9088 259.627 24.6977 259.627 29.3393V29.4145C259.627 34.0561 263.041 37.9178 267.852 37.9178C272.663 37.9178 275.995 34.1289 275.995 29.4873V29.4121Z" fill="#2C323E"/>
<path d="M314.683 42.7168L327.868 15.4121L341.053 42.7192H334.441L327.868 29.1302L321.318 42.7192H314.683V42.7168Z" fill="#2C323E"/>
<path d="M312.242 15.9923V43.4121L292.134 27.1759V42.6722H285.879V15.4121L305.986 31.5849V15.9923H312.242Z" fill="#2C323E"/>
<path d="M172.603 61.5121V80.9721H169.411V67.6441L163.475 80.9721H161.263L155.299 67.6441V80.9721H152.107V61.5121H155.551L162.383 76.7721L169.187 61.5121H172.603Z" fill="#2C323E"/>
<path d="M183.49 81.2241C182.034 81.2241 180.718 80.8974 179.542 80.2441C178.366 79.5721 177.442 78.6388 176.77 77.4441C176.098 76.2308 175.762 74.8308 175.762 73.2441C175.762 71.6761 176.107 70.2854 176.798 69.0721C177.489 67.8588 178.431 66.9254 179.626 66.2721C180.821 65.6188 182.155 65.2921 183.63 65.2921C185.105 65.2921 186.439 65.6188 187.634 66.2721C188.829 66.9254 189.771 67.8588 190.462 69.0721C191.153 70.2854 191.498 71.6761 191.498 73.2441C191.498 74.8121 191.143 76.2028 190.434 77.4161C189.725 78.6294 188.754 79.5721 187.522 80.2441C186.309 80.8974 184.965 81.2241 183.49 81.2241ZM183.49 78.4521C184.311 78.4521 185.077 78.2561 185.786 77.8641C186.514 77.4721 187.102 76.8841 187.55 76.1001C187.998 75.3161 188.222 74.3641 188.222 73.2441C188.222 72.1241 188.007 71.1814 187.578 70.4161C187.149 69.6321 186.579 69.0441 185.87 68.6521C185.161 68.2601 184.395 68.0641 183.574 68.0641C182.753 68.0641 181.987 68.2601 181.278 68.6521C180.587 69.0441 180.037 69.6321 179.626 70.4161C179.215 71.1814 179.01 72.1241 179.01 73.2441C179.01 74.9054 179.43 76.1934 180.27 77.1081C181.129 78.0041 182.202 78.4521 183.49 78.4521Z" fill="#2C323E"/>
<path d="M202.438 65.2921C203.651 65.2921 204.734 65.5441 205.686 66.0481C206.656 66.5521 207.412 67.2988 207.954 68.2881C208.495 69.2774 208.766 70.4721 208.766 71.8721V80.9721H205.602V72.3481C205.602 70.9668 205.256 69.9121 204.566 69.1841C203.875 68.4374 202.932 68.0641 201.738 68.0641C200.543 68.0641 199.591 68.4374 198.882 69.1841C198.191 69.9121 197.846 70.9668 197.846 72.3481V80.9721H194.654V65.5441H197.846V67.3081C198.368 66.6734 199.031 66.1788 199.834 65.8241C200.655 65.4694 201.523 65.2921 202.438 65.2921Z" fill="#2C323E"/>
<path d="M214.461 63.5001C213.882 63.5001 213.397 63.3041 213.005 62.9121C212.613 62.5201 212.417 62.0348 212.417 61.4561C212.417 60.8774 212.613 60.3921 213.005 60.0001C213.397 59.6081 213.882 59.4121 214.461 59.4121C215.021 59.4121 215.497 59.6081 215.889 60.0001C216.281 60.3921 216.477 60.8774 216.477 61.4561C216.477 62.0348 216.281 62.5201 215.889 62.9121C215.497 63.3041 215.021 63.5001 214.461 63.5001ZM216.029 65.5441V80.9721H212.837V65.5441H216.029Z" fill="#2C323E"/>
<path d="M223.944 68.1481V76.6881C223.944 77.2668 224.075 77.6868 224.336 77.9481C224.616 78.1908 225.083 78.3121 225.736 78.3121H227.696V80.9721H225.176C223.739 80.9721 222.637 80.6361 221.872 79.9641C221.107 79.2921 220.724 78.2001 220.724 76.6881V68.1481H218.904V65.5441H220.724V61.7081H223.944V65.5441H227.696V68.1481H223.944Z" fill="#2C323E"/>
<path d="M237.33 81.2241C235.874 81.2241 234.558 80.8974 233.382 80.2441C232.206 79.5721 231.282 78.6388 230.61 77.4441C229.938 76.2308 229.602 74.8308 229.602 73.2441C229.602 71.6761 229.947 70.2854 230.638 69.0721C231.329 67.8588 232.271 66.9254 233.466 66.2721C234.661 65.6188 235.995 65.2921 237.47 65.2921C238.945 65.2921 240.279 65.6188 241.474 66.2721C242.669 66.9254 243.611 67.8588 244.302 69.0721C244.993 70.2854 245.338 71.6761 245.338 73.2441C245.338 74.8121 244.983 76.2028 244.274 77.4161C243.565 78.6294 242.594 79.5721 241.362 80.2441C240.149 80.8974 238.805 81.2241 237.33 81.2241ZM237.33 78.4521C238.151 78.4521 238.917 78.2561 239.626 77.8641C240.354 77.4721 240.942 76.8841 241.39 76.1001C241.838 75.3161 242.062 74.3641 242.062 73.2441C242.062 72.1241 241.847 71.1814 241.418 70.4161C240.989 69.6321 240.419 69.0441 239.71 68.6521C239.001 68.2601 238.235 68.0641 237.414 68.0641C236.593 68.0641 235.827 68.2601 235.118 68.6521C234.427 69.0441 233.877 69.6321 233.466 70.4161C233.055 71.1814 232.85 72.1241 232.85 73.2441C232.85 74.9054 233.27 76.1934 234.11 77.1081C234.969 78.0041 236.042 78.4521 237.33 78.4521Z" fill="#2C323E"/>
<path d="M251.685 67.7841C252.152 67.0001 252.768 66.3934 253.533 65.9641C254.317 65.5161 255.241 65.2921 256.305 65.2921V68.5961H255.493C254.243 68.5961 253.291 68.9134 252.637 69.5481C252.003 70.1828 251.685 71.2841 251.685 72.8521V80.9721H248.493V65.5441H251.685V67.7841Z" fill="#2C323E"/>
<path d="M260.864 63.5001C260.285 63.5001 259.799 63.3041 259.408 62.9121C259.016 62.5201 258.82 62.0348 258.82 61.4561C258.82 60.8774 259.016 60.3921 259.408 60.0001C259.799 59.6081 260.285 59.4121 260.864 59.4121C261.424 59.4121 261.9 59.6081 262.292 60.0001C262.684 60.3921 262.88 60.8774 262.88 61.4561C262.88 62.0348 262.684 62.5201 262.292 62.9121C261.9 63.3041 261.424 63.5001 260.864 63.5001ZM262.432 65.5441V80.9721H259.24V65.5441H262.432Z" fill="#2C323E"/>
<path d="M274.406 65.2921C275.62 65.2921 276.702 65.5441 277.654 66.0481C278.625 66.5521 279.381 67.2988 279.922 68.2881C280.464 69.2774 280.734 70.4721 280.734 71.8721V80.9721H277.57V72.3481C277.57 70.9668 277.225 69.9121 276.534 69.1841C275.844 68.4374 274.901 68.0641 273.706 68.0641C272.512 68.0641 271.56 68.4374 270.85 69.1841C270.16 69.9121 269.814 70.9668 269.814 72.3481V80.9721H266.622V65.5441H269.814V67.3081C270.337 66.6734 271 66.1788 271.802 65.8241C272.624 65.4694 273.492 65.2921 274.406 65.2921Z" fill="#2C323E"/>
<path d="M291.022 65.2921C292.217 65.2921 293.271 65.5348 294.186 66.0201C295.119 66.4868 295.847 67.0748 296.37 67.7841V65.5441H299.59V81.2241C299.59 82.6428 299.291 83.9028 298.694 85.0041C298.097 86.1241 297.229 87.0014 296.09 87.6361C294.97 88.2708 293.626 88.5881 292.058 88.5881C289.967 88.5881 288.231 88.0934 286.85 87.1041C285.469 86.1334 284.685 84.8081 284.498 83.1281H287.662C287.905 83.9308 288.418 84.5748 289.202 85.0601C290.005 85.5641 290.957 85.8161 292.058 85.8161C293.346 85.8161 294.382 85.4241 295.166 84.6401C295.969 83.8561 296.37 82.7174 296.37 81.2241V78.6481C295.829 79.3761 295.091 79.9921 294.158 80.4961C293.243 80.9814 292.198 81.2241 291.022 81.2241C289.678 81.2241 288.446 80.8881 287.326 80.2161C286.225 79.5254 285.347 78.5734 284.694 77.3601C284.059 76.1281 283.742 74.7374 283.742 73.1881C283.742 71.6388 284.059 70.2668 284.694 69.0721C285.347 67.8774 286.225 66.9534 287.326 66.3001C288.446 65.6281 289.678 65.2921 291.022 65.2921ZM296.37 73.2441C296.37 72.1801 296.146 71.2561 295.698 70.4721C295.269 69.6881 294.699 69.0908 293.99 68.6801C293.281 68.2694 292.515 68.0641 291.694 68.0641C290.873 68.0641 290.107 68.2694 289.398 68.6801C288.689 69.0721 288.11 69.6601 287.662 70.4441C287.233 71.2094 287.018 72.1241 287.018 73.1881C287.018 74.2521 287.233 75.1854 287.662 75.9881C288.11 76.7908 288.689 77.4068 289.398 77.8361C290.126 78.2468 290.891 78.4521 291.694 78.4521C292.515 78.4521 293.281 78.2468 293.99 77.8361C294.699 77.4254 295.269 76.8281 295.698 76.0441C296.146 75.2414 296.37 74.3081 296.37 73.2441Z" fill="#2C323E"/>
<path d="M309.992 73.1881C309.992 71.6388 310.309 70.2668 310.944 69.0721C311.597 67.8774 312.475 66.9534 313.576 66.3001C314.696 65.6281 315.928 65.2921 317.272 65.2921C318.485 65.2921 319.54 65.5348 320.436 66.0201C321.351 66.4868 322.079 67.0748 322.62 67.7841V65.5441H325.84V80.9721H322.62V78.6761C322.079 79.4041 321.341 80.0108 320.408 80.4961C319.475 80.9814 318.411 81.2241 317.216 81.2241C315.891 81.2241 314.677 80.8881 313.576 80.2161C312.475 79.5254 311.597 78.5734 310.944 77.3601C310.309 76.1281 309.992 74.7374 309.992 73.1881ZM322.62 73.2441C322.62 72.1801 322.396 71.2561 321.948 70.4721C321.519 69.6881 320.949 69.0908 320.24 68.6801C319.531 68.2694 318.765 68.0641 317.944 68.0641C317.123 68.0641 316.357 68.2694 315.648 68.6801C314.939 69.0721 314.36 69.6601 313.912 70.4441C313.483 71.2094 313.268 72.1241 313.268 73.1881C313.268 74.2521 313.483 75.1854 313.912 75.9881C314.36 76.7908 314.939 77.4068 315.648 77.8361C316.376 78.2468 317.141 78.4521 317.944 78.4521C318.765 78.4521 319.531 78.2468 320.24 77.8361C320.949 77.4254 321.519 76.8281 321.948 76.0441C322.396 75.2414 322.62 74.3081 322.62 73.2441Z" fill="#2C323E"/>
<path d="M337.816 65.2921C339.03 65.2921 340.112 65.5441 341.064 66.0481C342.035 66.5521 342.791 67.2988 343.332 68.2881C343.874 69.2774 344.144 70.4721 344.144 71.8721V80.9721H340.98V72.3481C340.98 70.9668 340.635 69.9121 339.944 69.1841C339.254 68.4374 338.311 68.0641 337.116 68.0641C335.922 68.0641 334.97 68.4374 334.26 69.1841C333.57 69.9121 333.224 70.9668 333.224 72.3481V80.9721H330.032V65.5441H333.224V67.3081C333.747 66.6734 334.41 66.1788 335.212 65.8241C336.034 65.4694 336.902 65.2921 337.816 65.2921Z" fill="#2C323E"/>
<path d="M347.152 73.1881C347.152 71.6388 347.469 70.2668 348.104 69.0721C348.757 67.8774 349.635 66.9534 350.736 66.3001C351.856 65.6281 353.097 65.2921 354.46 65.2921C355.468 65.2921 356.457 65.5161 357.428 65.9641C358.417 66.3934 359.201 66.9721 359.78 67.7001V60.2521H363V80.9721H359.78V78.6481C359.257 79.3948 358.529 80.0108 357.596 80.4961C356.681 80.9814 355.627 81.2241 354.432 81.2241C353.088 81.2241 351.856 80.8881 350.736 80.2161C349.635 79.5254 348.757 78.5734 348.104 77.3601C347.469 76.1281 347.152 74.7374 347.152 73.1881ZM359.78 73.2441C359.78 72.1801 359.556 71.2561 359.108 70.4721C358.679 69.6881 358.109 69.0908 357.4 68.6801C356.691 68.2694 355.925 68.0641 355.104 68.0641C354.283 68.0641 353.517 68.2694 352.808 68.6801C352.099 69.0721 351.52 69.6601 351.072 70.4441C350.643 71.2094 350.428 72.1241 350.428 73.1881C350.428 74.2521 350.643 75.1854 351.072 75.9881C351.52 76.7908 352.099 77.4068 352.808 77.8361C353.536 78.2468 354.301 78.4521 355.104 78.4521C355.925 78.4521 356.691 78.2468 357.4 77.8361C358.109 77.4254 358.679 76.8281 359.108 76.0441C359.556 75.2414 359.78 74.3081 359.78 73.2441Z" fill="#2C323E"/>
<path d="M172.603 93.5121V112.972H169.411V99.6441L163.475 112.972H161.263L155.299 99.6441V112.972H152.107V93.5121H155.551L162.383 108.772L169.187 93.5121H172.603Z" fill="#2C323E"/>
<path d="M175.734 105.188C175.734 103.639 176.051 102.267 176.686 101.072C177.339 99.8774 178.217 98.9534 179.318 98.3001C180.438 97.6281 181.67 97.2921 183.014 97.2921C184.227 97.2921 185.282 97.5348 186.178 98.0201C187.093 98.4868 187.821 99.0748 188.362 99.7841V97.5441H191.582V112.972H188.362V110.676C187.821 111.404 187.083 112.011 186.15 112.496C185.217 112.981 184.153 113.224 182.958 113.224C181.633 113.224 180.419 112.888 179.318 112.216C178.217 111.525 177.339 110.573 176.686 109.36C176.051 108.128 175.734 106.737 175.734 105.188ZM188.362 105.244C188.362 104.18 188.138 103.256 187.69 102.472C187.261 101.688 186.691 101.091 185.982 100.68C185.273 100.269 184.507 100.064 183.686 100.064C182.865 100.064 182.099 100.269 181.39 100.68C180.681 101.072 180.102 101.66 179.654 102.444C179.225 103.209 179.01 104.124 179.01 105.188C179.01 106.252 179.225 107.185 179.654 107.988C180.102 108.791 180.681 109.407 181.39 109.836C182.118 110.247 182.883 110.452 183.686 110.452C184.507 110.452 185.273 110.247 185.982 109.836C186.691 109.425 187.261 108.828 187.69 108.044C188.138 107.241 188.362 106.308 188.362 105.244Z" fill="#2C323E"/>
<path d="M203.559 97.2921C204.772 97.2921 205.855 97.5441 206.807 98.0481C207.777 98.5521 208.533 99.2988 209.075 100.288C209.616 101.277 209.887 102.472 209.887 103.872V112.972H206.723V104.348C206.723 102.967 206.377 101.912 205.687 101.184C204.996 100.437 204.053 100.064 202.859 100.064C201.664 100.064 200.712 100.437 200.003 101.184C199.312 101.912 198.967 102.967 198.967 104.348V112.972H195.775V97.5441H198.967V99.3081C199.489 98.6734 200.152 98.1788 200.955 97.8241C201.776 97.4694 202.644 97.2921 203.559 97.2921Z" fill="#2C323E"/>
<path d="M212.894 105.188C212.894 103.639 213.212 102.267 213.846 101.072C214.5 99.8774 215.377 98.9534 216.478 98.3001C217.598 97.6281 218.83 97.2921 220.174 97.2921C221.388 97.2921 222.442 97.5348 223.338 98.0201C224.253 98.4868 224.981 99.0748 225.522 99.7841V97.5441H228.742V112.972H225.522V110.676C224.981 111.404 224.244 112.011 223.31 112.496C222.377 112.981 221.313 113.224 220.118 113.224C218.793 113.224 217.58 112.888 216.478 112.216C215.377 111.525 214.5 110.573 213.846 109.36C213.212 108.128 212.894 106.737 212.894 105.188ZM225.522 105.244C225.522 104.18 225.298 103.256 224.85 102.472C224.421 101.688 223.852 101.091 223.142 100.68C222.433 100.269 221.668 100.064 220.846 100.064C220.025 100.064 219.26 100.269 218.55 100.68C217.841 101.072 217.262 101.66 216.814 102.444C216.385 103.209 216.17 104.124 216.17 105.188C216.17 106.252 216.385 107.185 216.814 107.988C217.262 108.791 217.841 109.407 218.55 109.836C219.278 110.247 220.044 110.452 220.846 110.452C221.668 110.452 222.433 110.247 223.142 109.836C223.852 109.425 224.421 108.828 224.85 108.044C225.298 107.241 225.522 106.308 225.522 105.244Z" fill="#2C323E"/>
<path d="M239.151 97.2921C240.345 97.2921 241.4 97.5348 242.315 98.0201C243.248 98.4868 243.976 99.0748 244.499 99.7841V97.5441H247.719V113.224C247.719 114.643 247.42 115.903 246.823 117.004C246.225 118.124 245.357 119.001 244.219 119.636C243.099 120.271 241.755 120.588 240.187 120.588C238.096 120.588 236.36 120.093 234.979 119.104C233.597 118.133 232.813 116.808 232.627 115.128H235.791C236.033 115.931 236.547 116.575 237.331 117.06C238.133 117.564 239.085 117.816 240.187 117.816C241.475 117.816 242.511 117.424 243.295 116.64C244.097 115.856 244.499 114.717 244.499 113.224V110.648C243.957 111.376 243.22 111.992 242.287 112.496C241.372 112.981 240.327 113.224 239.151 113.224C237.807 113.224 236.575 112.888 235.455 112.216C234.353 111.525 233.476 110.573 232.823 109.36C232.188 108.128 231.871 106.737 231.871 105.188C231.871 103.639 232.188 102.267 232.823 101.072C233.476 99.8774 234.353 98.9534 235.455 98.3001C236.575 97.6281 237.807 97.2921 239.151 97.2921ZM244.499 105.244C244.499 104.18 244.275 103.256 243.827 102.472C243.397 101.688 242.828 101.091 242.119 100.68C241.409 100.269 240.644 100.064 239.823 100.064C239.001 100.064 238.236 100.269 237.527 100.68C236.817 101.072 236.239 101.66 235.791 102.444C235.361 103.209 235.147 104.124 235.147 105.188C235.147 106.252 235.361 107.185 235.791 107.988C236.239 108.791 236.817 109.407 237.527 109.836C238.255 110.247 239.02 110.452 239.823 110.452C240.644 110.452 241.409 110.247 242.119 109.836C242.828 109.425 243.397 108.828 243.827 108.044C244.275 107.241 244.499 106.308 244.499 105.244Z" fill="#2C323E"/>
<path d="M266.051 104.88C266.051 105.459 266.014 105.981 265.939 106.448H254.151C254.245 107.68 254.702 108.669 255.523 109.416C256.345 110.163 257.353 110.536 258.547 110.536C260.265 110.536 261.478 109.817 262.187 108.38H265.631C265.165 109.799 264.315 110.965 263.083 111.88C261.87 112.776 260.358 113.224 258.547 113.224C257.073 113.224 255.747 112.897 254.571 112.244C253.414 111.572 252.499 110.639 251.827 109.444C251.174 108.231 250.847 106.831 250.847 105.244C250.847 103.657 251.165 102.267 251.799 101.072C252.453 99.8588 253.358 98.9254 254.515 98.2721C255.691 97.6188 257.035 97.2921 258.547 97.2921C260.003 97.2921 261.301 97.6094 262.439 98.2441C263.578 98.8788 264.465 99.7748 265.099 100.932C265.734 102.071 266.051 103.387 266.051 104.88ZM262.719 103.872C262.701 102.696 262.281 101.753 261.459 101.044C260.638 100.335 259.621 99.9801 258.407 99.9801C257.306 99.9801 256.363 100.335 255.579 101.044C254.795 101.735 254.329 102.677 254.179 103.872H262.719Z" fill="#2C323E"/>
<path d="M287.869 97.2921C289.082 97.2921 290.165 97.5441 291.117 98.0481C292.087 98.5521 292.843 99.2988 293.385 100.288C293.945 101.277 294.225 102.472 294.225 103.872V112.972H291.061V104.348C291.061 102.967 290.715 101.912 290.025 101.184C289.334 100.437 288.391 100.064 287.197 100.064C286.002 100.064 285.05 100.437 284.341 101.184C283.65 101.912 283.305 102.967 283.305 104.348V112.972H280.141V104.348C280.141 102.967 279.795 101.912 279.105 101.184C278.414 100.437 277.471 100.064 276.277 100.064C275.082 100.064 274.13 100.437 273.421 101.184C272.73 101.912 272.385 102.967 272.385 104.348V112.972H269.193V97.5441H272.385V99.3081C272.907 98.6734 273.57 98.1788 274.373 97.8241C275.175 97.4694 276.034 97.2921 276.949 97.2921C278.181 97.2921 279.282 97.5534 280.253 98.0761C281.223 98.5988 281.97 99.3548 282.493 100.344C282.959 99.4108 283.687 98.6734 284.677 98.1321C285.666 97.5721 286.73 97.2921 287.869 97.2921Z" fill="#2C323E"/>
<path d="M312.426 104.88C312.426 105.459 312.389 105.981 312.314 106.448H300.526C300.62 107.68 301.077 108.669 301.898 109.416C302.72 110.163 303.728 110.536 304.922 110.536C306.64 110.536 307.853 109.817 308.562 108.38H312.006C311.54 109.799 310.69 110.965 309.458 111.88C308.245 112.776 306.733 113.224 304.922 113.224C303.448 113.224 302.122 112.897 300.946 112.244C299.789 111.572 298.874 110.639 298.202 109.444C297.549 108.231 297.222 106.831 297.222 105.244C297.222 103.657 297.54 102.267 298.174 101.072C298.828 99.8588 299.733 98.9254 300.89 98.2721C302.066 97.6188 303.41 97.2921 304.922 97.2921C306.378 97.2921 307.676 97.6094 308.814 98.2441C309.953 98.8788 310.84 99.7748 311.474 100.932C312.109 102.071 312.426 103.387 312.426 104.88ZM309.094 103.872C309.076 102.696 308.656 101.753 307.834 101.044C307.013 100.335 305.996 99.9801 304.782 99.9801C303.681 99.9801 302.738 100.335 301.954 101.044C301.17 101.735 300.704 102.677 300.554 103.872H309.094Z" fill="#2C323E"/>
<path d="M323.352 97.2921C324.565 97.2921 325.648 97.5441 326.6 98.0481C327.57 98.5521 328.326 99.2988 328.868 100.288C329.409 101.277 329.68 102.472 329.68 103.872V112.972H326.516V104.348C326.516 102.967 326.17 101.912 325.48 101.184C324.789 100.437 323.846 100.064 322.652 100.064C321.457 100.064 320.505 100.437 319.796 101.184C319.105 101.912 318.76 102.967 318.76 104.348V112.972H315.568V97.5441H318.76V99.3081C319.282 98.6734 319.945 98.1788 320.748 97.8241C321.569 97.4694 322.437 97.2921 323.352 97.2921Z" fill="#2C323E"/>
<path d="M337.475 100.148V108.688C337.475 109.267 337.606 109.687 337.867 109.948C338.147 110.191 338.614 110.312 339.267 110.312H341.227V112.972H338.707C337.27 112.972 336.169 112.636 335.403 111.964C334.638 111.292 334.255 110.2 334.255 108.688V100.148H332.435V97.5441H334.255V93.7081H337.475V97.5441H341.227V100.148H337.475Z" fill="#2C323E"/>
<defs>
<radialGradient id="paint0_radial_11048_76812" cx="0" cy="0" r="1" gradientUnits="userSpaceOnUse" gradientTransform="translate(2.29226 123.341) scale(168.553)">
<stop offset="0.22" stop-color="#AC3100"/>
<stop offset="1" stop-color="#E87318"/>
</radialGradient>
</defs>
</svg>
