<svg width="363" height="128" viewBox="0 0 363 128" fill="none" xmlns="http://www.w3.org/2000/svg">
<rect width="128" height="128" rx="18" fill="url(#paint0_radial_11543_75053)"/>
<path opacity="0.33" d="M22.4001 65.3977L43.9752 100.389L43.9792 100.385L51.5734 87.0864L65.842 112L82.6352 82.6781L88.3896 92.7571L105.6 65.398L101.147 65.3977L88.3936 85.8607L84.6046 79.2463L92.3857 65.3977H88.0178L82.475 75.5248L76.6875 65.3977H72.6718L80.5157 78.9521L65.846 104.568L53.701 83.3645L63.9607 65.3977H60.0231L51.7963 80.0388L43.3048 65.3977H38.9979L49.6688 83.7526L43.9792 93.6845L25.9596 65.3977H22.4001Z" fill="white"/>
<path d="M97.4512 51.1271C98.995 49.7626 100.118 47.9527 100.656 45.9263C101.386 43.1931 101.013 40.3373 99.611 37.886C98.2089 35.4347 95.9437 33.6821 93.2328 32.9507C92.3373 32.7097 91.4215 32.5871 90.5016 32.5871C89.3792 32.5871 88.2526 32.7792 87.1788 33.1428L84.0221 27.6151L76.4283 40.9134L62.1604 16L45.3681 45.3216L39.6139 35.2427L22.4001 65.3978H105.6L97.4512 51.1271ZM90.5016 35.9332C91.1297 35.9332 91.7618 36.019 92.3778 36.1824C94.2256 36.6767 95.7735 37.8738 96.738 39.5529C97.6983 41.228 97.9536 43.1808 97.4552 45.052C97.1391 46.2327 96.5556 47.2786 95.7492 48.1406L88.8888 36.1252C89.4197 35.9985 89.9667 35.9332 90.5057 35.9332H90.5016ZM28.3204 61.9496L39.6099 42.139L43.3987 48.7535L35.8981 61.9496H28.3204ZM45.5261 52.4713L50.8021 61.9496H40.2501L45.5261 52.4713ZM54.7003 61.9496L47.4874 49.0476L62.1564 23.4315L74.3009 44.6353L64.5634 61.9496H54.7003ZM76.2054 47.9609L84.0626 61.9496H68.3482L76.2054 47.9609ZM88.4715 61.9496L78.3328 44.2472L84.0221 34.3153L99.846 61.9496H88.4715Z" fill="white"/>
<path d="M162.369 34.6832H157.893V42.6933H152V15.9829H162.949C169.341 15.9829 173.208 19.7577 173.208 25.2168V25.2896C173.208 31.4722 168.387 34.6762 162.376 34.6762L162.369 34.6832ZM167.228 25.3343C167.228 22.701 165.392 21.2893 162.442 21.2893H157.886V29.452H162.553C165.503 29.452 167.221 27.695 167.221 25.4071V25.3343H167.228Z" fill="currentColor"/>
<path d="M176.497 42.6957V15.9829H196.708V21.2141H182.354V26.6356H194.983V31.8668H182.354V37.4785H196.899V42.7098H176.497V42.6957Z" fill="currentColor"/>
<path d="M217.774 42.6957L212.034 34.15H207.404V42.6957H201.512V15.9829H213.759C220.078 15.9829 223.864 19.3044 223.864 24.7987V24.8715C223.864 29.1819 221.532 31.895 218.125 33.1541L224.67 42.6933H217.771L217.774 42.6957ZM217.892 25.1064C217.892 22.5906 216.129 21.2869 213.262 21.2869H207.407V28.9564H213.38C216.249 28.9564 217.892 27.4272 217.892 25.1816V25.1087V25.1064Z" fill="currentColor"/>
<path d="M240.758 43.4098C232.771 43.4098 226.836 37.2624 226.836 29.4849V29.4098C226.836 21.7145 232.651 15.4121 240.996 15.4121C246.114 15.4121 249.184 17.1104 251.705 19.5863L247.905 23.953C245.808 22.0551 243.68 20.8994 240.959 20.8994C236.385 20.8994 233.082 24.6883 233.082 29.3299V29.4051C233.082 34.0467 236.303 37.9084 240.959 37.9084C244.059 37.9084 245.963 36.6705 248.098 34.7349L251.898 38.5614C249.101 41.5423 246.001 43.3957 240.765 43.3957L240.758 43.4098Z" fill="currentColor"/>
<path d="M267.663 43.4098C259.282 43.4098 253.271 37.1826 253.271 29.4849V29.4098C253.271 21.7145 259.362 15.4121 267.736 15.4121C276.11 15.4121 282.127 21.6393 282.127 29.3369V29.4121C282.127 37.1074 276.037 43.4098 267.663 43.4098ZM275.888 29.4121C275.888 24.7705 272.474 20.9088 267.663 20.9088C262.852 20.9088 259.52 24.6977 259.52 29.3393V29.4145C259.52 34.0561 262.934 37.9178 267.745 37.9178C272.557 37.9178 275.888 34.1289 275.888 29.4873V29.4121Z" fill="currentColor"/>
<path d="M314.576 42.7168L327.761 15.4121L340.946 42.7192H334.335L327.761 29.1302L321.211 42.7192H314.576V42.7168Z" fill="currentColor"/>
<path d="M312.135 15.9923V43.4121L292.028 27.1759V42.6722H285.772V15.4121L305.88 31.5849V15.9923H312.135Z" fill="currentColor"/>
<path d="M172.496 61.5121V80.9721H169.304V67.6441L163.368 80.9721H161.156L155.192 67.6441V80.9721H152V61.5121H155.444L162.276 76.7721L169.08 61.5121H172.496Z" fill="currentColor"/>
<path d="M183.383 81.2241C181.927 81.2241 180.611 80.8974 179.435 80.2441C178.259 79.5721 177.335 78.6388 176.663 77.4441C175.991 76.2308 175.655 74.8308 175.655 73.2441C175.655 71.6761 176.001 70.2854 176.691 69.0721C177.382 67.8588 178.325 66.9254 179.519 66.2721C180.714 65.6188 182.049 65.2921 183.523 65.2921C184.998 65.2921 186.333 65.6188 187.527 66.2721C188.722 66.9254 189.665 67.8588 190.355 69.0721C191.046 70.2854 191.391 71.6761 191.391 73.2441C191.391 74.8121 191.037 76.2028 190.327 77.4161C189.618 78.6294 188.647 79.5721 187.415 80.2441C186.202 80.8974 184.858 81.2241 183.383 81.2241ZM183.383 78.4521C184.205 78.4521 184.97 78.2561 185.679 77.8641C186.407 77.4721 186.995 76.8841 187.443 76.1001C187.891 75.3161 188.115 74.3641 188.115 73.2441C188.115 72.1241 187.901 71.1814 187.471 70.4161C187.042 69.6321 186.473 69.0441 185.763 68.6521C185.054 68.2601 184.289 68.0641 183.467 68.0641C182.646 68.0641 181.881 68.2601 181.171 68.6521C180.481 69.0441 179.93 69.6321 179.519 70.4161C179.109 71.1814 178.903 72.1241 178.903 73.2441C178.903 74.9054 179.323 76.1934 180.163 77.1081C181.022 78.0041 182.095 78.4521 183.383 78.4521Z" fill="currentColor"/>
<path d="M202.331 65.2921C203.544 65.2921 204.627 65.5441 205.579 66.0481C206.55 66.5521 207.306 67.2988 207.847 68.2881C208.388 69.2774 208.659 70.4721 208.659 71.8721V80.9721H205.495V72.3481C205.495 70.9668 205.15 69.9121 204.459 69.1841C203.768 68.4374 202.826 68.0641 201.631 68.0641C200.436 68.0641 199.484 68.4374 198.775 69.1841C198.084 69.9121 197.739 70.9668 197.739 72.3481V80.9721H194.547V65.5441H197.739V67.3081C198.262 66.6734 198.924 66.1788 199.727 65.8241C200.548 65.4694 201.416 65.2921 202.331 65.2921Z" fill="currentColor"/>
<path d="M214.354 63.5001C213.776 63.5001 213.29 63.3041 212.898 62.9121C212.506 62.5201 212.31 62.0348 212.31 61.4561C212.31 60.8774 212.506 60.3921 212.898 60.0001C213.29 59.6081 213.776 59.4121 214.354 59.4121C214.914 59.4121 215.39 59.6081 215.782 60.0001C216.174 60.3921 216.37 60.8774 216.37 61.4561C216.37 62.0348 216.174 62.5201 215.782 62.9121C215.39 63.3041 214.914 63.5001 214.354 63.5001ZM215.922 65.5441V80.9721H212.73V65.5441H215.922Z" fill="currentColor"/>
<path d="M223.837 68.1481V76.6881C223.837 77.2668 223.968 77.6868 224.229 77.9481C224.509 78.1908 224.976 78.3121 225.629 78.3121H227.589V80.9721H225.069C223.632 80.9721 222.531 80.6361 221.765 79.9641C221 79.2921 220.617 78.2001 220.617 76.6881V68.1481H218.797V65.5441H220.617V61.7081H223.837V65.5441H227.589V68.1481H223.837Z" fill="currentColor"/>
<path d="M237.223 81.2241C235.767 81.2241 234.451 80.8974 233.275 80.2441C232.099 79.5721 231.175 78.6388 230.503 77.4441C229.831 76.2308 229.495 74.8308 229.495 73.2441C229.495 71.6761 229.841 70.2854 230.531 69.0721C231.222 67.8588 232.165 66.9254 233.359 66.2721C234.554 65.6188 235.889 65.2921 237.363 65.2921C238.838 65.2921 240.173 65.6188 241.367 66.2721C242.562 66.9254 243.505 67.8588 244.195 69.0721C244.886 70.2854 245.231 71.6761 245.231 73.2441C245.231 74.8121 244.877 76.2028 244.167 77.4161C243.458 78.6294 242.487 79.5721 241.255 80.2441C240.042 80.8974 238.698 81.2241 237.223 81.2241ZM237.223 78.4521C238.045 78.4521 238.81 78.2561 239.519 77.8641C240.247 77.4721 240.835 76.8841 241.283 76.1001C241.731 75.3161 241.955 74.3641 241.955 73.2441C241.955 72.1241 241.741 71.1814 241.311 70.4161C240.882 69.6321 240.313 69.0441 239.603 68.6521C238.894 68.2601 238.129 68.0641 237.307 68.0641C236.486 68.0641 235.721 68.2601 235.011 68.6521C234.321 69.0441 233.77 69.6321 233.359 70.4161C232.949 71.1814 232.743 72.1241 232.743 73.2441C232.743 74.9054 233.163 76.1934 234.003 77.1081C234.862 78.0041 235.935 78.4521 237.223 78.4521Z" fill="currentColor"/>
<path d="M251.579 67.7841C252.045 67.0001 252.661 66.3934 253.427 65.9641C254.211 65.5161 255.135 65.2921 256.199 65.2921V68.5961H255.387C254.136 68.5961 253.184 68.9134 252.531 69.5481C251.896 70.1828 251.579 71.2841 251.579 72.8521V80.9721H248.387V65.5441H251.579V67.7841Z" fill="currentColor"/>
<path d="M260.757 63.5001C260.178 63.5001 259.693 63.3041 259.301 62.9121C258.909 62.5201 258.713 62.0348 258.713 61.4561C258.713 60.8774 258.909 60.3921 259.301 60.0001C259.693 59.6081 260.178 59.4121 260.757 59.4121C261.317 59.4121 261.793 59.6081 262.185 60.0001C262.577 60.3921 262.773 60.8774 262.773 61.4561C262.773 62.0348 262.577 62.5201 262.185 62.9121C261.793 63.3041 261.317 63.5001 260.757 63.5001ZM262.325 65.5441V80.9721H259.133V65.5441H262.325Z" fill="currentColor"/>
<path d="M274.3 65.2921C275.513 65.2921 276.596 65.5441 277.548 66.0481C278.518 66.5521 279.274 67.2988 279.816 68.2881C280.357 69.2774 280.628 70.4721 280.628 71.8721V80.9721H277.464V72.3481C277.464 70.9668 277.118 69.9121 276.428 69.1841C275.737 68.4374 274.794 68.0641 273.6 68.0641C272.405 68.0641 271.453 68.4374 270.744 69.1841C270.053 69.9121 269.708 70.9668 269.708 72.3481V80.9721H266.516V65.5441H269.708V67.3081C270.23 66.6734 270.893 66.1788 271.696 65.8241C272.517 65.4694 273.385 65.2921 274.3 65.2921Z" fill="currentColor"/>
<path d="M290.915 65.2921C292.11 65.2921 293.165 65.5348 294.079 66.0201C295.013 66.4868 295.741 67.0748 296.263 67.7841V65.5441H299.483V81.2241C299.483 82.6428 299.185 83.9028 298.587 85.0041C297.99 86.1241 297.122 87.0014 295.983 87.6361C294.863 88.2708 293.519 88.5881 291.951 88.5881C289.861 88.5881 288.125 88.0934 286.743 87.1041C285.362 86.1334 284.578 84.8081 284.391 83.1281H287.555C287.798 83.9308 288.311 84.5748 289.095 85.0601C289.898 85.5641 290.85 85.8161 291.951 85.8161C293.239 85.8161 294.275 85.4241 295.059 84.6401C295.862 83.8561 296.263 82.7174 296.263 81.2241V78.6481C295.722 79.3761 294.985 79.9921 294.051 80.4961C293.137 80.9814 292.091 81.2241 290.915 81.2241C289.571 81.2241 288.339 80.8881 287.219 80.2161C286.118 79.5254 285.241 78.5734 284.587 77.3601C283.953 76.1281 283.635 74.7374 283.635 73.1881C283.635 71.6388 283.953 70.2668 284.587 69.0721C285.241 67.8774 286.118 66.9534 287.219 66.3001C288.339 65.6281 289.571 65.2921 290.915 65.2921ZM296.263 73.2441C296.263 72.1801 296.039 71.2561 295.591 70.4721C295.162 69.6881 294.593 69.0908 293.883 68.6801C293.174 68.2694 292.409 68.0641 291.587 68.0641C290.766 68.0641 290.001 68.2694 289.291 68.6801C288.582 69.0721 288.003 69.6601 287.555 70.4441C287.126 71.2094 286.911 72.1241 286.911 73.1881C286.911 74.2521 287.126 75.1854 287.555 75.9881C288.003 76.7908 288.582 77.4068 289.291 77.8361C290.019 78.2468 290.785 78.4521 291.587 78.4521C292.409 78.4521 293.174 78.2468 293.883 77.8361C294.593 77.4254 295.162 76.8281 295.591 76.0441C296.039 75.2414 296.263 74.3081 296.263 73.2441Z" fill="currentColor"/>
<path d="M309.885 73.1881C309.885 71.6388 310.203 70.2668 310.837 69.0721C311.491 67.8774 312.368 66.9534 313.469 66.3001C314.589 65.6281 315.821 65.2921 317.165 65.2921C318.379 65.2921 319.433 65.5348 320.329 66.0201C321.244 66.4868 321.972 67.0748 322.513 67.7841V65.5441H325.733V80.9721H322.513V78.6761C321.972 79.4041 321.235 80.0108 320.301 80.4961C319.368 80.9814 318.304 81.2241 317.109 81.2241C315.784 81.2241 314.571 80.8881 313.469 80.2161C312.368 79.5254 311.491 78.5734 310.837 77.3601C310.203 76.1281 309.885 74.7374 309.885 73.1881ZM322.513 73.2441C322.513 72.1801 322.289 71.2561 321.841 70.4721C321.412 69.6881 320.843 69.0908 320.133 68.6801C319.424 68.2694 318.659 68.0641 317.837 68.0641C317.016 68.0641 316.251 68.2694 315.541 68.6801C314.832 69.0721 314.253 69.6601 313.805 70.4441C313.376 71.2094 313.161 72.1241 313.161 73.1881C313.161 74.2521 313.376 75.1854 313.805 75.9881C314.253 76.7908 314.832 77.4068 315.541 77.8361C316.269 78.2468 317.035 78.4521 317.837 78.4521C318.659 78.4521 319.424 78.2468 320.133 77.8361C320.843 77.4254 321.412 76.8281 321.841 76.0441C322.289 75.2414 322.513 74.3081 322.513 73.2441Z" fill="currentColor"/>
<path d="M337.71 65.2921C338.923 65.2921 340.006 65.5441 340.958 66.0481C341.928 66.5521 342.684 67.2988 343.226 68.2881C343.767 69.2774 344.038 70.4721 344.038 71.8721V80.9721H340.874V72.3481C340.874 70.9668 340.528 69.9121 339.838 69.1841C339.147 68.4374 338.204 68.0641 337.01 68.0641C335.815 68.0641 334.863 68.4374 334.154 69.1841C333.463 69.9121 333.118 70.9668 333.118 72.3481V80.9721H329.926V65.5441H333.118V67.3081C333.64 66.6734 334.303 66.1788 335.106 65.8241C335.927 65.4694 336.795 65.2921 337.71 65.2921Z" fill="currentColor"/>
<path d="M347.045 73.1881C347.045 71.6388 347.363 70.2668 347.997 69.0721C348.651 67.8774 349.528 66.9534 350.629 66.3001C351.749 65.6281 352.991 65.2921 354.353 65.2921C355.361 65.2921 356.351 65.5161 357.321 65.9641C358.311 66.3934 359.095 66.9721 359.673 67.7001V60.2521H362.893V80.9721H359.673V78.6481C359.151 79.3948 358.423 80.0108 357.489 80.4961C356.575 80.9814 355.52 81.2241 354.325 81.2241C352.981 81.2241 351.749 80.8881 350.629 80.2161C349.528 79.5254 348.651 78.5734 347.997 77.3601C347.363 76.1281 347.045 74.7374 347.045 73.1881ZM359.673 73.2441C359.673 72.1801 359.449 71.2561 359.001 70.4721C358.572 69.6881 358.003 69.0908 357.293 68.6801C356.584 68.2694 355.819 68.0641 354.997 68.0641C354.176 68.0641 353.411 68.2694 352.701 68.6801C351.992 69.0721 351.413 69.6601 350.965 70.4441C350.536 71.2094 350.321 72.1241 350.321 73.1881C350.321 74.2521 350.536 75.1854 350.965 75.9881C351.413 76.7908 351.992 77.4068 352.701 77.8361C353.429 78.2468 354.195 78.4521 354.997 78.4521C355.819 78.4521 356.584 78.2468 357.293 77.8361C358.003 77.4254 358.572 76.8281 359.001 76.0441C359.449 75.2414 359.673 74.3081 359.673 73.2441Z" fill="currentColor"/>
<path d="M172.496 93.5121V112.972H169.304V99.6441L163.368 112.972H161.156L155.192 99.6441V112.972H152V93.5121H155.444L162.276 108.772L169.08 93.5121H172.496Z" fill="currentColor"/>
<path d="M175.627 105.188C175.627 103.639 175.945 102.267 176.579 101.072C177.233 99.8774 178.11 98.9534 179.211 98.3001C180.331 97.6281 181.563 97.2921 182.907 97.2921C184.121 97.2921 185.175 97.5348 186.071 98.0201C186.986 98.4868 187.714 99.0748 188.255 99.7841V97.5441H191.475V112.972H188.255V110.676C187.714 111.404 186.977 112.011 186.043 112.496C185.11 112.981 184.046 113.224 182.851 113.224C181.526 113.224 180.313 112.888 179.211 112.216C178.11 111.525 177.233 110.573 176.579 109.36C175.945 108.128 175.627 106.737 175.627 105.188ZM188.255 105.244C188.255 104.18 188.031 103.256 187.583 102.472C187.154 101.688 186.585 101.091 185.875 100.68C185.166 100.269 184.401 100.064 183.579 100.064C182.758 100.064 181.993 100.269 181.283 100.68C180.574 101.072 179.995 101.66 179.547 102.444C179.118 103.209 178.903 104.124 178.903 105.188C178.903 106.252 179.118 107.185 179.547 107.988C179.995 108.791 180.574 109.407 181.283 109.836C182.011 110.247 182.777 110.452 183.579 110.452C184.401 110.452 185.166 110.247 185.875 109.836C186.585 109.425 187.154 108.828 187.583 108.044C188.031 107.241 188.255 106.308 188.255 105.244Z" fill="currentColor"/>
<path d="M203.452 97.2921C204.665 97.2921 205.748 97.5441 206.7 98.0481C207.671 98.5521 208.427 99.2988 208.968 100.288C209.509 101.277 209.78 102.472 209.78 103.872V112.972H206.616V104.348C206.616 102.967 206.271 101.912 205.58 101.184C204.889 100.437 203.947 100.064 202.752 100.064C201.557 100.064 200.605 100.437 199.896 101.184C199.205 101.912 198.86 102.967 198.86 104.348V112.972H195.668V97.5441H198.86V99.3081C199.383 98.6734 200.045 98.1788 200.848 97.8241C201.669 97.4694 202.537 97.2921 203.452 97.2921Z" fill="currentColor"/>
<path d="M212.788 105.188C212.788 103.639 213.105 102.267 213.74 101.072C214.393 99.8774 215.27 98.9534 216.372 98.3001C217.492 97.6281 218.724 97.2921 220.068 97.2921C221.281 97.2921 222.336 97.5348 223.232 98.0201C224.146 98.4868 224.874 99.0748 225.416 99.7841V97.5441H228.636V112.972H225.416V110.676C224.874 111.404 224.137 112.011 223.204 112.496C222.27 112.981 221.206 113.224 220.012 113.224C218.686 113.224 217.473 112.888 216.372 112.216C215.27 111.525 214.393 110.573 213.74 109.36C213.105 108.128 212.788 106.737 212.788 105.188ZM225.416 105.244C225.416 104.18 225.192 103.256 224.744 102.472C224.314 101.688 223.745 101.091 223.036 100.68C222.326 100.269 221.561 100.064 220.74 100.064C219.918 100.064 219.153 100.269 218.444 100.68C217.734 101.072 217.156 101.66 216.708 102.444C216.278 103.209 216.064 104.124 216.064 105.188C216.064 106.252 216.278 107.185 216.708 107.988C217.156 108.791 217.734 109.407 218.444 109.836C219.172 110.247 219.937 110.452 220.74 110.452C221.561 110.452 222.326 110.247 223.036 109.836C223.745 109.425 224.314 108.828 224.744 108.044C225.192 107.241 225.416 106.308 225.416 105.244Z" fill="currentColor"/>
<path d="M239.044 97.2921C240.239 97.2921 241.293 97.5348 242.208 98.0201C243.141 98.4868 243.869 99.0748 244.392 99.7841V97.5441H247.612V113.224C247.612 114.643 247.313 115.903 246.716 117.004C246.119 118.124 245.251 119.001 244.112 119.636C242.992 120.271 241.648 120.588 240.08 120.588C237.989 120.588 236.253 120.093 234.872 119.104C233.491 118.133 232.707 116.808 232.52 115.128H235.684C235.927 115.931 236.44 116.575 237.224 117.06C238.027 117.564 238.979 117.816 240.08 117.816C241.368 117.816 242.404 117.424 243.188 116.64C243.991 115.856 244.392 114.717 244.392 113.224V110.648C243.851 111.376 243.113 111.992 242.18 112.496C241.265 112.981 240.22 113.224 239.044 113.224C237.7 113.224 236.468 112.888 235.348 112.216C234.247 111.525 233.369 110.573 232.716 109.36C232.081 108.128 231.764 106.737 231.764 105.188C231.764 103.639 232.081 102.267 232.716 101.072C233.369 99.8774 234.247 98.9534 235.348 98.3001C236.468 97.6281 237.7 97.2921 239.044 97.2921ZM244.392 105.244C244.392 104.18 244.168 103.256 243.72 102.472C243.291 101.688 242.721 101.091 242.012 100.68C241.303 100.269 240.537 100.064 239.716 100.064C238.895 100.064 238.129 100.269 237.42 100.68C236.711 101.072 236.132 101.66 235.684 102.444C235.255 103.209 235.04 104.124 235.04 105.188C235.04 106.252 235.255 107.185 235.684 107.988C236.132 108.791 236.711 109.407 237.42 109.836C238.148 110.247 238.913 110.452 239.716 110.452C240.537 110.452 241.303 110.247 242.012 109.836C242.721 109.425 243.291 108.828 243.72 108.044C244.168 107.241 244.392 106.308 244.392 105.244Z" fill="currentColor"/>
<path d="M265.945 104.88C265.945 105.459 265.907 105.981 265.833 106.448H254.045C254.138 107.68 254.595 108.669 255.417 109.416C256.238 110.163 257.246 110.536 258.441 110.536C260.158 110.536 261.371 109.817 262.081 108.38H265.525C265.058 109.799 264.209 110.965 262.977 111.88C261.763 112.776 260.251 113.224 258.441 113.224C256.966 113.224 255.641 112.897 254.465 112.244C253.307 111.572 252.393 110.639 251.721 109.444C251.067 108.231 250.741 106.831 250.741 105.244C250.741 103.657 251.058 102.267 251.693 101.072C252.346 99.8588 253.251 98.9254 254.409 98.2721C255.585 97.6188 256.929 97.2921 258.441 97.2921C259.897 97.2921 261.194 97.6094 262.333 98.2441C263.471 98.8788 264.358 99.7748 264.993 100.932C265.627 102.071 265.945 103.387 265.945 104.88ZM262.613 103.872C262.594 102.696 262.174 101.753 261.353 101.044C260.531 100.335 259.514 99.9801 258.301 99.9801C257.199 99.9801 256.257 100.335 255.473 101.044C254.689 101.735 254.222 102.677 254.073 103.872H262.613Z" fill="currentColor"/>
<path d="M287.762 97.2921C288.975 97.2921 290.058 97.5441 291.01 98.0481C291.981 98.5521 292.737 99.2988 293.278 100.288C293.838 101.277 294.118 102.472 294.118 103.872V112.972H290.954V104.348C290.954 102.967 290.609 101.912 289.918 101.184C289.227 100.437 288.285 100.064 287.09 100.064C285.895 100.064 284.943 100.437 284.234 101.184C283.543 101.912 283.198 102.967 283.198 104.348V112.972H280.034V104.348C280.034 102.967 279.689 101.912 278.998 101.184C278.307 100.437 277.365 100.064 276.17 100.064C274.975 100.064 274.023 100.437 273.314 101.184C272.623 101.912 272.278 102.967 272.278 104.348V112.972H269.086V97.5441H272.278V99.3081C272.801 98.6734 273.463 98.1788 274.266 97.8241C275.069 97.4694 275.927 97.2921 276.842 97.2921C278.074 97.2921 279.175 97.5534 280.146 98.0761C281.117 98.5988 281.863 99.3548 282.386 100.344C282.853 99.4108 283.581 98.6734 284.57 98.1321C285.559 97.5721 286.623 97.2921 287.762 97.2921Z" fill="currentColor"/>
<path d="M312.32 104.88C312.32 105.459 312.282 105.981 312.208 106.448H300.42C300.513 107.68 300.97 108.669 301.792 109.416C302.613 110.163 303.621 110.536 304.816 110.536C306.533 110.536 307.746 109.817 308.456 108.38H311.9C311.433 109.799 310.584 110.965 309.352 111.88C308.138 112.776 306.626 113.224 304.816 113.224C303.341 113.224 302.016 112.897 300.84 112.244C299.682 111.572 298.768 110.639 298.096 109.444C297.442 108.231 297.116 106.831 297.116 105.244C297.116 103.657 297.433 102.267 298.068 101.072C298.721 99.8588 299.626 98.9254 300.784 98.2721C301.96 97.6188 303.304 97.2921 304.816 97.2921C306.272 97.2921 307.569 97.6094 308.708 98.2441C309.846 98.8788 310.733 99.7748 311.368 100.932C312.002 102.071 312.32 103.387 312.32 104.88ZM308.988 103.872C308.969 102.696 308.549 101.753 307.728 101.044C306.906 100.335 305.889 99.9801 304.676 99.9801C303.574 99.9801 302.632 100.335 301.848 101.044C301.064 101.735 300.597 102.677 300.448 103.872H308.988Z" fill="currentColor"/>
<path d="M323.245 97.2921C324.458 97.2921 325.541 97.5441 326.493 98.0481C327.464 98.5521 328.22 99.2988 328.761 100.288C329.302 101.277 329.573 102.472 329.573 103.872V112.972H326.409V104.348C326.409 102.967 326.064 101.912 325.373 101.184C324.682 100.437 323.74 100.064 322.545 100.064C321.35 100.064 320.398 100.437 319.689 101.184C318.998 101.912 318.653 102.967 318.653 104.348V112.972H315.461V97.5441H318.653V99.3081C319.176 98.6734 319.838 98.1788 320.641 97.8241C321.462 97.4694 322.33 97.2921 323.245 97.2921Z" fill="currentColor"/>
<path d="M337.369 100.148V108.688C337.369 109.267 337.499 109.687 337.761 109.948C338.041 110.191 338.507 110.312 339.161 110.312H341.121V112.972H338.601C337.163 112.972 336.062 112.636 335.297 111.964C334.531 111.292 334.149 110.2 334.149 108.688V100.148H332.329V97.5441H334.149V93.7081H337.369V97.5441H341.121V100.148H337.369Z" fill="currentColor"/>
<defs>
<radialGradient id="paint0_radial_11543_75053" cx="0" cy="0" r="1" gradientUnits="userSpaceOnUse" gradientTransform="translate(2.18557 123.341) scale(168.553)">
<stop offset="0.22" stop-color="#AC3100"/>
<stop offset="1" stop-color="#E87318"/>
</radialGradient>
</defs>
</svg>
