<svg xmlns="http://www.w3.org/2000/svg" width="252" height="113" fill="none" viewBox="0 0 252 113"><path fill="#fff" d="M125.144 106.647H2L63.572 0l61.572 106.646zM5.365 104.703h116.413L63.572 3.886z"/><path fill="#fff" d="M59.732 65.159h28.82L74.145 40.216zM48.667 52.492l-1.975-3.419-9.29 16.086h3.949zM66.658 47.964l-6.206-10.748-16.143 27.943h12.42zM59.732 67.641h28.82L74.145 92.583zM48.667 80.308l-1.975 3.419-9.29-16.086h3.949zM66.658 84.836l-6.206 10.748L44.309 67.64h12.42zM145.115 81.025v10.997h-2.679v-6.596l-2.459 6.596h-2.161l-2.475-6.612v6.612h-2.679V81.025h3.164l3.085 7.614 3.056-7.614zM146.375 85.27q.51-1.017 1.386-1.566a3.6 3.6 0 0 1 1.959-.547q.924 0 1.62.376.697.375 1.073.987v-1.237h2.679v8.74h-2.679v-1.236a2.9 2.9 0 0 1-1.089.986q-.697.376-1.62.377a3.55 3.55 0 0 1-1.943-.557q-.876-.556-1.386-1.582t-.509-2.373q0-1.347.509-2.366zm5.483.799a1.8 1.8 0 0 0-1.354-.58q-.8 0-1.355.572-.556.573-.556 1.575 0 1.004.556 1.591.557.588 1.355.588t1.354-.579.557-1.582-.557-1.582zM164.171 84.18q.917.995.917 2.734v5.106h-2.663v-4.746q0-.877-.455-1.363t-1.222-.487-1.221.487q-.455.486-.455 1.363v4.746h-2.679V83.28h2.679v1.159a2.8 2.8 0 0 1 1.097-.918q.69-.337 1.551-.337 1.535 0 2.451.994zM166.287 85.27q.508-1.017 1.386-1.566a3.6 3.6 0 0 1 1.958-.547q.925 0 1.62.376.697.375 1.073.987v-1.237h2.679v8.74h-2.679v-1.236a2.9 2.9 0 0 1-1.088.986q-.698.376-1.621.377a3.55 3.55 0 0 1-1.942-.557q-.877-.556-1.386-1.582-.51-1.026-.51-2.373t.51-2.366zm5.482.799a1.8 1.8 0 0 0-1.354-.58q-.799 0-1.355.572-.556.573-.556 1.575 0 1.004.556 1.591.557.588 1.355.588t1.354-.579.557-1.582-.557-1.582zM181.246 83.531q.697.376 1.073.987v-1.237h2.679v8.725q0 1.207-.478 2.186a3.65 3.65 0 0 1-1.457 1.56q-.98.579-2.436.579-1.943 0-3.149-.918-1.206-.915-1.379-2.483h2.648q.126.502.595.791.47.29 1.159.29.83 0 1.323-.477.493-.478.493-1.528V90.77a2.96 2.96 0 0 1-1.081.994q-.69.383-1.614.383a3.58 3.58 0 0 1-1.958-.556q-.877-.556-1.386-1.582-.51-1.026-.509-2.373 0-1.347.509-2.366.508-1.018 1.386-1.567a3.6 3.6 0 0 1 1.958-.547q.925 0 1.621.376zm.518 2.537a1.8 1.8 0 0 0-1.354-.579q-.8 0-1.355.572-.556.573-.556 1.575 0 1.004.556 1.591.557.588 1.355.588t1.354-.579.557-1.582-.557-1.582zM194.491 88.293h-6.062q.063.813.525 1.246.462.43 1.136.43 1.002.001 1.395-.847h2.851a3.9 3.9 0 0 1-.791 1.55q-.573.692-1.434 1.082-.861.392-1.926.392-1.284 0-2.288-.547a3.9 3.9 0 0 1-1.566-1.567q-.564-1.019-.563-2.382 0-1.362.556-2.381.557-1.018 1.559-1.567 1.002-.547 2.303-.547c.868 0 1.598.178 2.256.532a3.83 3.83 0 0 1 1.544 1.519q.556.986.556 2.303 0 .374-.047.784zm-2.695-1.488q.001-.687-.47-1.097-.471-.407-1.175-.408c-.469 0-.827.132-1.135.392q-.462.392-.573 1.112h3.353zM209.054 84.173q.963.987.964 2.742v5.107h-2.664v-4.746q0-.845-.446-1.309-.446-.462-1.23-.462t-1.23.462q-.447.462-.447 1.309v4.746h-2.663v-4.746q0-.845-.446-1.309-.446-.462-1.231-.462-.784 0-1.23.462t-.446 1.309v4.746h-2.679v-8.741h2.679v1.097a2.86 2.86 0 0 1 1.066-.87 3.36 3.36 0 0 1 1.487-.322q.988 0 1.762.424.776.422 1.215 1.206a3.5 3.5 0 0 1 1.237-1.175 3.35 3.35 0 0 1 1.708-.455q1.63 0 2.592.987zM219.446 88.293h-6.062q.063.813.525 1.246.462.43 1.136.43 1.002.001 1.395-.847h2.851a3.9 3.9 0 0 1-.791 1.55q-.573.692-1.434 1.082-.861.392-1.926.392-1.284 0-2.288-.547a3.9 3.9 0 0 1-1.566-1.567q-.563-1.019-.563-2.382 0-1.362.556-2.381.557-1.018 1.559-1.567 1.002-.547 2.303-.547c.868 0 1.598.178 2.256.532a3.83 3.83 0 0 1 1.544 1.519q.556.986.556 2.303 0 .374-.047.784zm-2.695-1.488q.001-.687-.47-1.097-.471-.407-1.175-.408c-.469 0-.827.132-1.135.392q-.462.392-.573 1.112h3.353zM228.039 84.18q.917.995.917 2.734v5.106h-2.663v-4.746q0-.877-.455-1.363t-1.222-.487-1.221.487-.455 1.363v4.746h-2.679V83.28h2.679v1.159a2.8 2.8 0 0 1 1.097-.918q.69-.337 1.551-.337 1.535 0 2.451.994zM235.049 89.75v2.272h-1.363q-1.457 0-2.271-.712-.814-.715-.814-2.326v-3.477h-1.066v-2.225h1.066v-2.13h2.679v2.13h1.755v2.225h-1.755v3.508q0 .392.187.564.189.173.627.172zM145.103 62.276v10.996h-2.679v-6.595l-2.459 6.595h-2.161l-2.474-6.611v6.611h-2.68V62.275h3.164l3.086 7.615 3.055-7.614zM148.056 72.849a4 4 0 0 1-1.613-1.566q-.589-1.019-.589-2.38c0-.909.198-1.689.595-2.373q.596-1.027 1.63-1.575t2.318-.548q1.286 0 2.319.548 1.034.547 1.629 1.575.596 1.026.596 2.373 0 1.346-.604 2.373a4.1 4.1 0 0 1-1.645 1.575q-1.042.547-2.326.547-1.285.001-2.31-.547zm3.619-2.335q.54-.564.541-1.613 0-1.05-.525-1.614a1.7 1.7 0 0 0-1.294-.563c-.512 0-.955.185-1.3.556q-.517.557-.516 1.621c0 .709.17 1.237.509 1.614q.51.564 1.278.563.768 0 1.307-.564M163.501 65.43q.917.996.917 2.734v5.107h-2.663v-4.746q0-.878-.455-1.364-.455-.485-1.222-.486-.766 0-1.221.487-.455.485-.455 1.363v4.746h-2.679v-8.742h2.679v1.159a2.83 2.83 0 0 1 1.097-.917q.69-.337 1.551-.338 1.535.001 2.451.994zM165.836 63.207a1.34 1.34 0 0 1-.446-1.026c0-.406.148-.765.446-1.041q.446-.415 1.151-.415c.471 0 .839.138 1.136.415q.447.415.446 1.041c0 .416-.148.749-.446 1.026q-.445.414-1.136.414c-.46 0-.854-.138-1.151-.415m2.483 1.324v8.741h-2.679v-8.74zM174.491 71.001v2.271h-1.363q-1.458 0-2.272-.712t-.814-2.326v-3.477h-1.065v-2.224h1.065v-2.13h2.68v2.13h1.755v2.224h-1.755v3.509q0 .392.187.563.189.173.626.172zM177.006 72.849a4 4 0 0 1-1.613-1.566q-.588-1.019-.588-2.38c0-.909.197-1.689.595-2.373a4.04 4.04 0 0 1 1.629-1.575q1.033-.548 2.319-.548 1.285 0 2.318.548 1.034.547 1.63 1.575.595 1.026.595 2.373 0 1.346-.604 2.373a4.1 4.1 0 0 1-1.645 1.575q-1.042.547-2.326.547-1.285.001-2.31-.547zm3.617-2.335q.541-.564.541-1.613 0-1.05-.525-1.614a1.7 1.7 0 0 0-1.293-.563c-.513 0-.956.185-1.3.556q-.517.557-.517 1.621c0 .709.17 1.237.51 1.614q.508.564 1.277.563.77 0 1.307-.564M188.528 64.852a3.04 3.04 0 0 1 1.567-.415v2.835h-.737q-1.003 0-1.503.43-.502.43-.501 1.512v4.058h-2.679v-8.74h2.679v1.457q.47-.721 1.174-1.136zM190.933 63.207a1.35 1.35 0 0 1-.447-1.026c0-.406.149-.765.447-1.041q.445-.415 1.151-.415c.471 0 .838.138 1.136.415q.446.415.446 1.041c0 .416-.149.749-.446 1.026q-.446.414-1.136.414c-.46 0-.854-.138-1.151-.415m2.481 1.324v8.741h-2.679v-8.74zM202.493 65.43q.916.996.917 2.734v5.107h-2.664v-4.746q0-.878-.455-1.364-.455-.485-1.221-.486-.767 0-1.222.487-.455.485-.455 1.363v4.746h-2.679v-8.742h2.679v1.159a2.83 2.83 0 0 1 1.097-.917 3.5 3.5 0 0 1 1.551-.338q1.536.001 2.452.994zM209.573 64.781q.697.376 1.073.987v-1.237h2.679v8.726q0 1.207-.478 2.185a3.65 3.65 0 0 1-1.457 1.56q-.98.579-2.436.579-1.943 0-3.149-.917-1.206-.916-1.379-2.483h2.648q.126.502.595.79.47.29 1.159.291.83 0 1.323-.478.493-.477.493-1.527v-1.238a2.96 2.96 0 0 1-1.081.994q-.69.384-1.614.384a3.58 3.58 0 0 1-1.958-.557q-.877-.556-1.386-1.582-.51-1.026-.509-2.373 0-1.347.509-2.366.508-1.018 1.386-1.566a3.6 3.6 0 0 1 1.958-.548q.925 0 1.621.376zm.516 2.538a1.8 1.8 0 0 0-1.354-.58q-.799 0-1.355.573t-.556 1.575.556 1.59q.557.59 1.355.589.798 0 1.354-.58.557-.579.557-1.582 0-1.002-.557-1.581zM218.635 66.52q.51-1.019 1.386-1.567a3.6 3.6 0 0 1 1.958-.548q.925 0 1.621.376t1.073.987v-1.237h2.679v8.741h-2.679v-1.237a2.9 2.9 0 0 1-1.089.987q-.697.376-1.62.376a3.55 3.55 0 0 1-1.943-.556q-.876-.556-1.386-1.582t-.509-2.373q0-1.347.509-2.366zm5.483.799a1.8 1.8 0 0 0-1.355-.58q-.8 0-1.354.573-.557.573-.557 1.575t.557 1.59q.556.59 1.354.589.798 0 1.355-.58.556-.579.556-1.582 0-1.002-.556-1.581zM236.431 65.43q.917.996.917 2.734v5.107h-2.663v-4.746q-.001-.878-.455-1.364-.455-.485-1.222-.486-.767 0-1.221.487-.455.485-.455 1.363v4.746h-2.68v-8.742h2.68v1.159a2.83 2.83 0 0 1 1.097-.917q.69-.337 1.55-.338 1.536.001 2.452.994zM238.701 66.52q.508-1.019 1.386-1.567a3.6 3.6 0 0 1 1.958-.548q.861 0 1.575.36t1.12.972v-4.058h2.679V73.27h-2.679v-1.253q-.376.627-1.073 1.002-.697.376-1.62.377a3.58 3.58 0 0 1-1.958-.557q-.877-.556-1.386-1.582-.51-1.026-.51-2.373t.51-2.366zm5.484.799a1.8 1.8 0 0 0-1.354-.58q-.799 0-1.355.573t-.556 1.575.556 1.59q.557.59 1.355.589.798 0 1.354-.58.557-.579.557-1.582 0-1.002-.557-1.581zM138.245 50.645q-.82.79-2.497.791h-1.845v4.004h-1.253v-9.59h3.096q1.624-.001 2.469.784.846.784.847 2.023c0 .826-.273 1.461-.819 1.988zm-.955-.695q.495-.454.495-1.293 0-1.774-2.037-1.774h-1.845v3.522h1.845q1.045 0 1.542-.453zM147.266 52.138h-6.027q.07 1.115.763 1.741.696.627 1.685.627.811 0 1.357-.379.543-.379.763-1.011h1.349a3.24 3.24 0 0 1-1.211 1.767q-.909.683-2.256.681-1.074 0-1.92-.481a3.4 3.4 0 0 1-1.328-1.368q-.482-.888-.481-2.057 0-1.169.467-2.05a3.3 3.3 0 0 1 1.314-1.357q.846-.475 1.948-.474c.735 0 1.349.155 1.899.467q.826.468 1.272 1.286.448.818.448 1.852 0 .357-.042.756m-1.57-2.249a2.05 2.05 0 0 0-.859-.784 2.7 2.7 0 0 0-1.204-.268q-.95 0-1.617.606-.667.605-.763 1.678h4.762q0-.716-.317-1.232zM151.14 48.12q.612-.358 1.492-.359v1.293h-.33q-2.106 0-2.106 2.284v4.1h-1.253v-7.54h1.253v1.224a2.4 2.4 0 0 1 .944-1.004zM153.843 49.614a3.4 3.4 0 0 1 1.3-1.356q.832-.48 1.906-.481 1.39 0 2.291.673.9.675 1.19 1.871h-1.349a1.93 1.93 0 0 0-.751-1.087q-.557-.399-1.383-.398-1.073 0-1.734.736-.66.738-.66 2.084c0 .898.221 1.61.66 2.106q.661.743 1.734.743.827.001 1.376-.385.55-.384.756-1.1h1.349q-.302 1.155-1.211 1.851-.907.696-2.27.695-1.073 0-1.905-.481a3.36 3.36 0 0 1-1.301-1.362q-.467-.88-.467-2.063c0-.787.156-1.461.467-2.044zM163.482 55.083a3.4 3.4 0 0 1-1.349-1.368q-.488-.888-.488-2.057c0-.779.168-1.452.502-2.044a3.45 3.45 0 0 1 1.368-1.361q.867-.475 1.941-.474 1.073 0 1.941.474a3.47 3.47 0 0 1 1.368 1.356q.503.88.503 2.051 0 1.17-.517 2.056a3.6 3.6 0 0 1-1.396 1.369 4 4 0 0 1-1.955.481 3.85 3.85 0 0 1-1.92-.481zm3.185-.934a2.4 2.4 0 0 0 .956-.95q.364-.634.364-1.542t-.357-1.542a2.35 2.35 0 0 0-.937-.944 2.6 2.6 0 0 0-1.253-.31c-.449 0-.878.104-1.258.31a2.27 2.27 0 0 0-.915.944q-.344.633-.345 1.541c0 .606.112 1.133.338 1.555q.337.632.901.943t1.239.31q.675 0 1.265-.317zM176.78 48.596q.853.833.854 2.4v4.446h-1.239v-4.267q0-1.128-.564-1.727-.565-.599-1.542-.599c-.651 0-1.186.207-1.575.62q-.584.619-.584 1.803v4.168h-1.253V47.9h1.253v1.072a2.5 2.5 0 0 1 1.011-.894 3.15 3.15 0 0 1 1.411-.317q1.376 0 2.229.833zM179.643 49.614a3.4 3.4 0 0 1 1.286-1.356 3.54 3.54 0 0 1 1.824-.481c.67 0 1.234.142 1.72.427q.73.427 1.087 1.072v-1.375h1.265v7.54h-1.265v-1.403q-.373.661-1.108 1.094-.737.434-1.713.434a3.46 3.46 0 0 1-1.817-.495 3.5 3.5 0 0 1-1.279-1.39q-.467-.893-.467-2.037c0-.763.156-1.447.467-2.03m5.572.557a2.4 2.4 0 0 0-.929-.97 2.54 2.54 0 0 0-1.286-.337q-.702 0-1.28.33t-.922.964-.345 1.486c0 .569.116 1.08.345 1.507A2.42 2.42 0 0 0 183 54.465a2.5 2.5 0 0 0 1.286-.338q.585-.336.929-.976t.345-1.493q0-.853-.345-1.486z"/><path fill="#fff" d="M138.245 50.645q-.82.79-2.497.791h-1.845v4.004h-1.253v-9.59h3.096q1.624-.001 2.469.784.846.784.847 2.023c0 .826-.273 1.461-.819 1.988zm-.955-.695q.495-.454.495-1.293 0-1.774-2.037-1.774h-1.845v3.522h1.845q1.045 0 1.542-.453zM147.266 52.138h-6.027q.07 1.115.763 1.741.696.627 1.685.627.811 0 1.357-.379.543-.379.763-1.011h1.349a3.24 3.24 0 0 1-1.211 1.767q-.909.683-2.256.681-1.074 0-1.92-.481a3.4 3.4 0 0 1-1.328-1.368q-.482-.888-.481-2.057 0-1.169.467-2.05a3.3 3.3 0 0 1 1.314-1.357q.846-.475 1.948-.474c.735 0 1.349.155 1.899.467q.826.468 1.272 1.286.448.818.448 1.852 0 .357-.042.756m-1.57-2.249a2.05 2.05 0 0 0-.859-.784 2.7 2.7 0 0 0-1.204-.268q-.95 0-1.617.606-.667.605-.763 1.678h4.762q0-.716-.317-1.232zM151.14 48.12q.612-.358 1.492-.359v1.293h-.33q-2.106 0-2.106 2.284v4.1h-1.253v-7.54h1.253v1.224a2.4 2.4 0 0 1 .944-1.004zM153.843 49.614a3.4 3.4 0 0 1 1.3-1.356q.832-.48 1.906-.481 1.39 0 2.291.673.9.675 1.19 1.871h-1.349a1.93 1.93 0 0 0-.751-1.087q-.557-.399-1.383-.398-1.073 0-1.734.736-.66.738-.66 2.084c0 .898.221 1.61.66 2.106q.661.743 1.734.743.827.001 1.376-.385.55-.384.756-1.1h1.349q-.302 1.155-1.211 1.851-.907.696-2.27.695-1.073 0-1.905-.481a3.36 3.36 0 0 1-1.301-1.362q-.467-.88-.467-2.063c0-.787.156-1.461.467-2.044zM163.482 55.083a3.4 3.4 0 0 1-1.349-1.368q-.488-.888-.488-2.057c0-.779.168-1.452.502-2.044a3.45 3.45 0 0 1 1.368-1.361q.867-.475 1.941-.474 1.073 0 1.941.474a3.47 3.47 0 0 1 1.368 1.356q.503.88.503 2.051 0 1.17-.517 2.056a3.6 3.6 0 0 1-1.396 1.369 4 4 0 0 1-1.955.481 3.85 3.85 0 0 1-1.92-.481zm3.185-.934a2.4 2.4 0 0 0 .956-.95q.364-.634.364-1.542t-.357-1.542a2.35 2.35 0 0 0-.937-.944 2.6 2.6 0 0 0-1.253-.31c-.449 0-.878.104-1.258.31a2.27 2.27 0 0 0-.915.944q-.344.633-.345 1.541c0 .606.112 1.133.338 1.555q.337.632.901.943t1.239.31q.675 0 1.265-.317zM176.78 48.596q.853.833.854 2.4v4.446h-1.239v-4.267q0-1.128-.564-1.727-.565-.599-1.542-.599c-.651 0-1.186.207-1.575.62q-.584.619-.584 1.803v4.168h-1.253V47.9h1.253v1.072a2.5 2.5 0 0 1 1.011-.894 3.15 3.15 0 0 1 1.411-.317q1.376 0 2.229.833zM179.643 49.614a3.4 3.4 0 0 1 1.286-1.356 3.54 3.54 0 0 1 1.824-.481c.67 0 1.234.142 1.72.427q.73.427 1.087 1.072v-1.375h1.265v7.54h-1.265v-1.403q-.373.661-1.108 1.094-.737.434-1.713.434a3.46 3.46 0 0 1-1.817-.495 3.5 3.5 0 0 1-1.279-1.39q-.467-.893-.467-2.037c0-.763.156-1.447.467-2.03m5.572.557a2.4 2.4 0 0 0-.929-.97 2.54 2.54 0 0 0-1.286-.337q-.702 0-1.28.33t-.922.964-.345 1.486c0 .569.116 1.08.345 1.507A2.42 2.42 0 0 0 183 54.465a2.5 2.5 0 0 0 1.286-.338q.585-.336.929-.976t.345-1.493q0-.853-.345-1.486z"/></svg>