<svg xmlns="http://www.w3.org/2000/svg" width="141" height="48" fill="none" viewBox="0 0 141 48"><path fill="#9387fe" d="M46.781 40.8H1.2L23.99 1.2z"/><path fill="#1f0d68" d="M22.575 25.486h10.673l-5.337-9.271zM18.477 20.78l-.732-1.273-3.442 5.98h1.465zM25.14 19.095l-2.3-3.995-5.977 10.386h4.599zM22.575 26.412h10.673l-5.337 9.271zM18.477 31.118l-.732 1.273-3.442-5.98h1.465zM25.14 32.803l-2.3 3.994-5.977-10.385h4.599z"/><path fill="currentColor" d="M62.466 30.306v8.35H60.43v-5.008l-1.867 5.008h-1.641l-1.88-5.02v5.02H53.01v-8.35h2.403l2.343 5.782 2.32-5.782zM63.422 33.53q.388-.773 1.053-1.19.666-.416 1.487-.416.702 0 1.23.286.53.285.815.75v-.94h2.035v6.638h-2.035v-.94q-.297.465-.826.75-.53.285-1.231.285-.81 0-1.475-.422-.666-.423-1.053-1.201-.386-.78-.386-1.802 0-1.024.386-1.797zm4.164.606a1.37 1.37 0 0 0-1.029-.44q-.607 0-1.028.434-.423.435-.423 1.196t.423 1.208 1.028.447a1.37 1.37 0 0 0 1.029-.44q.422-.44.422-1.201t-.422-1.202zM76.936 32.702q.696.755.696 2.075v3.878H75.61v-3.604q0-.667-.346-1.035-.346-.37-.927-.37t-.928.37q-.345.369-.345 1.035v3.604h-2.035v-6.638h2.035v.88q.309-.44.833-.696t1.177-.257q1.166.001 1.862.755zM78.543 33.53q.386-.773 1.052-1.19t1.487-.416q.703 0 1.23.286.53.285.816.75v-.94h2.034v6.638h-2.035v-.94q-.297.465-.826.75-.53.285-1.23.285-.81 0-1.476-.422-.665-.423-1.052-1.201-.387-.78-.387-1.802 0-1.024.387-1.797zm4.163.606a1.37 1.37 0 0 0-1.028-.44q-.607 0-1.029.434-.422.435-.422 1.196t.422 1.208 1.029.447a1.37 1.37 0 0 0 1.028-.44q.423-.44.423-1.201t-.423-1.202zM89.902 32.209q.529.285.815.75v-.94h2.034v6.626q0 .916-.362 1.66-.364.743-1.107 1.183-.744.44-1.85.44-1.475 0-2.39-.696-.917-.696-1.048-1.886h2.01a.96.96 0 0 0 .453.6q.356.22.88.221.63 0 1.004-.362.375-.363.375-1.16v-.94q-.297.464-.822.755-.524.29-1.225.29-.82 0-1.487-.422-.666-.422-1.052-1.201-.387-.78-.387-1.802t.387-1.797q.386-.772 1.052-1.19.666-.415 1.487-.415.703 0 1.23.286zm.394 1.927a1.37 1.37 0 0 0-1.029-.44q-.607 0-1.028.434-.423.435-.423 1.196t.422 1.208 1.03.447a1.37 1.37 0 0 0 1.028-.44q.422-.44.422-1.201t-.422-1.202zM95.358 35.825q.047.616.398.946.35.327.863.327.76 0 1.059-.643h2.165q-.167.654-.601 1.177-.435.525-1.089.821a3.5 3.5 0 0 1-1.463.298q-.975 0-1.736-.416a2.96 2.96 0 0 1-1.19-1.19q-.428-.773-.428-1.808t.423-1.809a2.92 2.92 0 0 1 1.184-1.19q.761-.415 1.749-.415c.659 0 1.213.136 1.713.404q.75.405 1.172 1.153.422.749.422 1.75 0 .284-.035.595zm2.556-1.13q0-.522-.357-.833t-.892-.31c-.356 0-.628.1-.862.298q-.351.297-.435.844h2.546zM111.019 32.696q.731.75.732 2.083v3.877h-2.023v-3.603q0-.642-.338-.994-.338-.351-.935-.351-.595 0-.934.35t-.339.995v3.604h-2.022v-3.604q0-.642-.339-.994-.339-.351-.934-.351-.597 0-.935.35t-.339.995v3.604h-2.034v-6.638h2.034v.833a2.2 2.2 0 0 1 .81-.66 2.54 2.54 0 0 1 1.129-.245q.75 0 1.339.321.588.322.922.916.345-.547.939-.892.595-.345 1.297-.345 1.238 0 1.968.75zM114.308 35.825q.048.616.398.946.35.327.863.327.76 0 1.059-.643h2.165q-.167.654-.601 1.177-.434.525-1.088.821a3.5 3.5 0 0 1-1.463.298q-.976 0-1.737-.416a2.96 2.96 0 0 1-1.19-1.19q-.428-.773-.428-1.808t.423-1.809a2.92 2.92 0 0 1 1.184-1.19q.761-.415 1.749-.415c.659 0 1.213.136 1.713.404q.75.405 1.172 1.153.423.749.423 1.75 0 .284-.036.595zm2.557-1.13q0-.522-.358-.833-.357-.31-.892-.31c-.356 0-.628.1-.862.298q-.351.297-.435.844h2.547zM125.436 32.702q.696.755.696 2.075v3.878h-2.022v-3.604q0-.667-.346-1.035-.345-.37-.927-.37t-.928.37q-.345.369-.345 1.035v3.604h-2.035v-6.638h2.035v.88q.308-.44.833-.696a2.65 2.65 0 0 1 1.177-.257q1.167.001 1.862.755zM130.76 36.932v1.724h-1.036q-1.106 0-1.725-.54-.618-.542-.618-1.767v-2.64h-.809v-1.69h.809v-1.616h2.035v1.617h1.333v1.689h-1.333v2.664q0 .298.142.428.143.131.476.13zM62.457 16.068v8.35h-2.035V19.41l-1.867 5.009h-1.641l-1.88-5.021v5.02H53v-8.35h2.403l2.343 5.782 2.32-5.782zM64.698 24.097a3.05 3.05 0 0 1-1.225-1.19q-.447-.772-.447-1.807c0-.69.15-1.282.452-1.802a3.07 3.07 0 0 1 1.238-1.196 3.7 3.7 0 0 1 1.76-.416q.976 0 1.761.416a3.07 3.07 0 0 1 1.237 1.196q.453.78.452 1.802 0 1.023-.458 1.802a3.1 3.1 0 0 1-1.25 1.196 3.7 3.7 0 0 1-1.766.416q-.976 0-1.754-.416zm2.748-1.773q.411-.428.411-1.225t-.399-1.225a1.29 1.29 0 0 0-.982-.428c-.39 0-.725.14-.987.422q-.392.423-.392 1.231c0 .538.129.94.387 1.225q.385.428.97.428.584 0 .992-.428M76.427 18.464q.697.756.697 2.076v3.877H75.1v-3.604q0-.667-.346-1.035-.346-.37-.927-.37t-.928.37q-.345.369-.345 1.035v3.604H70.52V17.78h2.035v.88q.309-.44.833-.696t1.177-.257q1.167.001 1.862.755zM78.2 16.775a1.02 1.02 0 0 1-.339-.779c0-.308.113-.58.339-.79q.339-.316.874-.316c.358 0 .637.105.863.315q.339.316.339.791c0 .316-.113.569-.34.779q-.337.315-.862.315c-.35 0-.648-.105-.874-.315m1.886 1.006v6.638H78.05V17.78zM84.773 22.694v1.725h-1.035q-1.108 0-1.725-.541-.618-.541-.618-1.766v-2.64h-.81v-1.69h.81v-1.617h2.034v1.617h1.333v1.69H83.43v2.664q0 .297.142.428.144.13.476.13zM86.683 24.097a3.05 3.05 0 0 1-1.226-1.19q-.446-.772-.446-1.807c0-.69.15-1.282.452-1.802a3.07 3.07 0 0 1 1.237-1.196 3.7 3.7 0 0 1 1.76-.416q.977 0 1.761.416a3.07 3.07 0 0 1 1.237 1.196q.453.78.452 1.802 0 1.023-.458 1.802a3.1 3.1 0 0 1-1.25 1.196 3.7 3.7 0 0 1-1.765.416q-.976 0-1.754-.416zm2.746-1.773q.41-.428.41-1.225t-.398-1.225a1.29 1.29 0 0 0-.982-.428c-.39 0-.725.14-.987.422q-.392.423-.392 1.231c0 .538.129.94.386 1.225q.387.428.97.428.584 0 .993-.428M95.432 18.024q.535-.315 1.19-.315v2.153h-.56q-.761 0-1.142.327-.38.326-.38 1.148v3.082h-2.034V17.78h2.034v1.107q.358-.547.892-.863zM97.258 16.775a1.02 1.02 0 0 1-.34-.779c0-.308.114-.58.34-.79q.339-.316.874-.316c.358 0 .637.105.863.315q.338.316.338.791c0 .316-.112.569-.338.779q-.338.315-.863.315c-.35 0-.648-.105-.874-.315m1.884 1.006v6.638h-2.034V17.78zM106.037 18.464q.695.756.696 2.076v3.877h-2.023v-3.604q0-.667-.345-1.035-.346-.37-.928-.37t-.927.37-.346 1.035v3.604h-2.034V17.78h2.034v.88q.31-.44.833-.696.524-.256 1.178-.257 1.166.001 1.862.755zM111.413 17.97q.529.285.815.75v-.94h2.034v6.627q0 .916-.362 1.66-.364.743-1.107 1.183-.744.44-1.85.44-1.476.002-2.391-.696-.916-.695-1.047-1.886h2.01a.96.96 0 0 0 .452.601q.358.22.88.22.63 0 1.005-.362.375-.363.374-1.16v-.94q-.297.464-.821.755-.523.291-1.225.291-.822 0-1.487-.423-.666-.421-1.053-1.201t-.386-1.802q0-1.023.386-1.797.387-.772 1.053-1.189a2.75 2.75 0 0 1 1.487-.416q.702 0 1.231.286zm.392 1.928a1.37 1.37 0 0 0-1.028-.44q-.607 0-1.029.434-.423.435-.423 1.196t.423 1.208 1.029.447a1.37 1.37 0 0 0 1.028-.44q.423-.44.423-1.201t-.423-1.202zM118.294 19.29q.387-.772 1.053-1.189a2.75 2.75 0 0 1 1.487-.416q.702 0 1.23.286.529.285.815.75v-.94h2.034v6.638h-2.034v-.94q-.298.465-.827.75t-1.23.285q-.81 0-1.475-.422-.666-.422-1.053-1.202t-.387-1.802.387-1.796zm4.164.608a1.37 1.37 0 0 0-1.029-.44q-.607 0-1.028.434-.423.435-.423 1.196t.423 1.208a1.36 1.36 0 0 0 1.028.447q.606 0 1.029-.44t.422-1.201q0-.761-.422-1.202zM131.808 18.464q.696.756.696 2.076v3.877h-2.022v-3.604q0-.667-.346-1.035-.345-.37-.927-.37t-.928.37-.346 1.035v3.604h-2.034V17.78h2.034v.88q.309-.44.834-.696a2.65 2.65 0 0 0 1.177-.257q1.166.001 1.862.755zM133.531 19.29q.387-.772 1.053-1.189a2.75 2.75 0 0 1 1.487-.416q.654 0 1.196.274.541.273.85.737v-3.081h2.035v8.802h-2.035v-.951q-.285.476-.814.761-.53.286-1.231.286-.82 0-1.487-.423a2.9 2.9 0 0 1-1.052-1.201q-.387-.78-.387-1.802t.387-1.797zm4.165.608a1.37 1.37 0 0 0-1.028-.44q-.607 0-1.029.434-.423.435-.423 1.196t.423 1.208 1.029.447a1.37 1.37 0 0 0 1.028-.44q.423-.44.423-1.201t-.423-1.202zM57.249 7.236q-.623.6-1.897.6h-1.4v3.041H53V3.595h2.35q1.234 0 1.876.595.643.596.643 1.536c0 .628-.207 1.11-.622 1.51zm-.726-.528q.376-.344.376-.982 0-1.347-1.547-1.347h-1.4v2.675h1.4q.795 0 1.17-.344zM64.099 8.37h-4.577q.053.846.58 1.322.528.476 1.279.476.615 0 1.03-.288.412-.287.58-.768h1.024q-.23.826-.92 1.342-.69.518-1.713.517a2.9 2.9 0 0 1-1.457-.365 2.6 2.6 0 0 1-1.01-1.04q-.365-.673-.364-1.56 0-.888.354-1.558.356-.67.998-1.03t1.48-.36c.557 0 1.024.118 1.441.355q.628.354.966.976.34.622.34 1.406 0 .271-.031.574m-1.192-1.708a1.56 1.56 0 0 0-.653-.596 2.04 2.04 0 0 0-.914-.203q-.721 0-1.228.46-.508.46-.58 1.274h3.617q0-.543-.241-.935zM67.04 5.318q.465-.271 1.133-.272v.982h-.251q-1.599 0-1.599 1.734v3.114h-.951V5.149h.951v.93q.251-.49.717-.762zM69.093 6.453a2.56 2.56 0 0 1 .987-1.03 2.84 2.84 0 0 1 1.448-.365q1.055 0 1.739.511.684.512.904 1.421h-1.025a1.46 1.46 0 0 0-.57-.825q-.424-.303-1.05-.303-.815 0-1.317.56-.501.56-.5 1.582c0 .682.167 1.223.5 1.599q.502.564 1.317.565.628 0 1.045-.293.418-.292.574-.836h1.024a2.52 2.52 0 0 1-.92 1.406q-.689.528-1.723.528a2.84 2.84 0 0 1-1.447-.366 2.55 2.55 0 0 1-.987-1.034q-.355-.668-.355-1.566c0-.598.118-1.11.355-1.552zM76.413 10.606a2.6 2.6 0 0 1-1.025-1.04q-.37-.673-.37-1.56c0-.592.127-1.104.38-1.553q.382-.674 1.04-1.034t1.474-.36q.814 0 1.473.36t1.04 1.03q.38.668.38 1.558 0 .888-.391 1.561a2.7 2.7 0 0 1-1.06 1.04q-.669.365-1.485.365a2.9 2.9 0 0 1-1.458-.366zm2.418-.71q.45-.24.726-.721.276-.48.276-1.171 0-.69-.27-1.17-.273-.482-.712-.717a2 2 0 0 0-.951-.235c-.342 0-.668.078-.956.235q-.434.236-.695.716-.262.48-.262 1.171c0 .46.085.86.257 1.18q.255.481.684.716.43.236.941.236.513 0 .96-.241zM86.51 5.68q.65.633.65 1.823v3.375h-.941v-3.24q0-.856-.428-1.311-.43-.455-1.171-.455c-.495 0-.901.157-1.196.47q-.445.47-.444 1.37v3.165h-.952V5.151h.952v.814q.281-.438.768-.679.485-.24 1.071-.24 1.045 0 1.693.632zM88.685 6.453a2.6 2.6 0 0 1 .977-1.03 2.7 2.7 0 0 1 1.384-.365c.51 0 .937.107 1.307.324q.554.325.825.815V5.152h.96v5.726h-.96V9.813q-.284.501-.841.83-.56.33-1.301.33c-.495 0-.969-.125-1.38-.376a2.64 2.64 0 0 1-.971-1.055q-.355-.68-.355-1.547c0-.58.118-1.1.355-1.542m4.231.423a1.84 1.84 0 0 0-.706-.736 1.93 1.93 0 0 0-.976-.257q-.533 0-.972.251-.439.25-.7.732-.262.48-.262 1.129c0 .432.088.82.262 1.144a1.84 1.84 0 0 0 1.672.998q.532 0 .977-.257.444-.256.705-.741a2.36 2.36 0 0 0 .262-1.134q0-.648-.262-1.128z"/><path fill="currentColor" d="M57.249 7.236q-.623.6-1.897.6h-1.4v3.041H53V3.595h2.35q1.234 0 1.876.595.643.596.643 1.536c0 .628-.207 1.11-.622 1.51zm-.726-.528q.376-.344.376-.982 0-1.347-1.547-1.347h-1.4v2.675h1.4q.795 0 1.17-.344zM64.099 8.37h-4.577q.053.846.58 1.322.528.476 1.279.476.615 0 1.03-.288.412-.287.58-.768h1.024q-.23.826-.92 1.342-.69.518-1.713.517a2.9 2.9 0 0 1-1.457-.365 2.6 2.6 0 0 1-1.01-1.04q-.365-.673-.364-1.56 0-.888.354-1.558.356-.67.998-1.03t1.48-.36c.557 0 1.024.118 1.441.355q.628.354.966.976.34.622.34 1.406 0 .271-.031.574m-1.192-1.708a1.56 1.56 0 0 0-.653-.596 2.04 2.04 0 0 0-.914-.203q-.721 0-1.228.46-.508.46-.58 1.274h3.617q0-.543-.241-.935zM67.04 5.318q.465-.271 1.133-.272v.982h-.251q-1.599 0-1.599 1.734v3.114h-.951V5.149h.951v.93q.251-.49.717-.762zM69.093 6.453a2.56 2.56 0 0 1 .987-1.03 2.84 2.84 0 0 1 1.448-.365q1.055 0 1.739.511.684.512.904 1.421h-1.025a1.46 1.46 0 0 0-.57-.825q-.424-.303-1.05-.303-.815 0-1.317.56-.501.56-.5 1.582c0 .682.167 1.223.5 1.599q.502.564 1.317.565.628 0 1.045-.293.418-.292.574-.836h1.024a2.52 2.52 0 0 1-.92 1.406q-.689.528-1.723.528a2.84 2.84 0 0 1-1.447-.366 2.55 2.55 0 0 1-.987-1.034q-.355-.668-.355-1.566c0-.598.118-1.11.355-1.552zM76.413 10.606a2.6 2.6 0 0 1-1.025-1.04q-.37-.673-.37-1.56c0-.592.127-1.104.38-1.553q.382-.674 1.04-1.034t1.474-.36q.814 0 1.473.36t1.04 1.03q.38.668.38 1.558 0 .888-.391 1.561a2.7 2.7 0 0 1-1.06 1.04q-.669.365-1.485.365a2.9 2.9 0 0 1-1.458-.366zm2.418-.71q.45-.24.726-.721.276-.48.276-1.171 0-.69-.27-1.17-.273-.482-.712-.717a2 2 0 0 0-.951-.235c-.342 0-.668.078-.956.235q-.434.236-.695.716-.262.48-.262 1.171c0 .46.085.86.257 1.18q.255.481.684.716.43.236.941.236.513 0 .96-.241zM86.51 5.68q.65.633.65 1.823v3.375h-.941v-3.24q0-.856-.428-1.311-.43-.455-1.171-.455c-.495 0-.901.157-1.196.47q-.445.47-.444 1.37v3.165h-.952V5.151h.952v.814q.281-.438.768-.679.485-.24 1.071-.24 1.045 0 1.693.632zM88.685 6.453a2.6 2.6 0 0 1 .977-1.03 2.7 2.7 0 0 1 1.384-.365c.51 0 .937.107 1.307.324q.554.325.825.815V5.152h.96v5.726h-.96V9.813q-.284.501-.841.83-.56.33-1.301.33c-.495 0-.969-.125-1.38-.376a2.64 2.64 0 0 1-.971-1.055q-.355-.68-.355-1.547c0-.58.118-1.1.355-1.542m4.231.423a1.84 1.84 0 0 0-.706-.736 1.93 1.93 0 0 0-.976-.257q-.533 0-.972.251-.439.25-.7.732-.262.48-.262 1.129c0 .432.088.82.262 1.144a1.84 1.84 0 0 0 1.672.998q.532 0 .977-.257.444-.256.705-.741a2.36 2.36 0 0 0 .262-1.134q0-.648-.262-1.128z"/></svg>