<svg width="24" height="24" viewBox="0 0 24 24" fill="none" xmlns="http://www.w3.org/2000/svg">
<path fill-rule="evenodd" clip-rule="evenodd" d="M21.8191 8.06739C21.561 9.47272 21.0628 10.9784 20.4102 12.414L19.9964 13.3244L18.1757 12.4968L18.5895 11.5865C19.187 10.272 19.6285 8.9231 19.8521 7.706C20.0793 6.46897 20.0644 5.46073 19.845 4.77376C19.646 4.15042 19.309 3.84021 18.767 3.74319C18.114 3.62632 17.0055 3.79278 15.2772 4.65847L14.7589 4.91806L14.2827 4.60175C14.2801 4.60018 14.2753 4.59727 14.2684 4.5932C14.2497 4.58222 14.2158 4.563 14.168 4.53882C14.0718 4.49019 13.9227 4.4232 13.7316 4.36251C13.3485 4.24081 12.8151 4.15006 12.1988 4.26424C11.5329 4.38758 11.0741 4.6245 10.7933 4.81391C10.652 4.90929 10.5543 4.99366 10.4978 5.0471C10.4695 5.07378 10.4517 5.09259 10.444 5.10096L10.4426 5.10251L9.90809 5.76262L9.16582 5.3236L9.16199 5.32136L9.14315 5.31046C9.1255 5.30031 9.09783 5.28455 9.06105 5.26405C8.98742 5.22302 8.87765 5.16322 8.73881 5.09151C8.46011 4.94757 8.06964 4.75844 7.62318 4.57737C6.68418 4.19655 5.67414 3.92587 4.94059 4.01562C4.60457 4.05674 4.3958 4.16506 4.2577 4.31154C4.11767 4.46009 3.94783 4.75674 3.89991 5.36901C3.79979 6.64834 4.26107 8.92951 5.93541 12.7661L6.3354 13.6826L4.50236 14.4825L4.10237 13.566C2.40685 9.68095 1.76511 7.01336 1.90601 5.21297C1.9786 4.28537 2.26528 3.50941 2.80242 2.93963C3.34149 2.36779 4.03055 2.11206 4.69768 2.03043C5.9704 1.8747 7.38788 2.32372 8.37483 2.72399C8.82919 2.90825 9.22984 3.09815 9.53624 3.25303C9.58005 3.22114 9.6262 3.18873 9.67472 3.15599C10.1576 2.83016 10.8701 2.47633 11.8345 2.29769C12.8484 2.10988 13.7214 2.26082 14.337 2.45632C14.5305 2.51777 14.7004 2.58418 14.8438 2.64716C16.5103 1.87456 17.9397 1.56334 19.1193 1.77448C20.5175 2.02475 21.3677 2.96726 21.7503 4.16541C22.1125 5.29994 22.0737 6.68198 21.8191 8.06739ZM6.63926 7.99936L7.65962 9.71949L8.51729 9.21073L8.51832 9.21012L8.52047 9.2089C8.5251 9.20625 8.53395 9.20122 8.54673 9.19419C8.56565 9.18377 8.59297 9.16905 8.62769 9.15117C8.70138 9.37036 8.83584 9.67318 9.08427 9.9364C9.4139 10.2857 9.90851 10.5211 10.5199 10.4483C10.7863 10.4166 11.0484 10.3293 11.3069 10.1985C11.3602 10.6396 11.3696 11.2146 11.3 11.9595C11.2276 12.734 11.1103 13.3783 10.9647 13.9136L10.3811 14.0764C9.79433 14.24 9.49325 14.1089 9.34616 13.9864C9.17772 13.8461 8.99996 13.5405 8.99996 12.9998V11.9998H6.99996V12.9998C6.99996 13.9591 7.3222 14.9035 8.06621 15.5232C8.53076 15.9101 9.09055 16.1133 9.69653 16.1469C9.37541 16.3953 9.03947 16.5144 8.71262 16.5648C8.17966 16.6469 7.62774 16.5494 7.17714 16.4079C6.95772 16.339 6.77704 16.2644 6.65405 16.2084C6.59291 16.1805 6.54704 16.1578 6.51889 16.1433C6.50484 16.1361 6.4953 16.131 6.49056 16.1285L6.48817 16.1272L5.62014 15.6377L4.63784 17.3799C4.92855 17.5438 5.50997 17.8716 5.50997 17.8716L5.54141 17.8889C5.55769 17.8977 5.57935 17.9091 5.60607 17.9229C5.65945 17.9502 5.73337 17.9867 5.82521 18.0285C6.00818 18.1119 6.26628 18.2182 6.57811 18.3161C7.19001 18.5082 8.07049 18.6873 9.01709 18.5415C9.99666 18.3906 11.0021 17.8963 11.7963 16.8271C12.5695 15.7863 13.0928 14.2687 13.2913 12.1457C13.4537 10.4086 13.2768 9.10786 12.7565 8.19079C12.1957 7.20233 11.318 6.79814 10.4705 6.72491C9.67969 6.65658 8.92211 6.87081 8.4139 7.06209C8.14958 7.16158 7.92798 7.26442 7.77082 7.34322C7.69184 7.38282 7.62807 7.41689 7.58214 7.44217C7.55914 7.45483 7.54054 7.46534 7.52664 7.4733L7.50935 7.48328L7.50342 7.48676L7.50114 7.4881C7.17817 7.67927 6.63926 7.99936 6.63926 7.99936ZM18.3227 7.19828C18.3227 7.19828 18.7037 7.44899 18.8671 7.85893C19.0033 8.20066 18.9723 8.54182 18.8562 8.81866C18.6673 9.26951 18.2636 9.53224 18.0746 9.64645C17.8324 9.79286 17.5755 9.90374 17.397 9.97392C17.304 10.0105 17.2238 10.0393 17.1657 10.0593C17.1365 10.0693 17.1125 10.0773 17.0949 10.0831L17.0732 10.0901L17.0662 10.0923L17.0636 10.0931L16.877 10.1512C16.9814 12.418 17.3555 13.6977 17.7589 14.3835C18.1304 15.0149 18.4962 15.1092 18.791 15.1071C19.1882 15.1041 19.6594 14.9078 20.0975 14.632C20.3032 14.5025 20.4753 14.3722 20.595 14.2749C20.6544 14.2266 20.6997 14.1875 20.7283 14.1621C20.7426 14.1494 20.7527 14.1402 20.7583 14.1351L20.7617 14.132L20.7629 14.1308L21.4853 13.4432L22.8642 14.8919C22.6225 15.1219 22.1391 15.582 22.1391 15.582L22.1382 15.5829L22.136 15.585L22.1301 15.5905L22.1126 15.6067C22.0985 15.6198 22.0792 15.6372 22.0553 15.6585C22.0074 15.7009 21.9403 15.7587 21.8565 15.8269C21.6898 15.9624 21.4518 16.1427 21.1632 16.3245C20.6125 16.6712 19.7577 17.1 18.8057 17.107C18.5775 17.1087 18.3515 17.0861 18.1303 17.0374C18.1398 17.615 18.115 18.3399 17.9929 19.0805C17.8537 19.9248 17.5741 20.8778 16.9958 21.6502C16.3861 22.4644 15.4725 23.0342 14.2255 23.0804C13.1393 23.1206 12.2573 22.9363 11.6151 22.4691C10.9354 21.9747 10.6833 21.282 10.6366 20.6708C10.5921 20.0896 10.726 19.5473 10.8446 19.1881C10.9064 19.0008 10.9706 18.8441 11.0203 18.7323C11.0453 18.676 11.067 18.6302 11.0835 18.5964C11.0918 18.5795 11.0988 18.5656 11.1042 18.5549L11.1113 18.5411L11.115 18.534C11.2804 18.2203 11.5835 17.6483 11.5835 17.6483L13.3514 18.5835L12.8863 19.4628L12.8799 19.4757C12.8733 19.4891 12.8622 19.5124 12.8481 19.5441C12.8197 19.608 12.781 19.7023 12.7437 19.8151C12.6642 20.0561 12.6149 20.3112 12.6307 20.5183C12.6443 20.6955 12.6959 20.7821 12.7917 20.8519C12.925 20.9489 13.2902 21.1137 14.1515 21.0817C14.7527 21.0595 15.1211 20.8169 15.3948 20.4514C15.6999 20.044 15.905 19.4496 16.0195 18.7551C16.1319 18.0739 16.1437 17.3803 16.1247 16.846C16.1153 16.5817 16.0986 16.3627 16.0845 16.2121C16.0775 16.1369 16.0712 16.079 16.0668 16.0415L16.0619 16.0008L16.0608 15.9929L15.9616 15.2683C15.3399 14.1362 14.9608 12.4402 14.8695 10.0137C14.8353 9.10333 14.9356 8.36511 15.2154 7.80597C15.5267 7.18368 16.0403 6.83109 16.6214 6.74812C17.1263 6.67604 17.5726 6.82291 17.8294 6.93167C17.9693 6.99091 18.0852 7.0528 18.1676 7.10066C18.2093 7.12488 18.2438 7.1463 18.2699 7.1631C18.283 7.17153 18.2941 7.17886 18.303 7.18488L18.3149 7.19293L18.3197 7.19619L18.3217 7.19761L18.3227 7.19828Z" fill="currentColor"/>
</svg>
