<svg width="24" height="24" viewBox="0 0 24 24" fill="none" xmlns="http://www.w3.org/2000/svg">
<path fill-rule="evenodd" clip-rule="evenodd" d="M13.4884 16.6649C10.9281 16.5434 8.99523 15.6938 7.72748 14.3486C6.07395 12.5941 5.73063 10.1798 6.42524 8.0407C7.12118 5.89754 8.86217 3.99108 11.4293 3.14241C14.002 2.29187 17.2988 2.53327 21.0994 4.45583L20.1966 6.24048C16.7496 4.49678 14.009 4.39603 12.057 5.04133C10.3445 5.60749 9.15739 6.7707 8.55165 8.08575C10.521 6.95148 12.4615 6.50118 14.2283 6.62269C16.6053 6.78616 18.5904 7.98459 19.7643 9.78114C20.9396 11.5799 21.2657 13.9217 20.4467 16.302C19.6296 18.6771 17.6981 21.0335 14.4554 22.9925L13.4213 21.2806C16.3646 19.5025 17.9256 17.4824 18.5555 15.6514C19.0961 14.0802 18.9696 12.6065 18.4005 11.4253C18.2678 13.6976 17.413 15.5908 16.1185 17.0103C14.326 18.9758 11.7402 19.9754 9.25748 19.8439C6.75109 19.7112 4.32776 18.4192 2.97908 15.8097C1.6454 13.2292 1.4447 9.52493 2.96202 4.68119L4.87057 5.27905C3.44355 9.83454 3.75088 12.947 4.75581 14.8914C5.74574 16.8067 7.49161 17.7476 9.36321 17.8467C10.7802 17.9217 12.2563 17.5103 13.4884 16.6649ZM15.4187 14.6173C16.2368 13.2539 16.6459 11.4552 16.2896 9.2337C15.6483 8.89168 14.908 8.67416 14.091 8.61797C12.4124 8.50253 10.3408 9.06825 8.12894 10.7749C8.24555 11.59 8.59528 12.3534 9.18296 12.9769C10.2274 14.0852 12.1901 14.9228 15.4187 14.6173Z" fill="currentColor"/>
</svg>
