<svg xmlns="http://www.w3.org/2000/svg" width="20" height="20" fill="none"><circle class="background" cx="10" cy="10" r="10" fill="#fff"/><path class="status-updating" fill="#2aa6df" fill-rule="evenodd" d="M10 1.667q1.73 0 3.25.656a8.4 8.4 0 0 1 2.646 1.781 8.4 8.4 0 0 1 1.78 2.646 8.1 8.1 0 0 1 .657 3.25 8.1 8.1 0 0 1-.656 3.25 8.4 8.4 0 0 1-1.781 2.646 8.4 8.4 0 0 1-2.646 1.78 8.1 8.1 0 0 1-3.25.657 8.1 8.1 0 0 1-3.25-.656 8.4 8.4 0 0 1-2.646-1.781 8.4 8.4 0 0 1-1.78-2.646A8.1 8.1 0 0 1 1.666 10q0-1.73.656-3.25a8.4 8.4 0 0 1 1.781-2.646 8.4 8.4 0 0 1 2.646-1.78A8.1 8.1 0 0 1 10 1.666M6.52 7.708q-.354.521-.52 1.104A4.3 4.3 0 0 0 5.833 10q0 .792.313 1.563.312.77.917 1.374.604.604 1.354.907.75.302 1.541.323l-.791.791.875.875 2.375-2.354-2.375-2.354-.875.875.896.896a2.9 2.9 0 0 1-1.136-.188 2.8 2.8 0 0 1-.99-.646 2.9 2.9 0 0 1-.635-.957 2.759 2.759 0 0 1-.125-1.792q.094-.355.26-.688zm1.063-1.187 2.375 2.354.875-.875-.916-.917q.563 0 1.146.219a2.8 2.8 0 0 1 1 .636q.416.415.635.958.219.54.219 1.083 0 .355-.094.709t-.26.687l.916.917q.355-.521.521-1.104T14.167 10q0-.792-.303-1.573a4 4 0 0 0-.906-1.385 3.9 3.9 0 0 0-1.364-.896 4.3 4.3 0 0 0-1.552-.292l.791-.812-.875-.875z" clip-rule="evenodd"/></svg>
