<svg width="21" height="21" viewBox="0 0 21 21" fill="none" xmlns="http://www.w3.org/2000/svg">
<rect x="5.33301" y="5.33301" width="10" height="10" rx="2" fill="#2C323E"/>
<mask id="path-3-outside-1_335_2898" maskUnits="userSpaceOnUse" x="0" y="0" width="21" height="21" fill="black">
<rect fill="white" width="21" height="21"/>
<path d="M10.333 2C11.4858 2 12.5691 2.21875 13.583 2.65625C14.5968 3.09375 15.4785 3.68753 16.2285 4.4375C16.9785 5.18747 17.5723 6.06917 18.0098 7.08301C18.4473 8.0969 18.666 9.18023 18.666 10.333C18.666 11.4858 18.4473 12.5691 18.0098 13.583C17.5723 14.5968 16.9785 15.4785 16.2285 16.2285C15.4785 16.9785 14.5968 17.5723 13.583 18.0098C12.5691 18.4473 11.4858 18.666 10.333 18.666C9.18023 18.666 8.0969 18.4473 7.08301 18.0098C6.06917 17.5723 5.18747 16.9785 4.4375 16.2285C3.68753 15.4785 3.09375 14.5968 2.65625 13.583C2.21875 12.5691 2 11.4858 2 10.333C2 9.18023 2.21875 8.0969 2.65625 7.08301C3.09375 6.06917 3.68753 5.18747 4.4375 4.4375C5.18747 3.68753 6.06917 3.09375 7.08301 2.65625C8.0969 2.21875 9.18023 2 10.333 2ZM6.85352 8.04102C6.6174 8.38824 6.44412 8.75662 6.33301 9.14551C6.2219 9.5344 6.16602 9.93023 6.16602 10.333C6.16602 10.8607 6.27021 11.3817 6.47852 11.8955C6.68685 12.4094 6.99273 12.8677 7.39551 13.2705C7.79829 13.6733 8.25 13.9754 8.75 14.1768C9.24981 14.378 9.76345 14.4861 10.291 14.5L9.5 15.291L10.375 16.166L12.75 13.8125L10.375 11.458L9.5 12.333L10.3955 13.2285C10.0066 13.2424 9.62782 13.1799 9.25977 13.041C8.89187 12.9021 8.56207 12.6871 8.27051 12.3955C7.99277 12.1178 7.7806 11.7985 7.63477 11.4375C7.48893 11.0764 7.41602 10.7146 7.41602 10.3535C7.41604 10.1175 7.44731 9.88148 7.50977 9.64551C7.57227 9.4094 7.6594 9.18023 7.77051 8.95801L6.85352 8.04102ZM7.91602 6.85352L10.291 9.20801L11.166 8.33301L10.25 7.41602C10.6249 7.41606 11.0068 7.489 11.3955 7.63477C11.7844 7.7806 12.1177 7.99273 12.3955 8.27051C12.6732 8.54824 12.8854 8.86747 13.0312 9.22852C13.1771 9.58963 13.25 9.95139 13.25 10.3125C13.25 10.5485 13.2187 10.7845 13.1562 11.0205C13.0938 11.2566 13.0066 11.4858 12.8955 11.708L13.8125 12.625C14.0486 12.2778 14.2219 11.9094 14.333 11.5205C14.4441 11.1316 14.5 10.7358 14.5 10.333C14.5 9.80523 14.3987 9.2806 14.1973 8.75977C13.9959 8.23909 13.6937 7.77768 13.291 7.375C12.8882 6.97222 12.4337 6.67296 11.9268 6.47852C11.42 6.28414 10.9026 6.18754 10.375 6.1875L11.166 5.375L10.291 4.5L7.91602 6.85352Z"/>
</mask>
<path class="status-updating" d="M10.333 2C11.4858 2 12.5691 2.21875 13.583 2.65625C14.5968 3.09375 15.4785 3.68753 16.2285 4.4375C16.9785 5.18747 17.5723 6.06917 18.0098 7.08301C18.4473 8.0969 18.666 9.18023 18.666 10.333C18.666 11.4858 18.4473 12.5691 18.0098 13.583C17.5723 14.5968 16.9785 15.4785 16.2285 16.2285C15.4785 16.9785 14.5968 17.5723 13.583 18.0098C12.5691 18.4473 11.4858 18.666 10.333 18.666C9.18023 18.666 8.0969 18.4473 7.08301 18.0098C6.06917 17.5723 5.18747 16.9785 4.4375 16.2285C3.68753 15.4785 3.09375 14.5968 2.65625 13.583C2.21875 12.5691 2 11.4858 2 10.333C2 9.18023 2.21875 8.0969 2.65625 7.08301C3.09375 6.06917 3.68753 5.18747 4.4375 4.4375C5.18747 3.68753 6.06917 3.09375 7.08301 2.65625C8.0969 2.21875 9.18023 2 10.333 2ZM6.85352 8.04102C6.6174 8.38824 6.44412 8.75662 6.33301 9.14551C6.2219 9.5344 6.16602 9.93023 6.16602 10.333C6.16602 10.8607 6.27021 11.3817 6.47852 11.8955C6.68685 12.4094 6.99273 12.8677 7.39551 13.2705C7.79829 13.6733 8.25 13.9754 8.75 14.1768C9.24981 14.378 9.76345 14.4861 10.291 14.5L9.5 15.291L10.375 16.166L12.75 13.8125L10.375 11.458L9.5 12.333L10.3955 13.2285C10.0066 13.2424 9.62782 13.1799 9.25977 13.041C8.89187 12.9021 8.56207 12.6871 8.27051 12.3955C7.99277 12.1178 7.7806 11.7985 7.63477 11.4375C7.48893 11.0764 7.41602 10.7146 7.41602 10.3535C7.41604 10.1175 7.44731 9.88148 7.50977 9.64551C7.57227 9.4094 7.6594 9.18023 7.77051 8.95801L6.85352 8.04102ZM7.91602 6.85352L10.291 9.20801L11.166 8.33301L10.25 7.41602C10.6249 7.41606 11.0068 7.489 11.3955 7.63477C11.7844 7.7806 12.1177 7.99273 12.3955 8.27051C12.6732 8.54824 12.8854 8.86747 13.0312 9.22852C13.1771 9.58963 13.25 9.95139 13.25 10.3125C13.25 10.5485 13.2187 10.7845 13.1562 11.0205C13.0938 11.2566 13.0066 11.4858 12.8955 11.708L13.8125 12.625C14.0486 12.2778 14.2219 11.9094 14.333 11.5205C14.4441 11.1316 14.5 10.7358 14.5 10.333C14.5 9.80523 14.3987 9.2806 14.1973 8.75977C13.9959 8.23909 13.6937 7.77768 13.291 7.375C12.8882 6.97222 12.4337 6.67296 11.9268 6.47852C11.42 6.28414 10.9026 6.18754 10.375 6.1875L11.166 5.375L10.291 4.5L7.91602 6.85352Z" fill="#439EFF"/>
<path class="background" d="M10.333 2V0V2ZM13.583 2.65625L14.3754 0.819928L14.3754 0.819917L13.583 2.65625ZM16.2285 4.4375L17.6427 3.02329L17.6427 3.02329L16.2285 4.4375ZM18.0098 7.08301L19.8461 6.29062L19.8461 6.29059L18.0098 7.08301ZM18.666 10.333H20.666H18.666ZM18.0098 13.583L19.8461 14.3754L19.8461 14.3754L18.0098 13.583ZM13.583 18.0098L14.3754 19.8461L14.3754 19.8461L13.583 18.0098ZM10.333 18.666V20.666V18.666ZM7.08301 18.0098L6.29059 19.8461L6.29062 19.8461L7.08301 18.0098ZM4.4375 16.2285L3.02329 17.6427L3.02329 17.6427L4.4375 16.2285ZM2.65625 13.583L0.819917 14.3754L0.819928 14.3754L2.65625 13.583ZM2 10.333H0H2ZM2.65625 7.08301L0.819928 6.29059L0.819917 6.29062L2.65625 7.08301ZM7.08301 2.65625L6.29062 0.819917L6.29059 0.819928L7.08301 2.65625ZM6.85352 8.04102L8.26773 6.6268C7.84631 6.20538 7.25891 5.99386 6.66557 6.04987C6.07223 6.10587 5.53479 6.42357 5.19966 6.9164L6.85352 8.04102ZM6.33301 9.14551L4.40996 8.59607L4.40996 8.59607L6.33301 9.14551ZM6.16602 10.333H4.16602V10.333L6.16602 10.333ZM6.47852 11.8955L4.62502 12.6469L4.62504 12.6469L6.47852 11.8955ZM7.39551 13.2705L5.98129 14.6847L5.98129 14.6847L7.39551 13.2705ZM8.75 14.1768L8.00278 16.0319L8.0029 16.032L8.75 14.1768ZM10.291 14.5L11.7052 15.9142C12.2704 15.349 12.4448 14.5015 12.1487 13.7591C11.8526 13.0166 11.1428 12.5218 10.3438 12.5007L10.291 14.5ZM9.5 15.291L8.08579 13.8768C7.30474 14.6579 7.30474 15.9242 8.08579 16.7052L9.5 15.291ZM10.375 16.166L8.96079 17.5802C9.73933 18.3588 11.0007 18.3616 11.7828 17.5866L10.375 16.166ZM12.75 13.8125L14.1578 15.2331C14.5367 14.8576 14.7499 14.3462 14.75 13.8127C14.7501 13.2792 14.5369 12.7678 14.1581 12.3922L12.75 13.8125ZM10.375 11.458L11.7831 10.0377C11.001 9.2624 9.73944 9.26514 8.96079 10.0438L10.375 11.458ZM9.5 12.333L8.08579 10.9188C7.30474 11.6998 7.30474 12.9662 8.08579 13.7472L9.5 12.333ZM10.3955 13.2285L10.4669 15.2272C11.2623 15.1988 11.9652 14.7015 12.2566 13.9608C12.5481 13.2201 12.3725 12.3771 11.8097 11.8143L10.3955 13.2285ZM9.25977 13.041L8.55336 14.9121L8.55365 14.9122L9.25977 13.041ZM8.27051 12.3955L6.85629 13.8097L6.8563 13.8097L8.27051 12.3955ZM7.63477 11.4375L5.78028 12.1864L5.78033 12.1865L7.63477 11.4375ZM7.41602 10.3535L5.41602 10.3533V10.3535H7.41602ZM7.50977 9.64551L5.57636 9.13372L5.57634 9.13378L7.50977 9.64551ZM7.77051 8.95801L9.55936 9.85243C9.94435 9.08246 9.79344 8.15251 9.18472 7.54379L7.77051 8.95801ZM7.91602 6.85352L6.50824 5.43289C6.12928 5.80842 5.91607 6.3198 5.91602 6.85331C5.91596 7.38682 6.12907 7.89824 6.50795 8.27385L7.91602 6.85352ZM10.291 9.20801L8.88295 10.6283C9.66497 11.4036 10.9266 11.4009 11.7052 10.6222L10.291 9.20801ZM11.166 8.33301L12.5802 9.74722C13.361 8.96647 13.3613 7.70072 12.581 6.91955L11.166 8.33301ZM10.25 7.41602L10.2502 5.41602C9.44145 5.41592 8.71223 5.90294 8.40249 6.65005C8.09274 7.39716 8.26345 8.25728 8.83503 8.82948L10.25 7.41602ZM11.3955 7.63477L12.0978 5.76211L12.0977 5.76209L11.3955 7.63477ZM12.3955 8.27051L13.8097 6.8563L13.8097 6.85629L12.3955 8.27051ZM13.0312 9.22852L14.8857 8.47959L14.8857 8.47948L13.0312 9.22852ZM13.25 10.3125L15.25 10.3127V10.3125H13.25ZM13.1562 11.0205L15.0897 11.5323L15.0897 11.5322L13.1562 11.0205ZM12.8955 11.708L11.1067 10.8136C10.7217 11.5836 10.8726 12.5135 11.4813 13.1222L12.8955 11.708ZM13.8125 12.625L12.3983 14.0392C12.8197 14.4606 13.4071 14.6722 14.0004 14.6161C14.5938 14.5601 15.1312 14.2424 15.4664 13.7496L13.8125 12.625ZM14.333 11.5205L16.2561 12.07L14.333 11.5205ZM14.5 10.333L16.5 10.333V10.333H14.5ZM14.1973 8.75977L16.0627 8.03848L16.0626 8.03828L14.1973 8.75977ZM13.291 7.375L14.7052 5.96079L14.7052 5.96079L13.291 7.375ZM11.9268 6.47852L12.643 4.61117L12.643 4.61115L11.9268 6.47852ZM10.375 6.1875L8.94197 4.79236C8.3811 5.36846 8.21975 6.2244 8.53238 6.96516C8.84501 7.70591 9.57083 8.18744 10.3748 8.1875L10.375 6.1875ZM11.166 5.375L12.599 6.77014C13.3623 5.98619 13.3539 4.73445 12.5802 3.96079L11.166 5.375ZM10.291 4.5L11.7052 3.08579C10.9267 2.30725 9.66531 2.30438 8.88324 3.07938L10.291 4.5ZM10.333 2V4C11.2255 4 12.0379 4.16779 12.7906 4.49258L13.583 2.65625L14.3754 0.819917C13.1003 0.269706 11.7461 2.38419e-07 10.333 0V2ZM13.583 2.65625L12.7906 4.49257C13.5819 4.83402 14.2502 5.28765 14.8143 5.85171L16.2285 4.4375L17.6427 3.02329C16.7068 2.08741 15.6118 1.35347 14.3754 0.819928L13.583 2.65625ZM16.2285 4.4375L14.8143 5.85171C15.3784 6.41577 15.832 7.08415 16.1734 7.87542L18.0098 7.08301L19.8461 6.29059C19.3125 5.05418 18.5786 3.95917 17.6427 3.02329L16.2285 4.4375ZM18.0098 7.08301L16.1734 7.8754C16.4982 8.62808 16.666 9.44053 16.666 10.333H18.666H20.666C20.666 8.91993 20.3963 7.56571 19.8461 6.29062L18.0098 7.08301ZM18.666 10.333H16.666C16.666 11.2255 16.4982 12.0379 16.1734 12.7906L18.0098 13.583L19.8461 14.3754C20.3963 13.1003 20.666 11.7461 20.666 10.333H18.666ZM18.0098 13.583L16.1734 12.7906C15.832 13.5819 15.3784 14.2502 14.8143 14.8143L16.2285 16.2285L17.6427 17.6427C18.5786 16.7068 19.3125 15.6118 19.8461 14.3754L18.0098 13.583ZM16.2285 16.2285L14.8143 14.8143C14.2502 15.3784 13.5819 15.832 12.7906 16.1734L13.583 18.0098L14.3754 19.8461C15.6118 19.3125 16.7068 18.5786 17.6427 17.6427L16.2285 16.2285ZM13.583 18.0098L12.7906 16.1734C12.0379 16.4982 11.2255 16.666 10.333 16.666V18.666V20.666C11.7461 20.666 13.1003 20.3963 14.3754 19.8461L13.583 18.0098ZM10.333 18.666V16.666C9.44053 16.666 8.62808 16.4982 7.8754 16.1734L7.08301 18.0098L6.29062 19.8461C7.56571 20.3963 8.91993 20.666 10.333 20.666V18.666ZM7.08301 18.0098L7.87542 16.1734C7.08415 15.832 6.41577 15.3784 5.85171 14.8143L4.4375 16.2285L3.02329 17.6427C3.95917 18.5786 5.05418 19.3125 6.29059 19.8461L7.08301 18.0098ZM4.4375 16.2285L5.85171 14.8143C5.28765 14.2502 4.83402 13.5819 4.49257 12.7906L2.65625 13.583L0.819928 14.3754C1.35347 15.6118 2.08741 16.7068 3.02329 17.6427L4.4375 16.2285ZM2.65625 13.583L4.49258 12.7906C4.16779 12.0379 4 11.2255 4 10.333H2H0C2.38419e-07 11.7461 0.269706 13.1003 0.819917 14.3754L2.65625 13.583ZM2 10.333H4C4 9.44053 4.16779 8.62808 4.49258 7.8754L2.65625 7.08301L0.819917 6.29062C0.269706 7.56571 0 8.91993 0 10.333H2ZM2.65625 7.08301L4.49257 7.87542C4.83402 7.08415 5.28765 6.41577 5.85171 5.85171L4.4375 4.4375L3.02329 3.02329C2.08741 3.95917 1.35347 5.05418 0.819928 6.29059L2.65625 7.08301ZM4.4375 4.4375L5.85171 5.85171C6.41577 5.28765 7.08415 4.83402 7.87542 4.49257L7.08301 2.65625L6.29059 0.819928C5.05418 1.35347 3.95917 2.08741 3.02329 3.02329L4.4375 4.4375ZM7.08301 2.65625L7.8754 4.49258C8.62808 4.16779 9.44053 4 10.333 4V2V0C8.91993 0 7.56571 0.269706 6.29062 0.819917L7.08301 2.65625ZM6.85352 8.04102L5.19966 6.9164C4.84756 7.4342 4.58142 7.99595 4.40996 8.59607L6.33301 9.14551L8.25606 9.69495C8.30682 9.51729 8.38725 9.34228 8.50737 9.16564L6.85352 8.04102ZM6.33301 9.14551L4.40996 8.59607C4.24831 9.16184 4.16602 9.74253 4.16602 10.333H6.16602H8.16602C8.16602 10.1179 8.19548 9.90696 8.25606 9.69495L6.33301 9.14551ZM6.16602 10.333L4.16602 10.333C4.16602 11.1313 4.32496 11.9067 4.62502 12.6469L6.47852 11.8955L8.33201 11.1441C8.21547 10.8566 8.16602 10.5902 8.16602 10.333L6.16602 10.333ZM6.47852 11.8955L4.62504 12.6469C4.93697 13.4164 5.39497 14.0984 5.98129 14.6847L7.39551 13.2705L8.80972 11.8563C8.59049 11.6371 8.43673 11.4024 8.33199 11.1441L6.47852 11.8955ZM7.39551 13.2705L5.98129 14.6847C6.56381 15.2672 7.23943 15.7245 8.00278 16.0319L8.75 14.1768L9.49722 12.3216C9.26057 12.2263 9.03277 12.0793 8.80972 11.8563L7.39551 13.2705ZM8.75 14.1768L8.0029 16.032C8.71792 16.3199 9.46633 16.4789 10.2383 16.4993L10.291 14.5L10.3438 12.5007C10.0606 12.4932 9.7817 12.4361 9.4971 12.3215L8.75 14.1768ZM10.291 14.5L8.8768 13.0858L8.08579 13.8768L9.5 15.291L10.9142 16.7052L11.7052 15.9142L10.291 14.5ZM9.5 15.291L8.08579 16.7052L8.96079 17.5802L10.375 16.166L11.7892 14.7518L10.9142 13.8768L9.5 15.291ZM10.375 16.166L11.7828 17.5866L14.1578 15.2331L12.75 13.8125L11.3422 12.3919L8.96723 14.7454L10.375 16.166ZM12.75 13.8125L14.1581 12.3922L11.7831 10.0377L10.375 11.458L8.96693 12.8783L11.3419 15.2328L12.75 13.8125ZM10.375 11.458L8.96079 10.0438L8.08579 10.9188L9.5 12.333L10.9142 13.7472L11.7892 12.8722L10.375 11.458ZM9.5 12.333L8.08579 13.7472L8.98129 14.6427L10.3955 13.2285L11.8097 11.8143L10.9142 10.9188L9.5 12.333ZM10.3955 13.2285L10.3241 11.2298C10.2031 11.2341 10.0884 11.216 9.96588 11.1698L9.25977 13.041L8.55365 14.9122C9.16724 15.1438 9.81017 15.2507 10.4669 15.2272L10.3955 13.2285ZM9.25977 13.041L9.96617 11.1699C9.87626 11.136 9.78496 11.0815 9.68472 10.9813L8.27051 12.3955L6.8563 13.8097C7.33918 14.2926 7.90748 14.6683 8.55336 14.9121L9.25977 13.041ZM8.27051 12.3955L9.68472 10.9813C9.59415 10.8907 9.533 10.7969 9.4892 10.6885L7.63477 11.4375L5.78033 12.1865C6.02819 12.8002 6.39139 13.3448 6.85629 13.8097L8.27051 12.3955ZM7.63477 11.4375L9.48925 10.6886C9.43211 10.5471 9.41602 10.4389 9.41602 10.3535H7.41602H5.41602C5.41602 10.9904 5.54575 11.6057 5.78028 12.1864L7.63477 11.4375ZM7.41602 10.3535L9.41602 10.3538C9.41602 10.2964 9.42337 10.2321 9.44319 10.1572L7.50977 9.64551L5.57634 9.13378C5.47125 9.53083 5.41607 9.93871 5.41602 10.3533L7.41602 10.3535ZM7.50977 9.64551L9.44318 10.1573C9.46967 10.0572 9.50758 9.95601 9.55936 9.85243L7.77051 8.95801L5.98165 8.06358C5.81122 8.40445 5.67486 8.7616 5.57636 9.13372L7.50977 9.64551ZM7.77051 8.95801L9.18472 7.54379L8.26773 6.6268L6.85352 8.04102L5.4393 9.45523L6.35629 10.3722L7.77051 8.95801ZM7.91602 6.85352L6.50795 8.27385L8.88295 10.6283L10.291 9.20801L11.6991 7.78768L9.32408 5.43318L7.91602 6.85352ZM10.291 9.20801L11.7052 10.6222L12.5802 9.74722L11.166 8.33301L9.7518 6.91879L8.8768 7.79379L10.291 9.20801ZM11.166 8.33301L12.581 6.91955L11.665 6.00256L10.25 7.41602L8.83503 8.82948L9.75105 9.74647L11.166 8.33301ZM10.25 7.41602L10.2498 9.41602C10.3604 9.41603 10.5049 9.4368 10.6933 9.50744L11.3955 7.63477L12.0977 5.76209C11.5086 5.5412 10.8893 5.41609 10.2502 5.41602L10.25 7.41602ZM11.3955 7.63477L10.6933 9.50742C10.8295 9.55853 10.9162 9.61964 10.9813 9.68472L12.3955 8.27051L13.8097 6.85629C13.3192 6.36582 12.7393 6.00267 12.0978 5.76211L11.3955 7.63477ZM12.3955 8.27051L10.9813 9.68472C11.0719 9.77529 11.133 9.86913 11.1768 9.97755L13.0312 9.22852L14.8857 8.47948C14.6378 7.86582 14.2746 7.32119 13.8097 6.8563L12.3955 8.27051ZM13.0312 9.22852L11.1768 9.97744C11.2339 10.1189 11.25 10.2271 11.25 10.3125H13.25H15.25C15.25 9.67563 15.1203 9.06032 14.8857 8.47959L13.0312 9.22852ZM13.25 10.3125L11.25 10.3123C11.25 10.3697 11.2426 10.4339 11.2228 10.5088L13.1562 11.0205L15.0897 11.5322C15.1948 11.1352 15.2499 10.7273 15.25 10.3127L13.25 10.3125ZM13.1562 11.0205L11.2228 10.5087C11.1963 10.6088 11.1584 10.71 11.1067 10.8136L12.8955 11.708L14.6844 12.6024C14.8548 12.2616 14.9912 11.9044 15.0897 11.5323L13.1562 11.0205ZM12.8955 11.708L11.4813 13.1222L12.3983 14.0392L13.8125 12.625L15.2267 11.2108L14.3097 10.2938L12.8955 11.708ZM13.8125 12.625L15.4664 13.7496C15.8185 13.2318 16.0846 12.6701 16.2561 12.07L14.333 11.5205L12.41 10.9711C12.3592 11.1487 12.2788 11.3237 12.1586 11.5004L13.8125 12.625ZM14.333 11.5205L16.2561 12.07C16.4177 11.5042 16.5 10.9235 16.5 10.333L14.5 10.333L12.5 10.333C12.5 10.5481 12.4705 10.7591 12.41 10.9711L14.333 11.5205ZM14.5 10.333H16.5C16.5 9.54306 16.3473 8.77447 16.0627 8.03848L14.1973 8.75977L12.3319 9.48106C12.4501 9.78673 12.5 10.0674 12.5 10.333H14.5ZM14.1973 8.75977L16.0626 8.03828C15.7584 7.25188 15.3003 6.5559 14.7052 5.96079L13.291 7.375L11.8768 8.78921C12.087 8.99946 12.2333 9.22631 12.3319 9.48125L14.1973 8.75977ZM13.291 7.375L14.7052 5.96079C14.1154 5.37095 13.4263 4.9116 12.643 4.61117L11.9268 6.47852L11.2105 8.34587C11.4411 8.43432 11.6611 8.57349 11.8768 8.78921L13.291 7.375ZM11.9268 6.47852L12.643 4.61115C11.9128 4.3311 11.1531 4.18756 10.3752 4.1875L10.375 6.1875L10.3748 8.1875C10.6522 8.18752 10.9271 8.23718 11.2106 8.34588L11.9268 6.47852ZM10.375 6.1875L11.808 7.58264L12.599 6.77014L11.166 5.375L9.73298 3.97986L8.94197 4.79236L10.375 6.1875ZM11.166 5.375L12.5802 3.96079L11.7052 3.08579L10.291 4.5L8.8768 5.91421L9.7518 6.78921L11.166 5.375ZM10.291 4.5L8.88324 3.07938L6.50824 5.43289L7.91602 6.85352L9.32379 8.27414L11.6988 5.92062L10.291 4.5Z" fill="" mask="url(#path-3-outside-1_335_2898)"/>
</svg>
