<svg xmlns="http://www.w3.org/2000/svg" width="23" height="21" fill="none"><path class="background" fill="#fff" d="M10.378.485a1 1 0 0 1 1.715 0l10.234 17.057a1 1 0 0 1-.858 1.514H1.002a1 1 0 0 1-.858-1.514z"/><path class="status-at-risk" fill="#d7a604" fill-rule="evenodd" d="M20.402 17.556H2.068l9.167-15.833zm-9.167-4.167a.8.8 0 0 0-.593.24.8.8 0 0 0-.24.594q0 .354.24.594t.593.24.594-.24q.24-.24.24-.594a.8.8 0 0 0-.24-.593.8.8 0 0 0-.594-.24m-.833-.833h1.666V8.39h-1.666z" clip-rule="evenodd"/></svg>
