<svg width="23" height="21" viewBox="0 0 23 21" fill="none" xmlns="http://www.w3.org/2000/svg">
<rect x="6.16699" y="5.33301" width="10" height="10" rx="2" fill="#2C323E"/>
<mask id="path-3-outside-1_335_7371" maskUnits="userSpaceOnUse" x="0" y="0" width="23" height="20" fill="black">
<rect fill="white" width="23" height="20"/>
<path d="M20.334 17.833H2L11.167 2L20.334 17.833ZM11.167 13.666C10.9309 13.666 10.733 13.7465 10.5732 13.9062C10.4136 14.0659 10.334 14.264 10.334 14.5C10.3341 14.736 10.4136 14.9341 10.5732 15.0938C10.7329 15.2534 10.931 15.333 11.167 15.333C11.403 15.333 11.6011 15.2534 11.7607 15.0938C11.9204 14.9341 11.9999 14.736 12 14.5C12 14.264 11.9203 14.0659 11.7607 13.9062C11.601 13.7465 11.4031 13.666 11.167 13.666ZM10.334 12.833H12V8.66602H10.334V12.833Z"/>
</mask>
<rect class="background" fill="#fff" x="8.5" y="12" width="5" height="5"  />
<path class="status-at-risk" d="M20.334 17.833H2L11.167 2L20.334 17.833ZM11.167 13.666C10.9309 13.666 10.733 13.7465 10.5732 13.9062C10.4136 14.0659 10.334 14.264 10.334 14.5C10.3341 14.736 10.4136 14.9341 10.5732 15.0938C10.7329 15.2534 10.931 15.333 11.167 15.333C11.403 15.333 11.6011 15.2534 11.7607 15.0938C11.9204 14.9341 11.9999 14.736 12 14.5C12 14.264 11.9203 14.0659 11.7607 13.9062C11.601 13.7465 11.4031 13.666 11.167 13.666ZM10.334 12.833H12V8.66602H10.334V12.833Z" fill="currentColor"/>
<path class="background" d="M20.334 17.833V19.833C21.049 19.833 21.7095 19.4513 22.0666 18.8319C22.4238 18.2126 22.4231 17.4496 22.0648 16.8309L20.334 17.833ZM2 17.833L0.269172 16.8309C-0.0890679 17.4496 -0.0897667 18.2126 0.267339 18.8319C0.624444 19.4513 1.28503 19.833 2 19.833L2 17.833ZM11.167 2L12.8978 0.997885C12.5402 0.380275 11.8807 0 11.167 0C10.4533 0 9.79375 0.380275 9.43616 0.997885L11.167 2ZM11.167 13.666L11.167 11.666H11.167V13.666ZM10.5732 13.9062L9.15903 12.492L9.1587 12.4924L10.5732 13.9062ZM10.334 14.5H8.33398V14.5006L10.334 14.5ZM10.5732 15.0938L9.15903 16.508L9.15942 16.5084L10.5732 15.0938ZM11.167 15.333V17.333H11.167L11.167 15.333ZM11.7607 15.0938L13.1746 16.5083L13.175 16.508L11.7607 15.0938ZM12 14.5L14 14.5006V14.5H12ZM11.7607 13.9062L13.1753 12.4924L13.175 12.492L11.7607 13.9062ZM10.334 12.833H8.33398C8.33398 13.9376 9.22941 14.833 10.334 14.833V12.833ZM12 12.833V14.833C13.1046 14.833 14 13.9376 14 12.833H12ZM12 8.66602H14C14 7.56145 13.1046 6.66602 12 6.66602V8.66602ZM10.334 8.66602V6.66602C9.22941 6.66602 8.33398 7.56145 8.33398 8.66602H10.334ZM20.334 17.833V15.833H2V17.833V19.833H20.334V17.833ZM2 17.833L3.73083 18.8351L12.8978 3.00211L11.167 2L9.43616 0.997885L0.269172 16.8309L2 17.833ZM11.167 2L9.43616 3.00211L18.6032 18.8351L20.334 17.833L22.0648 16.8309L12.8978 0.997885L11.167 2ZM11.167 13.666V11.666C10.423 11.666 9.70951 11.9416 9.15903 12.492L10.5732 13.9062L11.9875 15.3205C11.8896 15.4183 11.7567 15.5133 11.5925 15.5799C11.4297 15.6458 11.2802 15.666 11.167 15.666V13.666ZM10.5732 13.9062L9.1587 12.4924C8.60465 13.0467 8.33398 13.762 8.33398 14.5H10.334H12.334C12.334 14.6105 12.3145 14.7589 12.2489 14.9217C12.1826 15.0863 12.0872 15.2206 11.9878 15.3201L10.5732 13.9062ZM10.334 14.5L8.33398 14.5006C8.33422 15.2372 8.60404 15.953 9.15903 16.508L10.5732 15.0938L11.9875 13.6795C12.0874 13.7795 12.1828 13.9141 12.2491 14.0786C12.3145 14.2412 12.3339 14.3893 12.334 14.4994L10.334 14.5ZM10.5732 15.0938L9.15942 16.5084C9.71365 17.0623 10.4289 17.333 11.167 17.333V15.333V13.333C11.2776 13.333 11.426 13.3525 11.5887 13.4181C11.7533 13.4843 11.8876 13.5797 11.9871 13.6791L10.5732 15.0938ZM11.167 15.333L11.167 17.333C11.9049 17.333 12.6203 17.0624 13.1746 16.5083L11.7607 15.0938L10.3469 13.6792C10.4464 13.5797 10.5807 13.4843 10.7453 13.418C10.9081 13.3525 11.0564 13.333 11.1669 13.333L11.167 15.333ZM11.7607 15.0938L13.175 16.508C13.7299 15.953 13.9998 15.2372 14 14.5006L12 14.5L10 14.4994C10 14.3893 10.0194 14.2412 10.0849 14.0786C10.1511 13.9141 10.2466 13.7795 10.3465 13.6795L11.7607 15.0938ZM12 14.5H14C14 13.762 13.7293 13.0467 13.1753 12.4924L11.7607 13.9062L10.3461 15.3201C10.2467 15.2206 10.1513 15.0863 10.0851 14.9217C10.0195 14.759 10 14.6106 10 14.5H12ZM11.7607 13.9062L13.175 12.492C12.6245 11.9415 11.9109 11.666 11.167 11.666L11.167 13.666L11.1669 15.666C11.0538 15.666 10.9042 15.6458 10.7415 15.5799C10.5773 15.5134 10.4444 15.4183 10.3465 15.3205L11.7607 13.9062ZM10.334 12.833V14.833H12V12.833V10.833H10.334V12.833ZM12 12.833H14V8.66602H12H10V12.833H12ZM12 8.66602V6.66602H10.334V8.66602V10.666H12V8.66602ZM10.334 8.66602H8.33398V12.833H10.334H12.334V8.66602H10.334Z" fill="#fff" mask="url(#path-3-outside-1_335_7371)"/>
</svg>
