<svg width="24" height="24" viewBox="0 0 24 24" fill="none" xmlns="http://www.w3.org/2000/svg">
<path d="M12 21C9.5 21 7.375 20.125 5.625 18.375C3.875 16.625 3 14.5 3 12C3 9.5 3.875 7.375 5.625 5.625C7.375 3.875 9.5 3 12 3C12.2333 3 12.4625 3.00833 12.6875 3.025C12.9125 3.04167 13.1333 3.06667 13.35 3.1C12.6667 3.58333 12.1208 4.2125 11.7125 4.9875C11.3042 5.7625 11.1 6.6 11.1 7.5C11.1 9 11.625 10.275 12.675 11.325C13.725 12.375 15 12.9 16.5 12.9C17.4167 12.9 18.2583 12.6958 19.025 12.2875C19.7917 11.8792 20.4167 11.3333 20.9 10.65C20.9333 10.8667 20.9583 11.0875 20.975 11.3125C20.9917 11.5375 21 11.7667 21 12C21 14.5 20.125 16.625 18.375 18.375C16.625 20.125 14.5 21 12 21ZM12 19C13.4667 19 14.7833 18.5958 15.95 17.7875C17.1167 16.9792 17.9667 15.925 18.5 14.625C18.1667 14.7083 17.8333 14.775 17.5 14.825C17.1667 14.875 16.8333 14.9 16.5 14.9C14.45 14.9 12.7042 14.1792 11.2625 12.7375C9.82083 11.2958 9.1 9.55 9.1 7.5C9.1 7.16667 9.125 6.83333 9.175 6.5C9.225 6.16667 9.29167 5.83333 9.375 5.5C8.075 6.03333 7.02083 6.88333 6.2125 8.05C5.40417 9.21667 5 10.5333 5 12C5 13.9333 5.68333 15.5833 7.05 16.95C8.41667 18.3167 10.0667 19 12 19Z" fill="currentColor"/>
</svg>
