<svg width="24" height="24" viewBox="0 0 24 24" fill="none" xmlns="http://www.w3.org/2000/svg">
<path d="M10.5 15H13.5L12.925 11.775C13.2583 11.6083 13.5208 11.3667 13.7125 11.05C13.9042 10.7333 14 10.3833 14 10C14 9.45 13.8042 8.97917 13.4125 8.5875C13.0208 8.19583 12.55 8 12 8C11.45 8 10.9792 8.19583 10.5875 8.5875C10.1958 8.97917 10 9.45 10 10C10 10.3833 10.0958 10.7333 10.2875 11.05C10.4792 11.3667 10.7417 11.6083 11.075 11.775L10.5 15ZM12 22C9.68333 21.4167 7.77083 20.0875 6.2625 18.0125C4.75417 15.9375 4 13.6333 4 11.1V5L12 2L20 5V11.1C20 13.6333 19.2458 15.9375 17.7375 18.0125C16.2292 20.0875 14.3167 21.4167 12 22ZM12 19.9C13.7333 19.35 15.1667 18.25 16.3 16.6C17.4333 14.95 18 13.1167 18 11.1V6.375L12 4.125L6 6.375V11.1C6 13.1167 6.56667 14.95 7.7 16.6C8.83333 18.25 10.2667 19.35 12 19.9Z" fill="currentColor"/>
</svg>
