<?xml version="1.0" encoding="UTF-8" standalone="no"?>
<svg
   xmlns:dc="http://purl.org/dc/elements/1.1/"
   xmlns:cc="http://creativecommons.org/ns#"
   xmlns:rdf="http://www.w3.org/1999/02/22-rdf-syntax-ns#"
   xmlns:svg="http://www.w3.org/2000/svg"
   xmlns="http://www.w3.org/2000/svg"
   xmlns:sodipodi="http://sodipodi.sourceforge.net/DTD/sodipodi-0.dtd"
   xmlns:inkscape="http://www.inkscape.org/namespaces/inkscape"
   sodipodi:docname="pmm-doc-logo.svg"
   inkscape:version="1.0 (4035a4f, 2020-05-01)"
   id="svg438"
   version="1.1"
   viewBox="0 0 12.7 12.7"
   height="48"
   width="48">
  <defs
     id="defs432">
    <clipPath
       clipPathUnits="userSpaceOnUse"
       id="clipPath210">
      <path
         d="M 0,432 H 432 V 0 H 0 Z"
         id="path208" />
    </clipPath>
    <linearGradient
       x1="0"
       y1="0"
       x2="1"
       y2="0"
       gradientUnits="userSpaceOnUse"
       gradientTransform="matrix(0,-77.167992,-77.167992,0,216.00046,327.89233)"
       spreadMethod="pad"
       id="linearGradient232">
      <stop
         style="stop-opacity:1;stop-color:#fab21e"
         offset="0"
         id="stop228" />
      <stop
         style="stop-opacity:1;stop-color:#bf2519"
         offset="1"
         id="stop230" />
    </linearGradient>
    <clipPath
       clipPathUnits="userSpaceOnUse"
       id="clipPath242">
      <path
         d="M 0,432 H 432 V 0 H 0 Z"
         id="path240" />
    </clipPath>
    <clipPath
       clipPathUnits="userSpaceOnUse"
       id="clipPath250">
      <path
         d="M 156.131,321.455 H 275.964 V 260.538 H 156.131 Z"
         id="path248" />
    </clipPath>
    <clipPath
       clipPathUnits="userSpaceOnUse"
       id="clipPath266">
      <path
         d="m 156.131,261.539 c 0,-33.091 26.826,-59.916 59.918,-59.916 v 0 c 33.089,0 59.915,26.825 59.915,59.916 v 0 c 0,33.092 -26.826,59.916 -59.915,59.916 v 0 c -33.092,0 -59.918,-26.824 -59.918,-59.916"
         id="path264" />
    </clipPath>
  </defs>
  <sodipodi:namedview
     units="px"
     inkscape:window-maximized="0"
     inkscape:window-y="0"
     inkscape:window-x="0"
     inkscape:window-height="1174"
     inkscape:window-width="1252"
     showgrid="false"
     inkscape:document-rotation="0"
     inkscape:current-layer="layer1"
     inkscape:document-units="mm"
     inkscape:cy="47.281461"
     inkscape:cx="29.890122"
     inkscape:zoom="6.0662378"
     inkscape:pageshadow="2"
     inkscape:pageopacity="0.0"
     borderopacity="1.0"
     bordercolor="#666666"
     pagecolor="#ffffff"
     id="base" />
  <metadata
     id="metadata435">
    <rdf:RDF>
      <cc:Work
         rdf:about="">
        <dc:format>image/svg+xml</dc:format>
        <dc:type
           rdf:resource="http://purl.org/dc/dcmitype/StillImage" />
        <dc:title></dc:title>
      </cc:Work>
    </rdf:RDF>
  </metadata>
  <g
     id="layer1"
     inkscape:groupmode="layer"
     inkscape:label="Layer 1">
    <g
       transform="matrix(0.10276245,0,0,-0.10276245,-15.836909,33.23601)"
       id="g204">
      <g
         id="g206"
         clip-path="url(#clipPath210)">
        <g
           id="g212"
           transform="translate(277.794,261.3511)">
          <path
             d="m 0,0 c 0,-34.129 -27.666,-61.793 -61.792,-61.793 -34.129,0 -61.796,27.664 -61.796,61.793 0,34.129 27.667,61.793 61.796,61.793 C -27.666,61.793 0,34.129 0,0"
             style="fill:#ffffff;fill-opacity:1;fill-rule:nonzero;stroke:none"
             id="path214" />
        </g>
      </g>
    </g>
    <g
       transform="matrix(0.10276245,0,0,-0.10276245,-15.836909,33.23601)"
       id="g216">
      <g
         id="g218">
        <g
           id="g224">
          <g
             id="g226">
            <path
               d="m 156.084,261.539 c 0,-33.091 26.827,-59.916 59.918,-59.916 v 0 c 33.089,0 59.915,26.825 59.915,59.916 v 0 c 0,33.092 -26.826,59.916 -59.915,59.916 v 0 c -33.091,0 -59.918,-26.824 -59.918,-59.916"
               style="fill:url(#linearGradient232);stroke:none"
               id="path234" />
          </g>
        </g>
      </g>
    </g>
    <g
       transform="matrix(0.10276245,0,0,-0.10276245,-15.836909,33.23601)"
       id="g236">
      <g
         id="g238"
         clip-path="url(#clipPath242)">
        <g
           id="g244">
          <g
             id="g246" />
          <g
             id="g258">
            <g
               clip-path="url(#clipPath250)"
               opacity="0.119995"
               id="g256">
              <g
                 transform="translate(216.0485,319.4527)"
                 id="g254">
                <path
                   d="m 0,0 c 32.755,0 59.353,-26.287 59.89,-58.914 0.005,0.334 0.025,0.665 0.025,1 0,33.092 -26.825,59.916 -59.915,59.916 -33.091,0 -59.918,-26.824 -59.918,-59.916 0,-0.335 0.021,-0.666 0.026,-1 C -59.355,-26.287 -32.755,0 0,0"
                   style="fill:#7e170f;fill-opacity:1;fill-rule:nonzero;stroke:none"
                   id="path252" />
              </g>
            </g>
          </g>
        </g>
      </g>
    </g>
    <g
       transform="matrix(0.10276245,0,0,-0.10276245,-15.836909,33.23601)"
       id="g260">
      <g
         id="g262"
         clip-path="url(#clipPath266)">
        <g
           id="g268"
           transform="translate(189.693,301.8122)">
          <path
             d="M 0,0 C 0.95,1.105 2.724,1.865 3.592,1.026 4.46,0.187 4.681,-1.405 3.857,-2.473 3.183,-3.347 0.883,-4.357 -0.207,-3.233 -1.222,-2.187 -0.601,-0.699 0,0"
             style="fill:#ffffff;fill-opacity:1;fill-rule:nonzero;stroke:none"
             id="path270" />
        </g>
        <g
           id="g272"
           transform="translate(220.9861,243.6028)">
          <path
             d="m 0,0 c 2.98,-8.961 -1.348,-10.807 -5.668,-10.559 -4.457,0.256 -6.561,2.673 -7.331,7.614 2.047,-0.091 4.921,0.479 6.745,2.094 -21.127,2.48 -36.051,20.487 -35.79,27.922 2.144,-2.223 7.344,-2.96 10.162,0.021 -3.704,0.928 -6.883,5.305 -6.517,9.2 2.773,-2.324 5.964,-1.069 7.139,1.38 -5.426,-1.139 -10.596,7.227 -7.494,16.062 2.944,8.387 11.091,11.092 16.206,10.035 -0.538,-0.781 -0.799,-1.928 -0.347,-3.317 1.414,2.346 4.452,3.639 8.508,4.363 l -1.837,1.499 c -1.274,-0.187 -2.399,-0.562 -3.718,-1.137 -5.837,2.57 -18.622,0.694 -27.211,-15.519 1.374,1.121 3.131,1.842 3.76,1.9 -2.316,-3.576 -5.089,-9.565 -5.951,-14.627 0.99,0.904 2.415,1.703 3.658,2.015 C -49,25.114 -40.009,10.263 -29.511,4.01 c -0.309,-3.087 0.538,-4.827 3.28,-7.917 -0.216,-0.318 -1.044,-1.371 -1.526,-2.046 -0.25,-0.352 -0.654,-0.924 -1.443,-0.762 -1.387,0.285 -19.331,5.295 -20.928,6.527 -0.78,3.662 -5.732,7.319 -9.711,5.528 -1.688,0.437 -2.457,-0.659 -2.813,-1.5 0.967,0.605 2.098,0.311 2.625,-0.188 0.602,-1.75 3.829,1.549 6.555,-3.257 -1.688,0.5 -7.609,1.768 -8.432,-0.03 -0.75,-0.067 -1.914,-0.088 -2.323,-1.681 0.939,0.427 1.685,0.479 2.335,0.28 1.063,-1.625 8.282,0.48 11.99,-2.708 3.25,-3.333 0.923,-5.094 3.12,-6.057 -0.084,-1.144 -0.973,-1.449 -1.816,-1.65 1.119,-0.613 2.675,-0.608 3.363,1.207 2.05,0.474 0.5,4.875 -1.667,6.125 4.125,-1.5 14.65,-4.545 17.579,-5.155 1.504,-0.314 2.644,0.009 3.321,0.94 0.501,0.689 1.316,1.504 1.999,2.543 1.543,-1.175 2.671,-1.366 3.991,-1.157 -0.312,2.553 0.574,4.794 2.154,5.906 0.862,-9.608 5.308,-13.809 10.632,-13.967 0.844,-0.934 3.708,-6.209 4.021,-6.783 0.286,-0.525 0.709,-1.533 0.052,-1.876 -1.14,-0.594 -15.052,-3.836 -19.465,-4.907 -2.213,1.948 -9.392,4.367 -10.43,0.216 -1.523,-1.177 -1.5,-2.39 -0.55,-3.446 -0.124,1.361 0.225,1.593 1.386,2.518 1.793,-0.871 2.416,1.827 6.637,-0.456 -3.584,-1.333 -7.408,-2.985 -6.513,-6.032 -0.54,-0.637 -0.426,-2.247 -0.115,-3.227 0.619,0.563 0.966,1.328 1.236,2.518 1.642,-0.475 0.296,2.191 8.367,4.873 5.042,-1.413 5.812,-4.982 7.206,-5.088 0.738,-1.024 0.104,-2.268 -0.704,-3.023 2.201,0.011 2.857,2.155 2.083,3.333 1.794,2.84 -3.355,5.574 -5.27,5.674 4.03,1.075 16.437,4.014 18.562,5.014 1.688,0.794 1.772,2.293 0.73,4.065 -0.452,0.768 -2.784,5.608 -3.342,6.61 C 6.131,-13.758 4.325,-2.918 0,0 m 6.579,-9.119 c 0.724,-1.251 3.489,-2.172 5.951,-1.859 -0.996,-3.529 -6.932,-4.718 -9.832,-4.093 7.606,-8.399 6.121,-19.005 19.537,-17.839 -7.583,1.25 -10.659,9.807 -11.18,14.288 3.113,-3.886 8.124,-5.42 11.447,-5.369 -1.892,3.579 -2.959,6.828 -3.168,11.206 11.934,-8.026 23.086,-11.413 32.936,-14.52 1.71,-0.54 1.22,-2.215 0.077,-2.777 -4.82,-2.367 -20.593,-1.256 -26.29,5.971 3.682,-7.227 11.951,-9.103 20.373,-10.178 0.038,-0.496 0.082,-3.475 -2.916,-3.171 -5.575,0.564 -15.745,1.504 -21.574,10.299 2.403,-9.613 17.913,-13.249 22.563,-14.515 2.146,-0.585 5.141,-0.553 6.214,7.233 2.841,0.548 5.181,2.073 6.174,3.316 1.023,1.283 3.255,5.682 -0.817,6.46 -4.695,0.897 -21.461,6.03 -32.822,13.638 -5.001,3.349 -5.067,8.007 -9.209,11.516 1.816,-6.949 -3.187,-9.45 -7.464,-9.606 M -6.01,65.594 c 2.089,0.072 3.122,-0.016 4.093,-0.146 -9.027,-3.919 -16.49,-5.252 -19.476,-9.774 -0.463,1.241 0.042,3.533 1.069,5.16 -3.283,-1.286 -4.596,-5.126 -3.909,-10.249 -2.338,-3.473 -2.866,-8.443 1.197,-13.677 -3.924,13.051 8.189,18.918 23.28,25.618 -1.299,0.567 -3.84,0.688 -3.84,0.688 1.287,0.819 2.984,1.834 4.95,2.703 -2.276,0.576 -4.99,1.185 -9.171,1.136 z M 1.194,12.783 c 3.384,-1.002 7.52,0.126 9.776,2.883 -6.016,-2.381 -28.307,6.601 -29.985,19.363 -0.818,-6.833 2.82,-11.655 5.17,-13.441 -1.737,-1.529 -2.484,-3.8 -2.275,-6.301 -2.502,1.25 -4.423,6.901 -4.065,10.437 -2.092,-0.938 -2.871,-2.264 -3.923,-4.139 -0.712,3.281 0.163,6.955 1.889,8.645 -1.128,0.343 -2.387,0.398 -3.376,0.223 0.485,1.358 1.687,2.987 3.907,4.507 -2.91,-0.218 -7.436,-2.974 -8.121,-7.166 1.305,0.293 3.07,0.099 4.092,-0.213 -1.314,-3.082 -1.332,-8.171 1.365,-12.185 0.157,1.422 1.003,4.01 2.653,5.238 -0.288,-3.733 2.386,-9.847 7.996,-11.01 -0.055,2.049 0.154,4.412 1.057,6.01 C -10.173,6.028 -4.586,2.223 1.303,2.693 -1.042,4.03 -3.948,6.827 -4.308,11.048 -0.473,4.965 14.669,0.834 18.629,2.571 12.098,4.1 3.45,8.021 1.194,12.783 M 43.586,-0.313 c 4.911,-2.215 13.681,0.058 15.98,1.51 2.698,1.703 2.433,4.429 -0.846,6.009 -3.279,1.581 -44.492,16.466 -46.716,17.296 0.477,1.347 -0.465,3.94 -1.846,4.596 -1.113,0.528 -14.888,5.755 -24.755,9.785 -2.712,1.108 -6.387,3.225 -7.013,6.768 -1.181,-5.141 2.491,-7.908 4.459,-8.769 C -14.8,35.854 6.462,27.238 8.13,26.474 9.129,26.016 9.45,24.181 8.712,22.587 15.729,19.959 53.369,6.076 55.097,5.209 56.826,4.342 56.992,3.444 55.082,3.007 52.521,2.419 48.246,1.414 43.161,3.489 39.948,4.801 17.927,13.619 13.969,15.005 17.022,13.218 34.919,4.174 38.922,2.239 36.061,0.176 19.973,3.889 15.388,6.548 24.599,-2.193 41.243,-2.619 43.586,-0.313"
             style="fill:#ffffff;fill-opacity:1;fill-rule:nonzero;stroke:none"
             id="path274" />
        </g>
        <g
           id="g276"
           transform="translate(262.1739,284.1102)">
          <path
             d="m 0,0 c -0.239,6.225 -4.157,7.225 -6.783,7.422 -1.365,0.102 -2.199,0.102 -3.033,0.154 -2.778,1.999 -7.965,4.698 -8.649,5.142 -0.8,0.521 -2.329,1.389 -4.309,1.737 1.493,0.139 2.234,0.52 2.698,0.892 0.464,0.373 0.611,0.649 1.246,0.843 0.634,0.193 0.376,1.039 -0.346,1.512 -0.722,0.473 -1.159,1.149 -1.715,-0.061 -0.556,-1.209 -1.32,-1.402 -2.231,-1.449 -0.91,-0.047 -1.15,-1.333 -1.945,-1.39 -5.74,-0.406 -12.888,2.747 -16.955,5.073 l -2.154,-1.182 c 2.294,-1.317 5.236,-2.643 5.932,-2.895 1.039,-0.377 4.793,-1.91 5.874,-2.042 -0.697,-5.442 -0.126,-7.89 0.611,-11.33 0.186,-0.872 0.615,-2.761 -1.085,-3.57 1.818,-1.54 3.287,1.349 3.83,0.705 0.543,-0.643 1.526,-0.459 1.526,-0.459 -4.167,5.911 -3.514,8.997 -3.411,14.216 6.874,-0.183 10.765,-1.642 13.038,-2.958 2.821,-1.633 6.43,-3.253 8.706,-4.139 4.326,-1.684 5.644,-6.301 5.484,-9.573 -1.627,6.581 -6.458,7.99 -8.371,8.594 -4.227,-4.881 -1.145,-10.273 2.945,-11.706 3.259,-1.142 6.907,-2.706 7.581,-5.905 C -0.239,-9.097 0.239,-6.225 0,0"
             style="fill:#ffffff;fill-opacity:1;fill-rule:nonzero;stroke:none"
             id="path278" />
        </g>
        <g
           id="g280"
           transform="translate(208.1134,309.4744)">
          <path
             d="m 0,0 c -4.447,3.961 -8.078,4.881 -9.849,3.162 -1.255,-1.218 -2.656,0.994 -2.502,1.719 0.365,1.72 1.968,0.706 3.648,1.147 C -4.778,7.058 3.355,0.51 3.355,0.51 L 6.671,-2.258 4.03,-3.405 Z"
             style="fill:#ffffff;fill-opacity:1;fill-rule:nonzero;stroke:none"
             id="path282" />
        </g>
      </g>
    </g>
  </g>
</svg>
