<svg width="100" height="100" viewBox="0 0 100 100" fill="none" xmlns="http://www.w3.org/2000/svg">
<path opacity="0.33" d="M8 52.3977L29.575 87.3888L29.5791 87.3847L37.1733 74.0864L51.4418 98.9999L68.235 69.6781L73.9894 79.7571L91.2 52.398L86.7466 52.3977L73.9934 72.8607L70.2045 66.2463L77.9855 52.3977H73.6177L68.0749 62.5248L62.2874 52.3977H58.2717L66.1156 65.9521L51.4459 91.5683L39.3008 70.3645L49.5605 52.3977H45.623L37.3962 67.0388L28.9046 52.3977H24.5977L35.2687 70.7526L29.5791 80.6845L11.5594 52.3977H8Z" fill="white"/>
<path d="M83.051 38.1272C84.5949 36.7626 85.7173 34.9527 86.2563 32.9263C86.9857 30.1931 86.6129 27.3373 85.2108 24.886C83.8088 22.4347 81.5436 20.6821 78.8326 19.9507C77.9371 19.7097 77.0213 19.5871 76.1015 19.5871C74.979 19.5871 73.8525 19.7792 72.7786 20.1428L69.622 14.6151L62.0281 27.9134L47.7603 3L30.9679 32.3216L25.2138 22.2427L8 52.3978H91.2L83.051 38.1272ZM76.1015 22.9332C76.7295 22.9332 77.3617 23.019 77.9776 23.1824C79.8254 23.6767 81.3734 24.8738 82.3378 26.5529C83.2982 28.228 83.5535 30.1808 83.055 32.052C82.739 33.2327 82.1555 34.2786 81.3491 35.1406L74.4887 23.1252C75.0195 22.9985 75.5666 22.9332 76.1055 22.9332H76.1015ZM13.9203 48.9496L25.2097 29.139L28.9986 35.7535L21.4979 48.9496H13.9203ZM31.126 39.4713L36.4019 48.9496H25.85L31.126 39.4713ZM40.3002 48.9496L33.0872 36.0476L47.7562 10.4315L59.9007 31.6353L50.1633 48.9496H40.3002ZM61.8053 34.9609L69.6625 48.9496H53.948L61.8053 34.9609ZM74.0713 48.9496L63.9327 31.2472L69.622 21.3153L85.4458 48.9496H74.0713Z" fill="white"/>
</svg>
